<?xml version="1.0" encoding="UTF-8"?>
<svg version="1.1" xmlns="http://www.w3.org/2000/svg" width="225" height="225">
<path d="M0 0 C0.125 5.75 0.125 5.75 -1 8 C0.79857668 10.5609294 0.79857668 10.5609294 3 13 C3.99 13 4.98 13 6 13 C6 12.01 6 11.02 6 10 C6.99005467 6.1104995 8.03401085 2.51069491 10 -1 C10.495 -0.01 10.495 -0.01 11 1 C11.66 1 12.32 1 13 1 C13.495 1.99 13.495 1.99 14 3 C15.32 2.01 16.64 1.02 18 0 C18 0.66 18 1.32 18 2 C18.66 2 19.32 2 20 2 C19.67 4.97 19.34 7.94 19 11 C19.99 11.495 19.99 11.495 21 12 C20.95875 11.236875 20.9175 10.47375 20.875 9.6875 C21 7 21 7 23 4 C26.71888239 4.50712033 29.73454239 5.11608215 33 7 C32.67 7.99 32.34 8.98 32 10 C31.34 10 30.68 10 30 10 C30.495 11.98 30.495 11.98 31 14 C29.68 14.33 28.36 14.66 27 15 C27.99 16.32 28.98 17.64 30 19 C30.309375 17.8553125 30.309375 17.8553125 30.625 16.6875 C32.47215612 13.0771494 34.19518416 12.26827195 38 11 C41.21381808 11.80345452 42.65941419 12.65941419 45 15 C45.20146402 18.693507 45.17353189 21.47940432 44 25 C40.9375 26.1875 40.9375 26.1875 38 27 C39.175625 28.4540625 39.175625 28.4540625 40.375 29.9375 C40.81585938 30.48277344 41.25671875 31.02804688 41.7109375 31.58984375 C42.9666391 33.13266437 42.9666391 33.13266437 45 34 C45.185625 32.7934375 45.185625 32.7934375 45.375 31.5625 C45.684375 30.2940625 45.684375 30.2940625 46 29 C46.99 28.505 46.99 28.505 48 28 C48.495 29.98 48.495 29.98 49 32 C49.763125 31.525625 50.52625 31.05125 51.3125 30.5625 C54 29 54 29 57 28 C57.33 27.34 57.66 26.68 58 26 C58.33 27.65 58.66 29.3 59 31 C57.73608512 32.00873016 56.46359117 33.00671822 55.1875 34 C54.47980469 34.556875 53.77210938 35.11375 53.04296875 35.6875 C51 37 51 37 48 37 C48.33 37.33 48.66 37.66 49 38 C51.54055845 37.74447562 54.03852505 37.43292841 56.5625 37.0625 C57.27341797 36.96259766 57.98433594 36.86269531 58.71679688 36.75976562 C60.47856957 36.51146209 62.23938152 36.25635961 64 36 C64.625 38.375 64.625 38.375 65 41 C64.01 41.99 64.01 41.99 63 43 C62.38125 43.78375 61.7625 44.5675 61.125 45.375 C59.20202954 47.75043409 57.19755199 49.88093201 55 52 C55.2165625 52.52207031 55.433125 53.04414062 55.65625 53.58203125 C58.02473189 59.843157 58.33571664 65.347837 58 72 C56.02 72 54.04 72 52 72 C51.896875 70.741875 51.79375 69.48375 51.6875 68.1875 C51.00112783 61.99053979 49.76974206 55.4450139 46.90234375 49.86328125 C46 48 46 48 46 45 C45.34 45 44.68 45 44 45 C43.67 44.01 43.34 43.02 43 42 C42.34 41.34 41.68 40.68 41 40 C39 38 39 38 37.5 35.8125 C29.74624971 27.08953092 18.62781785 21.80191847 7 21 C-2.39476427 20.61628763 -11.4979184 20.61855917 -20 25 C-20.99 25.28875 -21.98 25.5775 -23 25.875 C-26.29439856 27.11039946 -27.62276402 28.46939395 -30 31 C-31.1446875 31.61875 -31.1446875 31.61875 -32.3125 32.25 C-37.43552587 35.58592382 -41.45668866 40.44884557 -44 46 C-44.33 46.639375 -44.66 47.27875 -45 47.9375 C-48.75528245 55.68277006 -50.25208997 63.49744389 -51 72 C-52.98 72 -54.96 72 -57 72 C-57.66 70.68 -58.32 69.36 -59 68 C-61.31 68 -63.62 68 -66 68 C-66 67.34 -66 66.68 -66 66 C-67.65 66 -69.3 66 -71 66 C-72.24717912 63.50564175 -72.13814868 61.76297351 -72 59 C-71.67 58.34 -71.34 57.68 -71 57 C-70.34 57 -69.68 57 -69 57 C-69.495 55.515 -69.495 55.515 -70 54 C-68.93364221 50.22673399 -67.49206575 46.62358824 -66 43 C-64.68 43.33 -63.36 43.66 -62 44 C-62.33 44.99 -62.66 45.98 -63 47 C-59.7 47.66 -56.4 48.32 -53 49 C-50.7986134 45.19572508 -50.7986134 45.19572508 -50 41 C-50.66 40.67 -51.32 40.34 -52 40 C-54.18975773 36.71536341 -54.99806563 33.79303725 -56 30 C-56.66 30 -57.32 30 -58 30 C-58 29.34 -58 28.68 -58 28 C-55.49923002 26.37566809 -54.41017471 25.92666573 -51.421875 26.4609375 C-50.54015625 26.76257813 -49.6584375 27.06421875 -48.75 27.375 C-47.85796875 27.67148438 -46.9659375 27.96796875 -46.046875 28.2734375 C-45.03367187 28.63308594 -45.03367187 28.63308594 -44 29 C-44 28.34 -44 27.68 -44 27 C-44.66 26.67 -45.32 26.34 -46 26 C-47.3703055 24.02514795 -48.70672372 22.02613283 -50 20 C-44.375 15 -44.375 15 -41 15 C-41.66 16.32 -42.32 17.64 -43 19 C-41.68 18.67 -40.36 18.34 -39 18 C-38.505 19.485 -38.505 19.485 -38 21 C-39.4375 23.1875 -39.4375 23.1875 -41 25 C-40.01 25.99 -39.02 26.98 -38 28 C-36.35 26.68 -34.7 25.36 -33 24 C-33.66 23.34 -34.32 22.68 -35 22 C-35.74996108 20.71083332 -36.45503192 19.39499207 -37.125 18.0625 C-37.47820312 17.37285156 -37.83140625 16.68320312 -38.1953125 15.97265625 C-39 14 -39 14 -39 11 C-33.375 8 -33.375 8 -30 8 C-29.505 9.485 -29.505 9.485 -29 11 C-27.71698 9.83602583 -27.71698 9.83602583 -26.6875 7.0625 C-25 4 -25 4 -23.125 2.5625 C-20.35625147 1.82959598 -18.70968737 2.09677088 -16 3 C-14.1875 4.5625 -14.1875 4.5625 -13 6 C-13 5.01 -13 4.02 -13 3 C-13 2.34 -13 1.68 -13 1 C-8.20862412 -0.6290678 -4.94367454 -1.20577428 0 0 Z M14 4 C14.33 4.66 14.66 5.32 15 6 C15.33 5.34 15.66 4.68 16 4 C15.34 4 14.68 4 14 4 Z M-22 7 C-22.67958603 9.39719432 -22.67958603 9.39719432 -23 12 C-22.34 12.66 -21.68 13.32 -21 14 C-20.01 14 -19.02 14 -18 14 C-17.67 12.02 -17.34 10.04 -17 8 C-18.65 7.67 -20.3 7.34 -22 7 Z M-12 9 C-12.66 10.65 -13.32 12.3 -14 14 C-11.04335481 15.4783226 -8.25770263 15.06032783 -5 15 C-4.67 14.01 -4.34 13.02 -4 12 C-4.66 11.01 -5.32 10.02 -6 9 C-6.99 9.495 -6.99 9.495 -8 10 C-7.34 11.32 -6.68 12.64 -6 14 C-7.65 14 -9.3 14 -11 14 C-11 12.35 -11 10.7 -11 9 C-11.33 9 -11.66 9 -12 9 Z M27 9 C27.66 9.66 28.32 10.32 29 11 C29.33 10.34 29.66 9.68 30 9 C29.01 9 28.02 9 27 9 Z M10 11 C10.33 11.99 10.66 12.98 11 14 C11 13.01 11 12.02 11 11 C10.67 11 10.34 11 10 11 Z M-28 12 C-28.33 12.99 -28.66 13.98 -29 15 C-29.53625 15.45375 -30.0725 15.9075 -30.625 16.375 C-31.305625 17.179375 -31.305625 17.179375 -32 18 C-31.76956136 20.65466049 -31.76956136 20.65466049 -31 23 C-27.9168649 21.80100302 -24.93720508 20.52299523 -22 19 C-23.98 15.535 -23.98 15.535 -26 12 C-26.66 12 -27.32 12 -28 12 Z M18 12 C19 14 19 14 19 14 Z M12 14 C12 14.66 12 15.32 12 16 C12.99 15.67 13.98 15.34 15 15 C14.01 14.67 13.02 14.34 12 14 Z M36.3125 16.3125 C34.69302969 18.03837129 34.69302969 18.03837129 35 21 C37.475 21.495 37.475 21.495 40 22 C41.10636395 19.60931266 41.10636395 19.60931266 42 17 C41.67 16.34 41.34 15.68 41 15 C38.03837129 14.69302969 38.03837129 14.69302969 36.3125 16.3125 Z M-43 32 C-42 34 -42 34 -42 34 Z M-47 33 C-47.99 34.485 -47.99 34.485 -49 36 C-48.34 36.66 -47.68 37.32 -47 38 C-46.34 36.35 -45.68 34.7 -45 33 C-45.66 33 -46.32 33 -47 33 Z M-49 40 C-48 42 -48 42 -48 42 Z M52 41 C52 44.27275026 52.29925156 46.846632 53 50 C53.66 50 54.32 50 55 50 C55.68493373 47.14221967 55.68493373 47.14221967 56 44 C55.34 43.01 54.68 42.02 54 41 C53.34 41 52.68 41 52 41 Z M-65 51 C-65.33 51.99 -65.66 52.98 -66 54 C-65.67 54.66 -65.34 55.32 -65 56 C-64.34 56 -63.68 56 -63 56 C-62.67 58.64 -62.34 61.28 -62 64 C-61.01 64 -60.02 64 -59 64 C-58.01 65.485 -58.01 65.485 -57 67 C-55.70074209 62.66914029 -54.656379 58.48525648 -54 54 C-55.26839526 53.49384702 -56.53983102 52.99530901 -57.8125 52.5 C-58.52019531 52.2215625 -59.22789063 51.943125 -59.95703125 51.65625 C-62.11841216 50.8470838 -62.11841216 50.8470838 -65 51 Z M-55 51 C-54.67 51.66 -54.34 52.32 -54 53 C-53.67 52.34 -53.34 51.68 -53 51 C-53.66 51 -54.32 51 -55 51 Z M-67 54 C-67.33 54.66 -67.66 55.32 -68 56 C-67.34 56 -66.68 56 -66 56 C-66.33 55.34 -66.66 54.68 -67 54 Z " fill="#3B0D0E" transform="translate(112,41)"/>
<path d="M0 0 C0.83595703 0.05220703 1.67191406 0.10441406 2.53320312 0.15820312 C4.58500789 0.28717371 6.63631306 0.42405021 8.6875 0.5625 C9.6775 3.5325 9.6775 3.5325 10.6875 6.5625 C8.3775 6.5625 6.0675 6.5625 3.6875 6.5625 C3.67870064 7.5285038 3.67870064 7.5285038 3.66972351 8.51402283 C3.60554255 15.24701708 3.52105993 21.97954423 3.42504883 28.7121582 C3.39189668 31.22120994 3.36383486 33.73033452 3.34106445 36.23950195 C3.3073403 39.85659681 3.25501373 43.47303002 3.19921875 47.08984375 C3.19282883 48.20270248 3.1864389 49.31556122 3.17985535 50.46214294 C3.03288466 58.33571131 2.28437794 65.19357727 -2.625 71.5625 C-5.72408939 73.86879908 -7.45429594 74.5625 -11.3125 74.5625 C-14.94199179 72.95877107 -17.48955075 71.11245381 -19.3125 67.5625 C-19.66918246 64.75919875 -19.54315027 62.42256334 -19.3125 59.5625 C-18.6525 58.9025 -17.9925 58.2425 -17.3125 57.5625 C-17.89 56.87800781 -18.4675 56.19351563 -19.0625 55.48828125 C-21.44820818 52.38603225 -23.40865329 49.15705384 -25.3125 45.75 C-25.65990234 45.13342529 -26.00730469 44.51685059 -26.36523438 43.8815918 C-33.3125 31.48111368 -33.3125 31.48111368 -33.3125 27.5625 C-33.9725 27.2325 -34.6325 26.9025 -35.3125 26.5625 C-35.9725 25.5725 -36.6325 24.5825 -37.3125 23.5625 C-38.21488747 26.26966242 -38.43101302 27.80026768 -38.41015625 30.57421875 C-38.40693359 31.33154297 -38.40371094 32.08886719 -38.40039062 32.86914062 C-38.39201172 33.65482422 -38.38363281 34.44050781 -38.375 35.25 C-38.37048828 36.04728516 -38.36597656 36.84457031 -38.36132812 37.66601562 C-38.3495585 39.63154257 -38.33162348 41.59703085 -38.3125 43.5625 C-37.3225 43.5625 -36.3325 43.5625 -35.3125 43.5625 C-34.3225 45.5425 -33.3325 47.5225 -32.3125 49.5625 C-34.2925 49.5625 -36.2725 49.5625 -38.3125 49.5625 C-38.3125 48.9025 -38.3125 48.2425 -38.3125 47.5625 C-39.3025 47.8925 -40.2925 48.2225 -41.3125 48.5625 C-40.9825 50.5425 -40.6525 52.5225 -40.3125 54.5625 C-38.9925 54.5625 -37.6725 54.5625 -36.3125 54.5625 C-35.5 56.75 -35.5 56.75 -35.3125 59.5625 C-37.57111244 62.48541022 -39.37088044 64.18585218 -42.8125 65.5625 C-46.16085831 65.5625 -47.69639577 64.61296007 -50.3125 62.5625 C-51.625 60.375 -51.625 60.375 -52.3125 58.5625 C-51.3225 57.9025 -50.3325 57.2425 -49.3125 56.5625 C-50.05634159 47.57767656 -52.0778664 41.3191723 -58.3125 34.5625 C-59.6325 33.9025 -60.9525 33.2425 -62.3125 32.5625 C-63.3025 36.1925 -64.2925 39.8225 -65.3125 43.5625 C-63.9925 43.8925 -62.6725 44.2225 -61.3125 44.5625 C-60.9825 45.8825 -60.6525 47.2025 -60.3125 48.5625 C-61.055 48.583125 -61.7975 48.60375 -62.5625 48.625 C-65.74041249 49.70837926 -66.04001232 50.30724412 -67.625 53.125 C-68.4603125 54.8265625 -68.4603125 54.8265625 -69.3125 56.5625 C-69.9725 56.5625 -70.6325 56.5625 -71.3125 56.5625 C-72.64072622 50.13009016 -71.60593762 44.92060298 -70.3125 38.5625 C-70.13976562 37.634375 -69.96703125 36.70625 -69.7890625 35.75 C-67.87135346 26.78408759 -64.01426823 18.72237937 -60.11279297 10.47851562 C-59.25604181 8.57444587 -59.25604181 8.57444587 -58.82861328 6.50585938 C-58.3125 4.5625 -58.3125 4.5625 -56.3125 1.5625 C-55.3225 1.5625 -54.3325 1.5625 -53.3125 1.5625 C-52.3225 5.1925 -51.3325 8.8225 -50.3125 12.5625 C-49.6525 12.5625 -48.9925 12.5625 -48.3125 12.5625 C-47.9721875 11.6034375 -47.9721875 11.6034375 -47.625 10.625 C-46.3125 8.5625 -46.3125 8.5625 -44 7.5 C-41.3125 7.5625 -41.3125 7.5625 -38.5 9.875 C-36.3125 12.5625 -36.3125 12.5625 -36.3125 14.5625 C-35.6525 14.8925 -34.9925 15.2225 -34.3125 15.5625 C-33.2421875 17.33984375 -33.2421875 17.33984375 -32.1875 19.5 C-31.83429688 20.21027344 -31.48109375 20.92054687 -31.1171875 21.65234375 C-30.3125 23.5625 -30.3125 23.5625 -30.3125 25.5625 C-29.6525 25.8925 -28.9925 26.2225 -28.3125 26.5625 C-27.62887831 28.2222842 -26.96670191 29.89090134 -26.3125 31.5625 C-25.00657606 34.04010059 -23.59777443 36.45560695 -22.1875 38.875 C-21.81496094 39.52017578 -21.44242188 40.16535156 -21.05859375 40.83007812 C-20.14617787 42.40925945 -19.22974491 43.98611864 -18.3125 45.5625 C-18.32410156 44.28632812 -18.33570313 43.01015625 -18.34765625 41.6953125 C-18.35703417 40.02604313 -18.36613437 38.35677217 -18.375 36.6875 C-18.38337891 35.84574219 -18.39175781 35.00398438 -18.40039062 34.13671875 C-18.40361328 33.33105469 -18.40683594 32.52539062 -18.41015625 31.6953125 C-18.41539307 30.95168457 -18.42062988 30.20805664 -18.42602539 29.44189453 C-18.3125 27.5625 -18.3125 27.5625 -17.3125 25.5625 C-18.6325 25.2325 -19.9525 24.9025 -21.3125 24.5625 C-21.3125 23.9025 -21.3125 23.2425 -21.3125 22.5625 C-21.9725 22.5625 -22.6325 22.5625 -23.3125 22.5625 C-22.8175 21.0775 -22.8175 21.0775 -22.3125 19.5625 C-21.44625 19.871875 -21.44625 19.871875 -20.5625 20.1875 C-17.70408658 20.66390224 -16.74317504 20.0816719 -14.3125 18.5625 C-12.96136795 17.58668241 -11.62303056 16.59220259 -10.3125 15.5625 C-9.6525 15.8925 -8.9925 16.2225 -8.3125 16.5625 C-7.8175 18.0475 -7.8175 18.0475 -7.3125 19.5625 C-7.786875 19.995625 -8.26125 20.42875 -8.75 20.875 C-12.04652684 24.43524899 -11.4735655 28.78010501 -11.48046875 33.3359375 C-11.48379715 34.09669586 -11.48712555 34.85745422 -11.49055481 35.64126587 C-11.49561467 37.25009558 -11.49796343 38.85893578 -11.49780273 40.46777344 C-11.49998568 42.92140131 -11.51814118 45.37457687 -11.53710938 47.828125 C-11.54004426 49.39322763 -11.54202842 50.9583324 -11.54296875 52.5234375 C-11.55015427 53.25380219 -11.55733978 53.98416687 -11.56474304 54.73666382 C-11.54677827 58.76953485 -11.24184576 61.98373114 -9.3125 65.5625 C-8.6525 65.8925 -7.9925 66.2225 -7.3125 66.5625 C-6.49954629 59.01374289 -6.17540265 51.57778875 -6.21484375 43.98828125 C-6.2162587 42.93843552 -6.21767365 41.88858978 -6.21913147 40.80693054 C-6.2246712 37.49625643 -6.23721197 34.18565322 -6.25 30.875 C-6.25502281 28.61263119 -6.25958434 26.35026131 -6.26367188 24.08789062 C-6.27462079 18.57940342 -6.29129754 13.07095678 -6.3125 7.5625 C-6.9725 7.5625 -7.6325 7.5625 -8.3125 7.5625 C-8.3125 6.9025 -8.3125 6.2425 -8.3125 5.5625 C-10.2925 5.2325 -12.2725 4.9025 -14.3125 4.5625 C-14.3125 3.2425 -14.3125 1.9225 -14.3125 0.5625 C-9.49068019 -0.76325494 -4.92417933 -0.33812439 0 0 Z M-46.3125 15.5625 C-46.9725 16.2225 -47.6325 16.8825 -48.3125 17.5625 C-48.6425 17.5625 -48.9725 17.5625 -49.3125 17.5625 C-48.79650816 25.4447202 -47.2203547 32.90708305 -45.3125 40.5625 C-44.6525 40.5625 -43.9925 40.5625 -43.3125 40.5625 C-43.3125 32.3125 -43.3125 24.0625 -43.3125 15.5625 C-44.3025 15.5625 -45.2925 15.5625 -46.3125 15.5625 Z M-56.3125 19.5625 C-58.79204966 23.72684334 -58.79204966 23.72684334 -59 28.4375 C-58.773125 29.13875 -58.54625 29.84 -58.3125 30.5625 C-57.6525 30.5625 -56.9925 30.5625 -56.3125 30.5625 C-56.3125 31.2225 -56.3125 31.8825 -56.3125 32.5625 C-55.3225 32.8925 -54.3325 33.2225 -53.3125 33.5625 C-51.91873819 30.77497638 -52.57410243 29.03984485 -53.125 26 C-53.29644531 25.00871094 -53.46789062 24.01742187 -53.64453125 22.99609375 C-53.86496094 22.19300781 -54.08539063 21.38992187 -54.3125 20.5625 C-54.9725 20.2325 -55.6325 19.9025 -56.3125 19.5625 Z M-38.3125 20.5625 C-37.3125 22.5625 -37.3125 22.5625 -37.3125 22.5625 Z M-48.3125 57.5625 C-47.3125 59.5625 -47.3125 59.5625 -47.3125 59.5625 Z " fill="#501515" transform="translate(143.3125,80.4375)"/>
<path d="M0 0 C0.15855469 1.01578125 0.31710938 2.0315625 0.48046875 3.078125 C2.53661516 15.48611374 5.7516429 28.88899473 15 38 C16.04421106 39.2687435 17.08569823 40.5397319 18.125 41.8125 C21.93505327 46.16343766 26.00799892 49.12179937 31 52 C31.9075 52.52722656 32.815 53.05445313 33.75 53.59765625 C48.54512943 61.60512657 64.23993597 62.86474595 80.484375 59.05859375 C86.83259627 57.14707379 94.2330722 54.7669278 99 50 C99.845625 49.484375 100.69125 48.96875 101.5625 48.4375 C107.89450183 44.27870373 113.28246286 39.08171755 116 32 C116.99337331 30.99341694 117.99360224 29.99356105 119 29 C123.79637149 20.18228047 125.47276939 10.78420908 127 1 C129.31 1 131.62 1 134 1 C133.06775207 9.3244256 131.94493224 17.10222716 129 25 C129 25.66 129 26.32 129 27 C128.34 27 127.68 27 127 27 C126.814375 27.8353125 126.814375 27.8353125 126.625 28.6875 C125.94023145 31.22114364 125.00866237 33.57921032 124 36 C123.34 36 122.68 36 122 36 C121.76023437 36.556875 121.52046875 37.11375 121.2734375 37.6875 C119.71928734 40.50976041 117.8025826 42.62708607 115.625 45 C114.46871094 46.2684375 114.46871094 46.2684375 113.2890625 47.5625 C109.8587312 51.21527599 106.61302379 54.45218711 102.4375 57.25 C101.67308594 57.77078125 100.90867187 58.2915625 100.12109375 58.828125 C98 60 98 60 95 60 C94.505 60.99 94.505 60.99 94 62 C81.4399623 67.66433073 68.53950902 68.53608208 55 68 C54.11183594 67.98066406 53.22367188 67.96132812 52.30859375 67.94140625 C45.90621984 67.56344858 40.66169084 64.84282361 35 62 C34.11699219 61.58234375 33.23398438 61.1646875 32.32421875 60.734375 C27.15147843 58.25397145 22.4777855 55.60169703 18 52 C18 51.34 18 50.68 18 50 C17.38125 49.7525 16.7625 49.505 16.125 49.25 C13.64931313 47.79371361 13.04874998 46.62187494 12 44 C11.34 44 10.68 44 10 44 C8.55036041 42.09625645 7.18815677 40.12532841 5.875 38.125 C4.78832031 36.48917969 4.78832031 36.48917969 3.6796875 34.8203125 C2 32 2 32 2 30 C1.34 29.67 0.68 29.34 0 29 C-4.58248751 19.81712464 -6.37558474 11.1825196 -6 1 C-1.125 0 -1.125 0 0 0 Z " fill="#470E0F" transform="translate(49,116)"/>
<path d="M0 0 C0.99 0.66 1.98 1.32 3 2 C3.20300803 4.09774961 3.40089883 6.19614544 3.5703125 8.296875 C5.04815235 17.59383116 10.00138285 26.8743626 17.3125 32.8125 C18.199375 33.534375 19.08625 34.25625 20 35 C20 35.66 20 36.32 20 37 C20.56589844 37.27585938 21.13179687 37.55171875 21.71484375 37.8359375 C24.8402997 39.4280501 27.8498585 41.20919231 30.87890625 42.9765625 C33.05780509 44.21728176 33.05780509 44.21728176 36 44 C36 44.66 36 45.32 36 46 C37.44632813 46.09087891 37.44632813 46.09087891 38.921875 46.18359375 C40.18515625 46.26738281 41.4484375 46.35117188 42.75 46.4375 C44.00296875 46.51871094 45.2559375 46.59992188 46.546875 46.68359375 C50 47 50 47 52.046875 47.57421875 C61.88856291 49.71970671 73.81492137 44.61262278 82.16015625 39.73828125 C85.80912404 37.28239423 88.3799909 34.49334546 91 31 C91.804375 30.278125 92.60875 29.55625 93.4375 28.8125 C98.03643896 23.76488407 100.89331032 17.73637199 102 11 C102.66 11 103.32 11 104 11 C104 7.7 104 4.4 104 1 C107 0 107 0 109.1875 0.9375 C109.785625 1.288125 110.38375 1.63875 111 2 C107.01657773 19.26855929 107.01657773 19.26855929 103 27 C102.67 27.66 102.34 28.32 102 29 C101.34 29 100.68 29 100 29 C99.7628125 29.56460938 99.525625 30.12921875 99.28125 30.7109375 C97.71633248 33.50679624 95.79663209 35.39547728 93.5 37.625 C92.7059375 38.40101563 91.911875 39.17703125 91.09375 39.9765625 C90.4028125 40.64429688 89.711875 41.31203125 89 42 C88.01 42.99 88.01 42.99 87 44 C85.21062384 45.08090641 83.39439086 46.11782495 81.5625 47.125 C80.11037109 47.93324219 80.11037109 47.93324219 78.62890625 48.7578125 C76 50 76 50 73 50 C72.505 50.99 72.505 50.99 72 52 C55.88720087 56.0469356 39.8022005 54.51965334 25 47 C24.34 46.67 23.68 46.34 23 46 C16.74782311 42.05841022 10.41664457 37.24993372 8 30 C7.34 30 6.68 30 6 30 C6 29.34 6 28.68 6 28 C5.01 27.67 4.02 27.34 3 27 C2.87625 26.27941406 2.7525 25.55882812 2.625 24.81640625 C2.00260484 22.01173808 1.11182197 19.58216475 0 16.9375 C-2.35383155 11.32118869 -3.11815611 7.14411788 -3 1 C-2.01 0.67 -1.02 0.34 0 0 Z " fill="#400F0F" transform="translate(59,116)"/>
<path d="M0 0 C0.83595703 0.05220703 1.67191406 0.10441406 2.53320312 0.15820312 C4.58500789 0.28717371 6.63631306 0.42405021 8.6875 0.5625 C9.3475 2.5425 10.0075 4.5225 10.6875 6.5625 C8.3775 6.5625 6.0675 6.5625 3.6875 6.5625 C3.68163376 7.20650253 3.67576752 7.85050507 3.66972351 8.51402283 C3.60554255 15.24701708 3.52105993 21.97954423 3.42504883 28.7121582 C3.39189668 31.22120994 3.36383486 33.73033452 3.34106445 36.23950195 C3.3073403 39.85659681 3.25501373 43.47303002 3.19921875 47.08984375 C3.18963387 48.75913185 3.18963387 48.75913185 3.17985535 50.46214294 C3.03288466 58.33571131 2.28437794 65.19357727 -2.625 71.5625 C-5.72408939 73.86879908 -7.45429594 74.5625 -11.3125 74.5625 C-15.87771739 72.43206522 -15.87771739 72.43206522 -17.3125 69.5625 C-16.24708984 69.68818359 -16.24708984 69.68818359 -15.16015625 69.81640625 C-14.24105469 69.91824219 -13.32195312 70.02007812 -12.375 70.125 C-11.45847656 70.22941406 -10.54195312 70.33382812 -9.59765625 70.44140625 C-8.84355469 70.48136719 -8.08945313 70.52132812 -7.3125 70.5625 C-6.8175 70.0675 -6.8175 70.0675 -6.3125 69.5625 C-6.3125 68.5725 -6.3125 67.5825 -6.3125 66.5625 C-5.98195598 64.49955114 -5.64803512 62.43714295 -5.3125 60.375 C-3.17651451 45.7590993 -3.51345334 30.21187993 -5.3125 15.5625 C-5.6425 15.5625 -5.9725 15.5625 -6.3125 15.5625 C-6.3125 12.9225 -6.3125 10.2825 -6.3125 7.5625 C-6.9725 7.5625 -7.6325 7.5625 -8.3125 7.5625 C-8.3125 6.9025 -8.3125 6.2425 -8.3125 5.5625 C-11.2825 5.0675 -11.2825 5.0675 -14.3125 4.5625 C-14.3125 3.2425 -14.3125 1.9225 -14.3125 0.5625 C-9.49068019 -0.76325494 -4.92417933 -0.33812439 0 0 Z " fill="#5C1213" transform="translate(143.3125,80.4375)"/>
<path d="M0 0 C0.72159424 1.64363134 1.39351421 3.31050386 2 5 C2.66 5.33 3.32 5.66 4 6 C5.0703125 7.77734375 5.0703125 7.77734375 6.125 9.9375 C6.47820312 10.64777344 6.83140625 11.35804687 7.1953125 12.08984375 C8 14 8 14 8 16 C8.66 16.33 9.32 16.66 10 17 C10.68362169 18.6597842 11.34579809 20.32840134 12 22 C13.30592394 24.47760059 14.71472557 26.89310695 16.125 29.3125 C16.49753906 29.95767578 16.87007812 30.60285156 17.25390625 31.26757812 C18.16632213 32.84675945 19.08275509 34.42361864 20 36 C20.495 31.05 20.495 31.05 21 26 C21.66 26 22.32 26 23 26 C23 30.29 23 34.58 23 39 C19.5625 37.8125 19.5625 37.8125 16 36 C15.0625 33.3125 15.0625 33.3125 15 31 C14.34 31 13.68 31 13 31 C13.66 31.99 14.32 32.98 15 34 C15 34.99 15 35.98 15 37 C14.34 37 13.68 37 13 37 C11.65929682 34.39939496 10.32726646 31.79495084 9 29.1875 C8.6184375 28.44951172 8.236875 27.71152344 7.84375 26.95117188 C7.4828125 26.23896484 7.121875 25.52675781 6.75 24.79296875 C6.41484375 24.1383667 6.0796875 23.48376465 5.734375 22.80932617 C5 21 5 21 5 18 C4.34 17.67 3.68 17.34 3 17 C1.3125 14.125 1.3125 14.125 0 11 C0.33 10.01 0.66 9.02 1 8 C0.34 7.01 -0.32 6.02 -1 5 C-1 4.01 -1 3.02 -1 2 C-2.98 2.99 -2.98 2.99 -5 4 C-4.51104248 4.54366211 -4.02208496 5.08732422 -3.51831055 5.64746094 C-1.64464588 8.55060176 -1.65228572 10.20990521 -1.70703125 13.640625 C-1.71669922 14.71054688 -1.72636719 15.78046875 -1.73632812 16.8828125 C-1.76146484 17.99398437 -1.78660156 19.10515625 -1.8125 20.25 C-1.82603516 21.37664062 -1.83957031 22.50328125 -1.85351562 23.6640625 C-1.88884355 26.44319264 -1.9381748 29.22135363 -2 32 C-2.66 32 -3.32 32 -4 32 C-4.495 34.475 -4.495 34.475 -5 37 C-5.66 37 -6.32 37 -7 37 C-7 36.34 -7 35.68 -7 35 C-7.99 34.67 -8.98 34.34 -10 34 C-10 33.01 -10 32.02 -10 31 C-10.43568484 27.5685318 -10.89199893 24.14159759 -11.37695312 20.71679688 C-12.10909173 15.21818347 -12.10909173 15.21818347 -11 13 C-11.66 13 -12.32 13 -13 13 C-13 11.35 -13 9.7 -13 8 C-13.66 8 -14.32 8 -15 8 C-14.34 10.31 -13.68 12.62 -13 15 C-13.99 15.33 -14.98 15.66 -16 16 C-16.33 12.37 -16.66 8.74 -17 5 C-16.01 5 -15.02 5 -14 5 C-11.33060001 4.0293091 -10.25782985 3.53177407 -9 0.9375 C-8 -1 -8 -1 -6.125 -1.875 C-3.38169919 -2.03637064 -2.21820916 -1.62668672 0 0 Z M-8 6 C-8.66 6.66 -9.32 7.32 -10 8 C-10.33 8 -10.66 8 -11 8 C-10.48400816 15.8822202 -8.9078547 23.34458305 -7 31 C-6.34 31 -5.68 31 -5 31 C-5 22.75 -5 14.5 -5 6 C-5.99 6 -6.98 6 -8 6 Z " fill="#3E0E0E" transform="translate(105,90)"/>
<path d="M0 0 C2.3125 0.1875 2.3125 0.1875 5 1 C7.20970874 3.89548041 8 5.33157745 8 9 C7.67 8.67 7.34 8.34 7 8 C6.17463655 13.71905383 5.87246299 19.2267149 5.9375 25 C5.94201172 25.77472656 5.94652344 26.54945312 5.95117188 27.34765625 C5.96280242 29.23180524 5.98073094 31.11591365 6 33 C6.99 33 7.98 33 9 33 C9.99 34.98 10.98 36.96 12 39 C10.02 39 8.04 39 6 39 C6 38.34 6 37.68 6 37 C4.515 37.495 4.515 37.495 3 38 C3.33 39.98 3.66 41.96 4 44 C5.32 44 6.64 44 8 44 C8.8125 46.1875 8.8125 46.1875 9 49 C6.74138756 51.92291022 4.94161956 53.62335218 1.5 55 C-1.84835831 55 -3.38389577 54.05046007 -6 52 C-7.3125 49.8125 -7.3125 49.8125 -8 48 C-7.175 47.566875 -6.35 47.13375 -5.5 46.6875 C-4.675 46.130625 -3.85 45.57375 -3 45 C-3 41.65790047 -3.81039199 39.67282927 -5 36.5625 C-7.1902896 30.24613667 -7.42290508 24.62551296 -7 18 C-7.66 18 -8.32 18 -9 18 C-8.814375 17.29875 -8.62875 16.5975 -8.4375 15.875 C-7.94843024 12.66111302 -8.33768442 10.16439664 -9 7 C-8.34 7 -7.68 7 -7 7 C-7 8.65 -7 10.3 -7 12 C-6.34 12 -5.68 12 -5 12 C-4.93941406 12.78503906 -4.87882812 13.57007812 -4.81640625 14.37890625 C-4.79297031 24.42789511 -4.79297031 24.42789511 -1 33 C-1 33.99 -1 34.98 -1 36 C-0.01 35.505 -0.01 35.505 1 35 C1.65213292 32.97536745 1.65213292 32.97536745 2 31 C2.66 31 3.32 31 4 31 C3.9278125 30.41734375 3.855625 29.8346875 3.78125 29.234375 C3.01528472 22.46834834 2.89477142 15.80478149 3 9 C2.67 9 2.34 9 2 9 C1.87625 8.195625 1.7525 7.39125 1.625 6.5625 C1.41875 5.716875 1.2125 4.87125 1 4 C0.34 3.67 -0.32 3.34 -1 3 C-0.67 2.01 -0.34 1.02 0 0 Z M-4 47 C-3 49 -3 49 -3 49 Z " fill="#5C1517" transform="translate(99,91)"/>
<path d="M0 0 C0.33 0.99 0.66 1.98 1 3 C0.67 3.33 0.34 3.66 0 4 C0.66 4 1.32 4 2 4 C1.67 5.32 1.34 6.64 1 8 C0.34 8 -0.32 8 -1 8 C-0.67 9.98 -0.34 11.96 0 14 C1.98 13.01 3.96 12.02 6 11 C5.875 12.8125 5.875 12.8125 5 15 C2.0625 16.625 2.0625 16.625 -1 18 C-1.66 18.66 -2.32 19.32 -3 20 C-5.97868948 22.56783576 -8.17872559 23.27705619 -12 24 C-12.33 24.66 -12.66 25.32 -13 26 C-15.32156597 26.40729228 -17.6568787 26.74438677 -20 27 C-19.67 28.65 -19.34 30.3 -19 32 C-21.4375 31.25 -21.4375 31.25 -24 30 C-24.75 28.125 -24.75 28.125 -25 26 C-25.185625 25.2575 -25.37125 24.515 -25.5625 23.75 C-25.706875 23.1725 -25.85125 22.595 -26 22 C-26.66 22 -27.32 22 -28 22 C-28 21.34 -28 20.68 -28 20 C-25.49923002 18.37566809 -24.41017471 17.92666573 -21.421875 18.4609375 C-20.54015625 18.76257813 -19.6584375 19.06421875 -18.75 19.375 C-17.85796875 19.67148438 -16.9659375 19.96796875 -16.046875 20.2734375 C-15.03367187 20.63308594 -15.03367187 20.63308594 -14 21 C-14 20.34 -14 19.68 -14 19 C-14.66 18.67 -15.32 18.34 -16 18 C-17.3703055 16.02514795 -18.70672372 14.02613283 -20 12 C-14.375 7 -14.375 7 -11 7 C-11.66 8.32 -12.32 9.64 -13 11 C-11.68 10.67 -10.36 10.34 -9 10 C-8.67 10.99 -8.34 11.98 -8 13 C-9.4375 15.1875 -9.4375 15.1875 -11 17 C-10.01 17.99 -9.02 18.98 -8 20 C-6.35 18.68 -4.7 17.36 -3 16 C-3.66 15.34 -4.32 14.68 -5 14 C-5.74996108 12.71083332 -6.45503192 11.39499207 -7.125 10.0625 C-7.47820312 9.37285156 -7.83140625 8.68320312 -8.1953125 7.97265625 C-9 6 -9 6 -9 3 C-3.375 0 -3.375 0 0 0 Z " fill="#300F0F" transform="translate(82,49)"/>
<path d="M0 0 C0.33 0 0.66 0 1 0 C2.22183396 19.72389111 3.25121006 39.4346823 0 59 C0 59.66 0 60.32 0 61 C0 61.66 0 62.32 0 63 C-3.59627578 64.79813789 -7.05903532 64.29274457 -10.8125 63.125 C-13 62 -13 62 -14 60 C-14.13415472 57.3276379 -14.04318541 54.67749512 -14 52 C-11.6875 51.375 -11.6875 51.375 -9 51 C-5.61663396 53.25557736 -5.39927488 54.36188532 -4 58 C-3.34 58.33 -2.68 58.66 -2 59 C-0.66285261 48.62964594 -0.9209832 38.24365799 -1 27.8125 C-1.02677749 24.25651303 -1.04666641 20.70058195 -1.0625 17.14453125 C-1.07079834 16.34537796 -1.07909668 15.54622467 -1.08764648 14.72285461 C-1.10924381 9.72290886 -0.71624101 4.94988803 0 0 Z " fill="#440D0D" transform="translate(138,88)"/>
<path d="M0 0 C1.32 0.33 2.64 0.66 4 1 C3.67 1.99 3.34 2.98 3 4 C5.97 4.99 8.94 5.98 12 7 C11.67 7.99 11.34 8.98 11 10 C7.53058454 9.54177532 4.32604951 9.10868317 1 8 C1 9.65 1 11.3 1 13 C1.66 13 2.32 13 3 13 C4.35439668 15.70879335 4.06501451 18.00933268 4 21 C5.32 20.67 6.64 20.34 8 20 C7.67 21.65 7.34 23.3 7 25 C4.69 25 2.38 25 0 25 C0 24.34 0 23.68 0 23 C-1.65 23 -3.3 23 -5 23 C-6.24717912 20.50564175 -6.13814868 18.76297351 -6 16 C-5.67 15.34 -5.34 14.68 -5 14 C-4.34 14 -3.68 14 -3 14 C-3.33 13.01 -3.66 12.02 -4 11 C-2.93364221 7.22673399 -1.49206575 3.62358824 0 0 Z M-1 11 C-1.33 11.66 -1.66 12.32 -2 13 C-1.34 13 -0.68 13 0 13 C-0.33 12.34 -0.66 11.68 -1 11 Z " fill="#2A0E0E" transform="translate(46,84)"/>
<path d="M0 0 C0.33 0.66 0.66 1.32 1 2 C3.01669827 3.13350534 3.01669827 3.13350534 5 4 C5 4.66 5 5.32 5 6 C5.639375 6.268125 6.27875 6.53625 6.9375 6.8125 C9 8 9 8 10 11 C11.65697379 11.69040574 13.3255761 12.3530635 15 13 C15.763125 13.61875 16.52625 14.2375 17.3125 14.875 C23.61548405 19.85875483 29.51674448 21.52233033 37.4609375 22.5078125 C40 23 40 23 42 25 C44.03060659 25.36894582 44.03060659 25.36894582 46.3515625 25.4140625 C47.20234375 25.45273438 48.053125 25.49140625 48.9296875 25.53125 C49.81914063 25.5621875 50.70859375 25.593125 51.625 25.625 C52.5221875 25.66367188 53.419375 25.70234375 54.34375 25.7421875 C56.5622927 25.83659357 58.78082403 25.92216748 61 26 C61 26.33 61 26.66 61 27 C60.10796875 27.06058594 59.2159375 27.12117188 58.296875 27.18359375 C56.54117188 27.30927734 56.54117188 27.30927734 54.75 27.4375 C53.58984375 27.51871094 52.4296875 27.59992188 51.234375 27.68359375 C48.16458929 27.88377031 48.16458929 27.88377031 45.94140625 28.59765625 C36.24394309 30.60739208 24.43360918 23.25763119 16 19 C16 18.34 16 17.68 16 17 C15.278125 16.7525 14.55625 16.505 13.8125 16.25 C8.52643831 13.90063925 5.83566896 10.93159819 3 6 C1.70420353 4.63015802 0.38007251 3.2848951 -1 2 C-0.67 1.34 -0.34 0.68 0 0 Z " fill="#5B181A" transform="translate(59,153)"/>
<path d="M0 0 C2.31 0 4.62 0 7 0 C6.06775207 8.3244256 4.94493224 16.10222716 2 24 C2 24.66 2 25.32 2 26 C1.34 26 0.68 26 0 26 C-0.12375 26.556875 -0.2475 27.11375 -0.375 27.6875 C-1.05976855 30.22114364 -1.99133763 32.57921032 -3 35 C-3.66 35 -4.32 35 -5 35 C-5.268125 35.598125 -5.53625 36.19625 -5.8125 36.8125 C-6.98493467 38.97224808 -8.19369282 40.35790256 -10 42 C-10 38.63836193 -9.62222474 38.19846173 -7.625 35.6875 C-5.2901021 32.58964954 -4.15106805 29.71883523 -3 26 C-2.34 25.67 -1.68 25.34 -1 25 C1.91441463 18.04912111 2.91826856 10.40667882 4 3 C3.34 2.67 2.68 2.34 2 2 C1.97421875 2.58265625 1.9484375 3.1653125 1.921875 3.765625 C1.42295104 10.97734409 -0.43947387 17.26272913 -3 24 C-3.32226562 24.85335937 -3.64453125 25.70671875 -3.9765625 26.5859375 C-6.2621677 32.17916649 -8.90639116 36.24416796 -14.3125 39.3125 C-15.1478125 39.6528125 -15.1478125 39.6528125 -16 40 C-15.360625 39.071875 -14.72125 38.14375 -14.0625 37.1875 C-11.91377907 34.15780057 -11.91377907 34.15780057 -11 31 C-10.5359375 30.55011719 -10.071875 30.10023438 -9.59375 29.63671875 C-2.51805033 22.37025267 -1.50117296 9.6172707 0 0 Z " fill="#3C0708" transform="translate(176,117)"/>
<path d="M0 0 C0.83595703 0.05220703 1.67191406 0.10441406 2.53320312 0.15820312 C4.58500789 0.28717371 6.63631306 0.42405021 8.6875 0.5625 C9.3475 2.5425 10.0075 4.5225 10.6875 6.5625 C8.3775 6.5625 6.0675 6.5625 3.6875 6.5625 C3.3575 24.0525 3.0275 41.5425 2.6875 59.5625 C2.3575 59.5625 2.0275 59.5625 1.6875 59.5625 C1.0275 40.7525 0.3675 21.9425 -0.3125 2.5625 C-3.6125 2.8925 -6.9125 3.2225 -10.3125 3.5625 C-11.6325 2.9025 -12.9525 2.2425 -14.3125 1.5625 C-14.3125 1.2325 -14.3125 0.9025 -14.3125 0.5625 C-9.49068019 -0.76325494 -4.92417933 -0.33812439 0 0 Z " fill="#491D20" transform="translate(143.3125,80.4375)"/>
<path d="M0 0 C0.99 0 1.98 0 3 0 C3.53122363 1.76774419 4.04964073 3.53934083 4.5625 5.3125 C4.85253906 6.29863281 5.14257812 7.28476563 5.44140625 8.30078125 C6 11 6 11 5 14 C4.01 14.33 3.02 14.66 2 15 C1.26676204 17.01508358 1.26676204 17.01508358 1 19 C0.01 19 -0.98 19 -2 19 C-2.66 21.31 -3.32 23.62 -4 26 C-4.99 25.67 -5.98 25.34 -7 25 C-6.125 18.25 -6.125 18.25 -5 16 C-5.66 15.67 -6.32 15.34 -7 15 C-6.72285156 14.46890625 -6.44570312 13.9378125 -6.16015625 13.390625 C-5.79792969 12.68421875 -5.43570313 11.9778125 -5.0625 11.25 C-4.70285156 10.55390625 -4.34320313 9.8578125 -3.97265625 9.140625 C-2.94491485 7.05637064 -2.94491485 7.05637064 -2.49609375 4.921875 C-2 3 -2 3 0 0 Z " fill="#571715" transform="translate(87,82)"/>
<path d="M0 0 C2.8125 1.3125 2.8125 1.3125 4.8125 3.3125 C5.01396402 7.006007 4.98603189 9.79190432 3.8125 13.3125 C-6.18312363 15.90330963 -6.18312363 15.90330963 -10.375 13.4375 C-10.973125 12.73625 -11.57125 12.035 -12.1875 11.3125 C-11.89875 10.755625 -11.61 10.19875 -11.3125 9.625 C-10.12104207 7.31816814 -10.12104207 7.31816814 -9.375 4.75 C-7.24956632 0.38726772 -4.74966263 -1.02443704 0 0 Z M-3.875 4.625 C-5.49447031 6.35087129 -5.49447031 6.35087129 -5.1875 9.3125 C-2.7125 9.8075 -2.7125 9.8075 -0.1875 10.3125 C0.91886395 7.92181266 0.91886395 7.92181266 1.8125 5.3125 C1.4825 4.6525 1.1525 3.9925 0.8125 3.3125 C-2.14912871 3.00552969 -2.14912871 3.00552969 -3.875 4.625 Z " fill="#2C0C0E" transform="translate(152.1875,52.6875)"/>
<path d="M0 0 C-1.56172678 9.4084516 -3.5420615 17.48501675 -8 26 C-8.33 26.66 -8.66 27.32 -9 28 C-9.66 28 -10.32 28 -11 28 C-11.28875 28.639375 -11.5775 29.27875 -11.875 29.9375 C-13 32 -13 32 -15 33 C-14.67 31.68 -14.34 30.36 -14 29 C-13.34 29 -12.68 29 -12 29 C-11.773125 28.21625 -11.54625 27.4325 -11.3125 26.625 C-9.59339067 21.87698375 -7.31915279 17.47897448 -5 13 C-5.66 13 -6.32 13 -7 13 C-7.103125 13.721875 -7.20625 14.44375 -7.3125 15.1875 C-8.05986932 18.24491993 -9.28045189 20.38329635 -11 23 C-11.66 22.67 -12.32 22.34 -13 22 C-12.38385645 20.18447022 -11.75681772 18.3726347 -11.125 16.5625 C-10.77695313 15.55316406 -10.42890625 14.54382813 -10.0703125 13.50390625 C-9 11 -9 11 -7 10 C-7 6.7 -7 3.4 -7 0 C-4.3333581 -1.33332095 -2.83319697 -0.67102033 0 0 Z " fill="#44120F" transform="translate(170,117)"/>
<path d="M0 0 C0.66 0.33 1.32 0.66 2 1 C0.68 5.29 -0.64 9.58 -2 14 C-0.68 14.33 0.64 14.66 2 15 C2.33 16.32 2.66 17.64 3 19 C2.2575 19.020625 1.515 19.04125 0.75 19.0625 C-2.42791249 20.14587926 -2.72751232 20.74474412 -4.3125 23.5625 C-4.869375 24.696875 -5.42625 25.83125 -6 27 C-6.66 27 -7.32 27 -8 27 C-9.33534095 21.6586362 -8.65480178 18.13859499 -7 13 C-6.34 12.67 -5.68 12.34 -5 12 C-4.39737901 9.7591427 -4.04392817 7.51429025 -3.66015625 5.2265625 C-2.91571467 2.71572404 -1.97669856 1.66969088 0 0 Z " fill="#461F20" transform="translate(80,110)"/>
<path d="M0 0 C0.66 0 1.32 0 2 0 C2.21914063 0.73863281 2.43828125 1.47726563 2.6640625 2.23828125 C5.32370368 10.74697071 8.38075953 19.73994312 15 26 C16.04421106 27.2687435 17.08569823 28.5397319 18.125 29.8125 C24.89646243 37.54525564 33.84956694 41.63380351 43 46 C42.505 46.99 42.505 46.99 42 48 C40.32951449 47.28407764 38.65953998 46.56693903 36.9921875 45.84375 C35.19899717 45.08428115 33.38178675 44.38213676 31.5625 43.6875 C24.51755914 40.35042275 19.48189158 35.79770887 14.640625 29.734375 C12.88767962 27.88126132 11.26208289 27.11654092 9 26 C8.62127066 24.34305915 8.29749946 22.67343448 8 21 C7.35083826 19.75016162 6.66024802 18.52127717 5.9375 17.3125 C4 14 4 14 4 12 C3.34 11.67 2.68 11.34 2 11 C2.33 10.34 2.66 9.68 3 9 C2.34 8.67 1.68 8.34 1 8 C0.40644386 5.35139573 0.25790731 2.70802678 0 0 Z " fill="#380909" transform="translate(49,128)"/>
<path d="M0 0 C2.3125 0.1875 2.3125 0.1875 5 1 C7.20970874 3.89548041 8 5.33157745 8 9 C7.67 8.67 7.34 8.34 7 8 C6.17463655 13.71905383 5.87246299 19.2267149 5.9375 25 C5.94201172 25.77472656 5.94652344 26.54945312 5.95117188 27.34765625 C5.96280242 29.23180524 5.98073094 31.11591365 6 33 C6.99 33 7.98 33 9 33 C9.99 34.98 10.98 36.96 12 39 C10.02 39 8.04 39 6 39 C6 38.34 6 37.68 6 37 C4.68 36.34 3.36 35.68 2 35 C2 33.68 2 32.36 2 31 C2.66 31 3.32 31 4 31 C3.9278125 30.41734375 3.855625 29.8346875 3.78125 29.234375 C3.01528472 22.46834834 2.89477142 15.80478149 3 9 C2.67 9 2.34 9 2 9 C1.87625 8.195625 1.7525 7.39125 1.625 6.5625 C1.315625 5.2940625 1.315625 5.2940625 1 4 C0.34 3.67 -0.32 3.34 -1 3 C-0.67 2.01 -0.34 1.02 0 0 Z " fill="#3E191A" transform="translate(99,91)"/>
<path d="M0 0 C1.08410156 0.25265625 2.16820312 0.5053125 3.28515625 0.765625 C4.16042969 1.09046875 5.03570312 1.4153125 5.9375 1.75 C6.2675 2.74 6.5975 3.73 6.9375 4.75 C4.77426753 7.06242092 2.56102196 8.7656396 -0.125 10.4375 C-1.16333984 11.09298828 -1.16333984 11.09298828 -2.22265625 11.76171875 C-4.0625 12.75 -4.0625 12.75 -6.0625 12.75 C-7.2702558 9.12673261 -6.60561128 8.10853631 -5.0625 4.75 C-5.7225 4.75 -6.3825 4.75 -7.0625 4.75 C-7.3925 3.1 -7.7225 1.45 -8.0625 -0.25 C-5.10541642 -1.72854179 -3.16705315 -0.77005822 0 0 Z " fill="#321010" transform="translate(178.0625,99.25)"/>
<path d="M0 0 C0.625 2.375 0.625 2.375 1 5 C0.34 5.66 -0.32 6.32 -1 7 C-1.639375 7.804375 -2.27875 8.60875 -2.9375 9.4375 C-4.54663137 11.43672382 -6.14474709 13.23750974 -8 15 C-8.66 14.67 -9.32 14.34 -10 14 C-9.814375 13.05125 -9.62875 12.1025 -9.4375 11.125 C-8.71313368 8.10131207 -8.71313368 8.10131207 -10 6 C-10.66 5.855625 -11.32 5.71125 -12 5.5625 C-12.66 5.376875 -13.32 5.19125 -14 5 C-14.33 4.01 -14.66 3.02 -15 2 C-13.06302033 1.66365624 -11.12539514 1.33102835 -9.1875 1 C-7.56908203 0.7215625 -7.56908203 0.7215625 -5.91796875 0.4375 C-3 0 -3 0 0 0 Z " fill="#290B0B" transform="translate(176,77)"/>
<path d="M0 0 C0.99 0 1.98 0 3 0 C3 0.66 3 1.32 3 2 C4.010625 2.144375 5.02125 2.28875 6.0625 2.4375 C7.361875 2.623125 8.66125 2.80875 10 3 C11.216875 3.144375 12.43375 3.28875 13.6875 3.4375 C16.58704471 3.92987552 18.50762097 4.50457258 21 6 C18 8 18 8 16 8 C16.66 9.65 17.32 11.3 18 13 C17.16082031 12.61908203 17.16082031 12.61908203 16.3046875 12.23046875 C9.0531399 9.11766616 1.73578531 7.47135974 -6 6 C-4 4 -4 4 -0.875 3.875 C0.07375 3.91625 1.0225 3.9575 2 4 C1.34 2.68 0.68 1.36 0 0 Z " fill="#410E0C" transform="translate(121,55)"/>
<path d="M0 0 C0.66 0 1.32 0 2 0 C-1.58991472 11.68631813 -1.58991472 11.68631813 -5.5625 15.5 C-7.17685794 16.99106824 -7.17685794 16.99106824 -7.9375 19.4375 C-9.60708743 23.46415204 -11.80467588 25.45667085 -15.75 27.25 C-16.4925 27.4975 -17.235 27.745 -18 28 C-18.33 27.34 -18.66 26.68 -19 26 C-17.22376057 21.11534156 -14.63919751 18.55113101 -10.62109375 15.4921875 C-8.87173978 14.06475154 -8.87173978 14.06475154 -7.97265625 11.8828125 C-7 10 -7 10 -4 9 C-1.96039529 6.0974856 -0.64658926 3.49158202 0 0 Z " fill="#481114" transform="translate(163,130)"/>
<path d="M0 0 C1.98 0.66 3.96 1.32 6 2 C5.56604691 7.42441362 4.45068767 10.76058371 1 15 C-1.71897494 17.1564284 -3.02161264 16.99924166 -6.5625 16.875 C-10.42463808 15.89191031 -10.90119022 15.17692179 -13 12 C-12.28972656 12.08378906 -11.57945313 12.16757813 -10.84765625 12.25390625 C-9.92855469 12.35574219 -9.00945312 12.45757812 -8.0625 12.5625 C-7.14597656 12.66691406 -6.22945312 12.77132812 -5.28515625 12.87890625 C-4.15400391 12.93884766 -4.15400391 12.93884766 -3 13 C-2.67 12.67 -2.34 12.34 -2 12 C-2 11.01 -2 10.02 -2 9 C-1.69657808 7.43141704 -1.36089618 5.86886477 -1 4.3125 C-0.814375 3.50425781 -0.62875 2.69601563 -0.4375 1.86328125 C-0.293125 1.24839844 -0.14875 0.63351563 0 0 Z " fill="#521A19" transform="translate(139,138)"/>
<path d="M0 0 C0.33 0.99 0.66 1.98 1 3 C2.91666667 4.16666667 2.91666667 4.16666667 5 5 C9.67022061 7.33511031 12.83532464 12.69380878 15.6875 16.9375 C16.450625 17.948125 17.21375 18.95875 18 20 C18.99 20 19.98 20 21 20 C21.625 21.8125 21.625 21.8125 22 24 C21.34 24.99 20.68 25.98 20 27 C18.6827656 25.23268551 17.37136412 23.46102239 16.0625 21.6875 C15.33160156 20.70136719 14.60070312 19.71523437 13.84765625 18.69921875 C12 16 12 16 11 13 C10.34 12.95875 9.68 12.9175 9 12.875 C4.59681646 11.59073813 1.32709996 9.12523097 -2 6 C-3.5 3.125 -3.5 3.125 -4 1 C-2 0 -2 0 0 0 Z " fill="#451215" transform="translate(141,62)"/>
<path d="M0 0 C3 1 3 1 5 3 C4.979375 4.010625 4.95875 5.02125 4.9375 6.0625 C5.08259365 15.20339999 9.84811228 23.05901087 14 31 C13.34 31.66 12.68 32.32 12 33 C12 32.01 12 31.02 12 30 C11.01 29.67 10.02 29.34 9 29 C3.9204151 20.70599029 0 9.8187795 0 0 Z " fill="#581517" transform="translate(45,121)"/>
<path d="M0 0 C0.33 0 0.66 0 1 0 C1.66 2.97 2.32 5.94 3 9 C1.68 9.33 0.36 9.66 -1 10 C-1.33 10.66 -1.66 11.32 -2 12 C-0.576875 11.2575 -0.576875 11.2575 0.875 10.5 C4 9 4 9 6 9 C6.33 8.01 6.66 7.02 7 6 C7.66 6.33 8.32 6.66 9 7 C7.71107323 9.87529818 6.50703617 12.05008298 4 14 C0.7666037 15.19125127 -0.50706353 15.21780914 -3.6875 13.8125 C-6.02715813 11.9787139 -6.95902262 10.7443949 -8 8 C-6.8553125 7.4121875 -6.8553125 7.4121875 -5.6875 6.8125 C-2.74827521 4.83023212 -1.66277918 3.07614147 0 0 Z M-4 7 C-3 9 -3 9 -3 9 Z " fill="#531618" transform="translate(99,131)"/>
<path d="M0 0 C0.66 0 1.32 0 2 0 C2.03738281 0.60585937 2.07476562 1.21171875 2.11328125 1.8359375 C2.5538667 7.45124224 3.5635524 12.44029269 5.37890625 17.7734375 C6 20 6 20 6 24 C6.66 24.33 7.32 24.66 8 25 C7.01 25.99 6.02 26.98 5 28 C3.79945143 25.59890286 3.69748672 23.60364022 3.375 20.9375 C2.12619457 13.63679134 -1.88908328 9.11091672 -7 4 C-6.67 3.34 -6.34 2.68 -6 2 C-5.01 2 -4.02 2 -3 2 C-3 2.66 -3 3.32 -3 4 C-2.01 3.67 -1.02 3.34 0 3 C0 2.01 0 1.02 0 0 Z " fill="#390608" transform="translate(90,109)"/>
<path d="M0 0 C0.66 0 1.32 0 2 0 C1.34 3.63 0.68 7.26 0 11 C0.66 9.68 1.32 8.36 2 7 C2.66 7 3.32 7 4 7 C3.67 11.29 3.34 15.58 3 20 C1.02 20 -0.96 20 -3 20 C-4.38523954 15.42870953 -3.3925247 12.48702402 -2 8 C-1.66140041 5.66742506 -1.3267961 3.33425788 -1 1 C-0.67 0.67 -0.34 0.34 0 0 Z " fill="#3D0F0E" transform="translate(58,93)"/>
<path d="M0 0 C0.66 0.33 1.32 0.66 2 1 C2.33 1.99 2.66 2.98 3 4 C2.54625 4.391875 2.0925 4.78375 1.625 5.1875 C-0.16809237 6.96944965 -0.16809237 6.96944965 -1 9.625 C-1.33 10.40875 -1.66 11.1925 -2 12 C-2.99 12.33 -3.98 12.66 -5 13 C-5.66 12.34 -6.32 11.68 -7 11 C-8.31747324 10.30251417 -9.64914193 9.63040043 -11 9 C-11 8.34 -11 7.68 -11 7 C-11.66 7 -12.32 7 -13 7 C-12.67 6.01 -12.34 5.02 -12 4 C-11.4225 4.20625 -10.845 4.4125 -10.25 4.625 C-7.39158658 5.10140224 -6.43067504 4.5191719 -4 3 C-2.64886795 2.02418241 -1.31053056 1.02970259 0 0 Z " fill="#461C1D" transform="translate(133,96)"/>
<path d="M0 0 C0.66 0 1.32 0 2 0 C3 4.75 3 4.75 3 7 C4.45833358 8.62514468 4.45833358 8.62514468 6 10 C5.01 11.485 5.01 11.485 4 13 C2.35 12.67 0.7 12.34 -1 12 C-1 11.34 -1 10.68 -1 10 C-1.99 10 -2.98 10 -4 10 C-4.33 10.66 -4.66 11.32 -5 12 C-7.475 11.01 -7.475 11.01 -10 10 C-9.67 9.01 -9.34 8.02 -9 7 C-7.35 7 -5.7 7 -4 7 C-3.71125 6.401875 -3.4225 5.80375 -3.125 5.1875 C-2 3 -2 3 0 0 Z " fill="#2E1113" transform="translate(178,85)"/>
<path d="M0 0 C0.99 0.33 1.98 0.66 3 1 C1.97006891 8.88710388 0.25737661 15.74890495 -3 23 C-3.58479045 24.37438092 -4.16829547 25.74931013 -4.75 27.125 C-5.1625 28.07375 -5.575 29.0225 -6 30 C-6.99 29.67 -7.98 29.34 -9 29 C-8.5875 28.113125 -8.175 27.22625 -7.75 26.3125 C-4.14609916 17.8920113 -1.82163083 8.9563516 0 0 Z " fill="#5C161A" transform="translate(178,119)"/>
<path d="M0 0 C0.66 0.33 1.32 0.66 2 1 C2 1.66 2 2.32 2 3 C3.99954746 3.04254356 6.00041636 3.04080783 8 3 C8.33 2.67 8.66 2.34 9 2 C11.33297433 1.95907063 13.66705225 1.95758277 16 2 C16.33 2.66 16.66 3.32 17 4 C19.01669827 5.13350534 19.01669827 5.13350534 21 6 C19.35 6.33 17.7 6.66 16 7 C16 6.34 16 5.68 16 5 C15.41992188 5.16757812 14.83984375 5.33515625 14.2421875 5.5078125 C8.88572319 6.9043824 6.27641432 6.79398087 1 5 C-1.80385913 5.16200075 -4.53838197 5.49644216 -7.31640625 5.90625 C-10.37341 6.01304489 -12.26319605 5.30653932 -15 4 C-12 3 -12 3 -9.4375 3.5625 C-8.633125 3.706875 -7.82875 3.85125 -7 4 C-6.34 3.34 -5.68 2.68 -5 2 C-2.375 1.875 -2.375 1.875 0 2 C0 1.34 0 0.68 0 0 Z " fill="#511513" transform="translate(107,54)"/>
<path d="M0 0 C0.66 0 1.32 0 2 0 C2 2.64 2 5.28 2 8 C4.86724686 7.42655063 5.8614515 7.1385485 8 5 C8.33 5.33 8.66 5.66 9 6 C9.99 5.01 10.98 4.02 12 3 C12.66 4.32 13.32 5.64 14 7 C12.68 7.33 11.36 7.66 10 8 C10.66 9.32 11.32 10.64 12 12 C9.89455987 11.71767279 7.79066411 11.4238102 5.6875 11.125 C4.51574219 10.96257813 3.34398437 10.80015625 2.13671875 10.6328125 C-1 10 -1 10 -4 8 C-2 2 -2 2 0 0 Z " fill="#2C0A0A" transform="translate(129,48)"/>
<path d="M0 0 C6.75 0.75 6.75 0.75 9 3 C11.03060659 3.36894582 11.03060659 3.36894582 13.3515625 3.4140625 C14.20234375 3.45273438 15.053125 3.49140625 15.9296875 3.53125 C16.81914063 3.5621875 17.70859375 3.593125 18.625 3.625 C19.97078125 3.68300781 19.97078125 3.68300781 21.34375 3.7421875 C23.5622927 3.83659357 25.78082403 3.92216748 28 4 C28 4.33 28 4.66 28 5 C27.10796875 5.06058594 26.2159375 5.12117187 25.296875 5.18359375 C23.54117188 5.30927734 23.54117188 5.30927734 21.75 5.4375 C20.58984375 5.51871094 19.4296875 5.59992188 18.234375 5.68359375 C15.16940934 5.87244512 15.16940934 5.87244512 13 6.625 C9.89042887 7.20804459 7.29174279 6.3229357 4.25 5.5625 C3.07953125 5.27503906 1.9090625 4.98757812 0.703125 4.69140625 C-0.63492188 4.34916016 -0.63492188 4.34916016 -2 4 C-1.34 2.68 -0.68 1.36 0 0 Z " fill="#541113" transform="translate(92,175)"/>
<path d="M0 0 C0.66 0.33 1.32 0.66 2 1 C-1.98342227 18.26855929 -1.98342227 18.26855929 -6 26 C-6.33 26.66 -6.66 27.32 -7 28 C-7.66 28 -8.32 28 -9 28 C-9.28875 28.639375 -9.5775 29.27875 -9.875 29.9375 C-11 32 -11 32 -13 33 C-12.67 31.68 -12.34 30.36 -12 29 C-11.34 29 -10.68 29 -10 29 C-9.62875 27.7625 -9.62875 27.7625 -9.25 26.5 C-8.31087516 23.87045045 -7.3793117 21.78663216 -6.0625 19.375 C-3.41848779 14.24601391 -1.93534827 8.6820222 -1 3 C-1.33 2.34 -1.66 1.68 -2 1 C-1.34 0.67 -0.68 0.34 0 0 Z " fill="#320909" transform="translate(168,117)"/>
<path d="M0 0 C0.33 0 0.66 0 1 0 C1 10.56 1 21.12 1 32 C-0.65 31.01 -2.3 30.02 -4 29 C-4.3125 25.8125 -4.3125 25.8125 -4 23 C-3.34 23 -2.68 23 -2 23 C-1.34 15.41 -0.68 7.82 0 0 Z " fill="#4A201E" transform="translate(130,109)"/>
<path d="M0 0 C0.83595703 0.05220703 1.67191406 0.10441406 2.53320312 0.15820312 C4.58500789 0.28717371 6.63631306 0.42405021 8.6875 0.5625 C9.3475 2.5425 10.0075 4.5225 10.6875 6.5625 C7.7175 6.0675 7.7175 6.0675 4.6875 5.5625 C5.0175 4.9025 5.3475 4.2425 5.6875 3.5625 C4.57890625 3.58570312 3.4703125 3.60890625 2.328125 3.6328125 C0.86459008 3.65157577 -0.59895214 3.66977537 -2.0625 3.6875 C-2.79210937 3.70425781 -3.52171875 3.72101563 -4.2734375 3.73828125 C-8.1169624 3.77322239 -11.05856772 3.73749684 -14.3125 1.5625 C-14.3125 1.2325 -14.3125 0.9025 -14.3125 0.5625 C-9.49068019 -0.76325494 -4.92417933 -0.33812439 0 0 Z " fill="#3D191A" transform="translate(143.3125,80.4375)"/>
<path d="M0 0 C0 4 0 4 -1.1875 5.5625 C-3.34477729 7.27344406 -5.62471281 8.60958798 -8 10 C-9.34631825 10.98244845 -10.68441297 11.97676564 -12 13 C-12.66 12.67 -13.32 12.34 -14 12 C-14.33 12.66 -14.66 13.32 -15 14 C-14.5225699 9.70312913 -12.13244022 7.79195759 -9 5 C-2.64754098 0 -2.64754098 0 0 0 Z " fill="#4D1516" transform="translate(85,65)"/>
<path d="M0 0 C0 1.98 0 3.96 0 6 C-0.99 6 -1.98 6 -3 6 C-2.67 4.68 -2.34 3.36 -2 2 C-2.66 2 -3.32 2 -4 2 C-4 2.66 -4 3.32 -4 4 C-7.465 5.485 -7.465 5.485 -11 7 C-11.66 5.02 -12.32 3.04 -13 1 C-8.20862412 -0.6290678 -4.94367454 -1.20577428 0 0 Z " fill="#230707" transform="translate(112,41)"/>
<path d="M0 0 C0.66 0.66 1.32 1.32 2 2 C1.484375 2.556875 0.96875 3.11375 0.4375 3.6875 C-1.40752165 6.65557831 -0.74352834 7.69542961 0 11 C-0.97730219 13.70637529 -1.40512445 14.70256222 -4 16 C-4 16.99 -4 17.98 -4 19 C-4.66 19 -5.32 19 -6 19 C-5.90460937 18.24074219 -5.80921875 17.48148438 -5.7109375 16.69921875 C-5.60007813 15.70535156 -5.48921875 14.71148437 -5.375 13.6875 C-5.25898437 12.70136719 -5.14296875 11.71523437 -5.0234375 10.69921875 C-4.74523005 7.77342584 -4.74523005 7.77342584 -7 5 C-5.824375 4.87625 -5.824375 4.87625 -4.625 4.75 C-1.85250896 4.27193661 -1.85250896 4.27193661 -0.6875 1.9375 C-0.460625 1.298125 -0.23375 0.65875 0 0 Z " fill="#4A1618" transform="translate(64,85)"/>
<path d="M0 0 C0.33 0.66 0.66 1.32 1 2 C4.465 1.505 4.465 1.505 8 1 C7.62403791 3.78211944 7.32681541 5.5879284 5.5625 7.8125 C4 9 4 9 2 9 C1.62875 8.0409375 1.62875 8.0409375 1.25 7.0625 C0.20311706 4.80104993 0.20311706 4.80104993 -2.0625 4.4375 C-2.701875 4.293125 -3.34125 4.14875 -4 4 C-4.33 3.01 -4.66 2.02 -5 1 C-3.35 0.67 -1.7 0.34 0 0 Z " fill="#3B1113" transform="translate(166,78)"/>
<path d="M0 0 C0.66 0 1.32 0 2 0 C2 4.29 2 8.58 2 13 C-1.4375 11.8125 -1.4375 11.8125 -5 10 C-5.9375 7.3125 -5.9375 7.3125 -6 5 C-6.66 5 -7.32 5 -8 5 C-7.67 3.68 -7.34 2.36 -7 1 C-5 3.66666667 -3 6.33333333 -1 9 C-0.67 6.03 -0.34 3.06 0 0 Z " fill="#350201" transform="translate(126,116)"/>
<path d="M0 0 C0.66 0 1.32 0 2 0 C1.71561048 1.89693861 1.42216208 3.79252027 1.125 5.6875 C0.96257812 6.74324219 0.80015625 7.79898438 0.6328125 8.88671875 C0.04106931 11.79794914 -0.8031806 14.28955607 -2 17 C-2.99 16.67 -3.98 16.34 -5 16 C-4.125 9.25 -4.125 9.25 -3 7 C-3.66 6.67 -4.32 6.34 -5 6 C-4.360625 5.38125 -3.72125 4.7625 -3.0625 4.125 C-0.96116416 2.17402388 -0.96116416 2.17402388 0 0 Z " fill="#581518" transform="translate(85,91)"/>
<path d="M0 0 C3.6875 0.875 3.6875 0.875 7 2 C7 2.66 7 3.32 7 4 C5.35 4 3.7 4 2 4 C2.33 4.66 2.66 5.32 3 6 C3 6.99 3 7.98 3 9 C3.66 9 4.32 9 5 9 C5.33 10.65 5.66 12.3 6 14 C3.5625 13.25 3.5625 13.25 1 12 C0.25 10.125 0.25 10.125 0 8 C-0.185625 7.2575 -0.37125 6.515 -0.5625 5.75 C-0.706875 5.1725 -0.85125 4.595 -1 4 C-1.66 4 -2.32 4 -3 4 C-3 3.34 -3 2.68 -3 2 C-2.01 1.34 -1.02 0.68 0 0 Z " fill="#2A0A0C" transform="translate(57,67)"/>
<path d="M0 0 C0.66 0.33 1.32 0.66 2 1 C-8.30693069 11.30693069 -8.30693069 11.30693069 -12.5 14.125 C-13.2940625 14.66382813 -14.088125 15.20265625 -14.90625 15.7578125 C-17 17 -17 17 -19 17 C-18.505 15.515 -18.505 15.515 -18 14 C-17.34 14 -16.68 14 -16 14 C-16 13.34 -16 12.68 -16 12 C-15.05125 11.566875 -14.1025 11.13375 -13.125 10.6875 C-9.79958063 9.20697799 -9.79958063 9.20697799 -8 6 C-6.34467377 4.98133771 -4.67739862 3.98189187 -3 3 C-1.24850835 1.41754725 -1.24850835 1.41754725 0 0 Z " fill="#320505" transform="translate(164,159)"/>
<path d="M0 0 C2.8290723 2.8290723 3.37611108 3.38144425 4 7 C5.32 7 6.64 7 8 7 C7.02738378 10.27152729 6.34232413 11.74545129 3.5625 13.8125 C1 15 1 15 -2 15 C-1.67 14.01 -1.34 13.02 -1 12 C-0.01 12 0.98 12 2 12 C1.34 8.04 0.68 4.08 0 0 Z " fill="#411415" transform="translate(99,128)"/>
<path d="M0 0 C4.60592579 1.84237032 6.52927971 5.16606534 9.31640625 9.1015625 C10.14978516 10.04128906 10.14978516 10.04128906 11 11 C11.99 11 12.98 11 14 11 C14.625 12.8125 14.625 12.8125 15 15 C14.01 16.485 14.01 16.485 13 18 C11.6827656 16.23268551 10.37136412 14.46102239 9.0625 12.6875 C8.33160156 11.70136719 7.60070312 10.71523437 6.84765625 9.69921875 C5 7 5 7 4 4 C3.01 4 2.02 4 1 4 C0.67 2.68 0.34 1.36 0 0 Z " fill="#58151B" transform="translate(148,71)"/>
<path d="M0 0 C0.97066406 0.15339844 1.94132812 0.30679688 2.94140625 0.46484375 C7.26219894 1.08209985 11.58141318 1.33480395 15.9375 1.5625 C16.71673828 1.60568359 17.49597656 1.64886719 18.29882812 1.69335938 C20.19907117 1.79828077 22.09951669 1.8995245 24 2 C24.33 2.66 24.66 3.32 25 4 C22.33305052 4.05455124 19.66724502 4.09393392 17 4.125 C15.88431641 4.15013672 15.88431641 4.15013672 14.74609375 4.17578125 C9.49451557 4.22144715 5.0483054 3.45712451 0 2 C0 1.34 0 0.68 0 0 Z " fill="#400C0B" transform="translate(96,180)"/>
<path d="M0 0 C2.9296875 0.390625 2.9296875 0.390625 5.859375 0.78125 C8.30458395 1.06777357 8.30458395 1.06777357 12 1 C12 2.32 12 3.64 12 5 C11.01 5 10.02 5 9 5 C9 7.97 9 10.94 9 14 C8.67 14 8.34 14 8 14 C8 11.36 8 8.72 8 6 C7.34 6 6.68 6 6 6 C6 5.34 6 4.68 6 4 C3.03 3.505 3.03 3.505 0 3 C0 2.01 0 1.02 0 0 Z " fill="#5F252D" transform="translate(129,82)"/>
<path d="M0 0 C0.99 0 1.98 0 3 0 C3.66 3.3 4.32 6.6 5 10 C4.34 10 3.68 10 3 10 C2.34 8.02 1.68 6.04 1 4 C0.67 5.65 0.34 7.3 0 9 C-0.66 9 -1.32 9 -2 9 C-2.66 10.98 -3.32 12.96 -4 15 C-5.47118907 11.17490842 -4.45442741 8.71687005 -3 5 C-2 3 -2 3 0 0 Z " fill="#421113" transform="translate(87,82)"/>
<path d="M0 0 C0.66 0.66 1.32 1.32 2 2 C1.360625 2.268125 0.72125 2.53625 0.0625 2.8125 C-2.33131686 3.88667752 -2.33131686 3.88667752 -3 7 C-3.66 7 -4.32 7 -5 7 C-5.33 7.99 -5.66 8.98 -6 10 C-8.06640625 11.38671875 -8.06640625 11.38671875 -10.5625 12.6875 C-11.80193359 13.34298828 -11.80193359 13.34298828 -13.06640625 14.01171875 C-13.70449219 14.33785156 -14.34257812 14.66398438 -15 15 C-15.66 14.34 -16.32 13.68 -17 13 C-16.38125 12.71125 -15.7625 12.4225 -15.125 12.125 C-12.86674235 11.06279958 -12.86674235 11.06279958 -11 9 C-10.071875 8.401875 -9.14375 7.80375 -8.1875 7.1875 C-5.06560904 5.04502581 -2.59328338 2.74582947 0 0 Z " fill="#3D0B09" transform="translate(159,157)"/>
<path d="M0 0 C2.3125 0.1875 2.3125 0.1875 5 1 C7.20970874 3.89548041 8 5.33157745 8 9 C7.67 8.67 7.34 8.34 7 8 C6.34 9.98 5.68 11.96 5 14 C4.67 14 4.34 14 4 14 C3.67 12.35 3.34 10.7 3 9 C2.67 9 2.34 9 2 9 C1.87625 8.195625 1.7525 7.39125 1.625 6.5625 C1.315625 5.2940625 1.315625 5.2940625 1 4 C0.34 3.67 -0.32 3.34 -1 3 C-0.67 2.01 -0.34 1.02 0 0 Z " fill="#5D1B1B" transform="translate(99,91)"/>
<path d="M0 0 C0.99 0 1.98 0 3 0 C4.89345761 2.14989439 6.53675867 4.23827505 8.1875 6.5625 C8.65091797 7.17158203 9.11433594 7.78066406 9.59179688 8.40820312 C12.67919013 12.70509064 13.53955641 15.55538529 13 21 C10.2027092 18.93243723 9.97307727 17.85559629 9.3125 14.3125 C9.209375 13.219375 9.10625 12.12625 9 11 C8.34 11 7.68 11 7 11 C6.67 10.01 6.34 9.02 6 8 C5.34 7.34 4.68 6.68 4 6 C2.04783565 4.04783565 1.15173355 2.46800047 0 0 Z " fill="#330607" transform="translate(149,75)"/>
<path d="M0 0 C0.66 0.99 1.32 1.98 2 3 C2.99 3 3.98 3 5 3 C2.50506504 5.81631641 -0.26562818 7.40955981 -3.5625 9.1875 C-4.53316406 9.71730469 -5.50382813 10.24710938 -6.50390625 10.79296875 C-9 12 -9 12 -11 12 C-11 11.34 -11 10.68 -11 10 C-8.03 8.35 -5.06 6.7 -2 5 C-2.99 4.34 -3.98 3.68 -5 3 C-3.35 2.01 -1.7 1.02 0 0 Z " fill="#370A08" transform="translate(144,154)"/>
<path d="M0 0 C0.33 1.32 0.66 2.64 1 4 C-2.42498604 6.75669608 -4.22158206 8 -8.6875 8 C-12.37340905 6.88727274 -12.94767292 6.07539043 -15 3 C-14.00419922 3.17789063 -14.00419922 3.17789063 -12.98828125 3.359375 C-7.16431089 4.31084703 -7.16431089 4.31084703 -1.875 2.0625 C-0.946875 1.0415625 -0.946875 1.0415625 0 0 Z " fill="#4E2E2F" transform="translate(141,147)"/>
<path d="M0 0 C4.21548466 1.56129062 6.22687017 4.58691713 9 8 C9.99 8.66 10.98 9.32 12 10 C12 10.66 12 11.32 12 12 C12.928125 12.433125 12.928125 12.433125 13.875 12.875 C16 14 16 14 18 16 C14.40142046 16 12.90548882 15.04169485 10 13 C10 12.34 10 11.68 10 11 C9.01 10.67 8.02 10.34 7 10 C5.17578125 7.96875 5.17578125 7.96875 3.3125 5.5 C2.68988281 4.6853125 2.06726563 3.870625 1.42578125 3.03125 C0 1 0 1 0 0 Z " fill="#320807" transform="translate(67,141)"/>
<path d="M0 0 C2.58926331 2.58926331 2.37398043 4.02705279 2.625 7.625 C2.69976562 8.62789062 2.77453125 9.63078125 2.8515625 10.6640625 C2.92503906 11.82035156 2.92503906 11.82035156 3 13 C1.68 13.33 0.36 13.66 -1 14 C-2.12029814 8.51053913 -1.79217969 5.16569441 0 0 Z " fill="#4D1513" transform="translate(165,99)"/>
<path d="M0 0 C0.66 0.66 1.32 1.32 2 2 C1.875 4 1.875 4 1 6 C-1.46936588 7.6178604 -4.06895792 8.62180102 -7 9 C-7.99 8.34 -8.98 7.68 -10 7 C-10 6.34 -10 5.68 -10 5 C-8.8553125 5.0928125 -8.8553125 5.0928125 -7.6875 5.1875 C-4.52219632 4.96666486 -4.01513783 4.30301466 -2 2 C-1.34 2 -0.68 2 0 2 C0 1.34 0 0.68 0 0 Z " fill="#3F1B1D" transform="translate(169,67)"/>
<path d="M0 0 C0.66 0.33 1.32 0.66 2 1 C0.71107323 3.87529818 -0.49296383 6.05008298 -3 8 C-7.41538462 9.29230769 -7.41538462 9.29230769 -10 8 C-10 7.34 -10 6.68 -10 6 C-9.36191406 5.81824219 -8.72382812 5.63648438 -8.06640625 5.44921875 C-7.24011719 5.19785156 -6.41382812 4.94648438 -5.5625 4.6875 C-4.32693359 4.32205078 -4.32693359 4.32205078 -3.06640625 3.94921875 C-2.38449219 3.63597656 -1.70257813 3.32273438 -1 3 C-0.67 2.01 -0.34 1.02 0 0 Z " fill="#5B4446" transform="translate(106,137)"/>
<path d="M0 0 C0.66 0 1.32 0 2 0 C-0.21110543 7.19785383 -2.37337182 12.76141514 -8 18 C-8.66 17.67 -9.32 17.34 -10 17 C-9.505 16.5875 -9.01 16.175 -8.5 15.75 C-6.56613908 13.87797662 -6.56613908 13.87797662 -7 10 C-6.01 9.67 -5.02 9.34 -4 9 C-1.96039529 6.0974856 -0.64658926 3.49158202 0 0 Z " fill="#53191C" transform="translate(163,130)"/>
<path d="M0 0 C-0.33 0.99 -0.66 1.98 -1 3 C-3.68800187 4.17894819 -6.2130674 5.13359608 -9 6 C-9.71542969 6.23203125 -10.43085938 6.4640625 -11.16796875 6.703125 C-16.43126442 8.24360178 -16.43126442 8.24360178 -19.234375 7.04296875 C-19.81703125 6.69878906 -20.3996875 6.35460937 -21 6 C-19.96359375 5.73445312 -18.9271875 5.46890625 -17.859375 5.1953125 C-16.48952244 4.83877553 -15.11973412 4.4819917 -13.75 4.125 C-12.72712891 3.86396484 -12.72712891 3.86396484 -11.68359375 3.59765625 C-7.89215102 2.60378291 -3.82146137 0 0 0 Z " fill="#310506" transform="translate(144,175)"/>
<path d="M0 0 C0.99 0.33 1.98 0.66 3 1 C3 1.99 3 2.98 3 4 C3.99 4 4.98 4 6 4 C6.33 5.65 6.66 7.3 7 9 C3.89448334 9 2.64738916 8.4606285 0 7 C0 4.69 0 2.38 0 0 Z " fill="#611518" transform="translate(126,141)"/>
<path d="M0 0 C0.66 0.33 1.32 0.66 2 1 C2.44921875 3.21484375 2.44921875 3.21484375 2.6875 5.9375 C2.77386719 6.83339844 2.86023438 7.72929688 2.94921875 8.65234375 C3 11 3 11 2 13 C-1 11 -1 11 -1.8125 8.1875 C-2.01127246 4.80836813 -1.49701511 2.99403023 0 0 Z " fill="#480D10" transform="translate(163,85)"/>
<path d="M0 0 C3.71888239 0.50712033 6.73454239 1.11608215 10 3 C9.67 3.99 9.34 4.98 9 6 C7.02 6 5.04 6 3 6 C3 5.01 3 4.02 3 3 C2.34 2.67 1.68 2.34 1 2 C1 2.66 1 3.32 1 4 C0.01 3.67 -0.98 3.34 -2 3 C-1.34 2.01 -0.68 1.02 0 0 Z " fill="#270E0B" transform="translate(135,45)"/>
<path d="M0 0 C0.66 0.33 1.32 0.66 2 1 C2.40729228 3.32156597 2.74438677 5.6568787 3 8 C3.99 8.33 4.98 8.66 6 9 C5.67 10.32 5.34 11.64 5 13 C4.01 12.67 3.02 12.34 2 12 C0.875 9.125 0.875 9.125 0 6 C-0.33 5.01 -0.66 4.02 -1 3 C-0.67 2.01 -0.34 1.02 0 0 Z " fill="#4B1816" transform="translate(58,121)"/>
<path d="M0 0 C0.66 0 1.32 0 2 0 C2 0.66 2 1.32 2 2 C4.65228812 3.07525194 7.28368454 4.09456151 10 5 C10.33 5.66 10.66 6.32 11 7 C13.01669827 8.13350534 13.01669827 8.13350534 15 9 C14.34 9.66 13.68 10.32 13 11 C11 11 11 11 9.63671875 9.69140625 C9.09660156 9.13324219 8.55648437 8.57507813 8 8 C5.90776279 6.42782175 3.78030072 4.91469943 1.64453125 3.40234375 C1.10183594 2.93957031 0.55914062 2.47679687 0 2 C0 1.34 0 0.68 0 0 Z " fill="#52171B" transform="translate(75,152)"/>
<path d="M0 0 C0.66 0.99 1.32 1.98 2 3 C1.34 3 0.68 3 0 3 C1.22809091 4.64555699 1.22809091 4.64555699 3 6 C5.16299211 5.77242269 5.16299211 5.77242269 7 5 C6.67 5.99 6.34 6.98 6 8 C3.6875 8.6875 3.6875 8.6875 1 9 C-0.875 7.875 -0.875 7.875 -2 6 C-1.57894737 1.57894737 -1.57894737 1.57894737 0 0 Z " fill="#2F0F0E" transform="translate(159,69)"/>
<path d="M0 0 C0.99 0 1.98 0 3 0 C2.34 1.32 1.68 2.64 1 4 C2.32 3.67 3.64 3.34 5 3 C5.33 3.99 5.66 4.98 6 6 C5.01 6.99 4.02 7.98 3 9 C2.01 8.67 1.02 8.34 0 8 C0.33 7.34 0.66 6.68 1 6 C0.34 6 -0.32 6 -1 6 C-1.042721 4.33388095 -1.04063832 2.66617115 -1 1 C-0.67 0.67 -0.34 0.34 0 0 Z " fill="#210A0C" transform="translate(68,56)"/>
<path d="M0 0 C0.66 0 1.32 0 2 0 C2.33 1.32 2.66 2.64 3 4 C2.34 4 1.68 4 1 4 C0.67 6.97 0.34 9.94 0 13 C-0.99 13.33 -1.98 13.66 -3 14 C-3.40652968 8.57960425 -2.03993514 4.92984325 0 0 Z " fill="#35110E" transform="translate(76,109)"/>
<path d="M0 0 C1.670625 0.061875 1.670625 0.061875 3.375 0.125 C3.045 1.775 2.715 3.425 2.375 5.125 C1.385 5.455 0.395 5.785 -0.625 6.125 C-3.3125 4.1875 -3.3125 4.1875 -5.625 2.125 C-3.625 0.125 -3.625 0.125 0 0 Z " fill="#340706" transform="translate(145.625,61.875)"/>
<path d="M0 0 C0.33 0.66 0.66 1.32 1 2 C1.66 2 2.32 2 3 2 C2.625 4.4375 2.625 4.4375 2 7 C1.01 7.495 1.01 7.495 0 8 C-0.65555119 10.52733235 -0.65555119 10.52733235 -1 13 C-1.66 12.67 -2.32 12.34 -3 12 C-3 10.35 -3 8.7 -3 7 C-2.34 7 -1.68 7 -1 7 C-1 6.01 -1 5.02 -1 4 C-1.66 3.67 -2.32 3.34 -3 3 C-2.01 2.01 -1.02 1.02 0 0 Z " fill="#381314" transform="translate(129,41)"/>
<path d="M0 0 C0.33 0.99 0.66 1.98 1 3 C-0.65 2.67 -2.3 2.34 -4 2 C-3.67 2.66 -3.34 3.32 -3 4 C-6.01031744 4.93423645 -6.86650268 5.04449911 -10 4 C-7.53453745 -1.4592385 -5.69047474 -1.11335375 0 0 Z " fill="#24080A" transform="translate(96,44)"/>
<path d="M0 0 C2.125 0.375 2.125 0.375 4 1 C4 2.98 4 4.96 4 7 C4.66 7.33 5.32 7.66 6 8 C4.02 8 2.04 8 0 8 C0 6.68 0 5.36 0 4 C-0.66 3.34 -1.32 2.68 -2 2 C-1.34 1.34 -0.68 0.68 0 0 Z " fill="#411516" transform="translate(46,98)"/>
<path d="M0 0 C0.9765625 6.0546875 0.9765625 6.0546875 1 8 C0.34 8.66 -0.32 9.32 -1 10 C-1.0825 9.401875 -1.165 8.80375 -1.25 8.1875 C-2.20548903 5.400657 -3.6450848 4.67123014 -6 3 C-6 2.34 -6 1.68 -6 1 C-1.125 0 -1.125 0 0 0 Z " fill="#361212" transform="translate(49,116)"/>
<path d="M0 0 C0.598125 0.495 1.19625 0.99 1.8125 1.5 C3.97029994 3.28276418 3.97029994 3.28276418 7 3 C7 3.66 7 4.32 7 5 C2.56923077 7.09230769 2.56923077 7.09230769 -0.3125 6.625 C-0.869375 6.41875 -1.42625 6.2125 -2 6 C-1.34 4.02 -0.68 2.04 0 0 Z " fill="#2C0402" transform="translate(111,51)"/>
<path d="M0 0 C2.31 0 4.62 0 7 0 C6.88637738 1.4800841 6.75877092 2.95910074 6.625 4.4375 C6.55539063 5.26121094 6.48578125 6.08492188 6.4140625 6.93359375 C6.27742187 7.61550781 6.14078125 8.29742187 6 9 C5.01 9.495 5.01 9.495 4 10 C3.06576355 6.98968256 2.95550089 6.13349732 4 3 C2.68 2.67 1.36 2.34 0 2 C0 1.34 0 0.68 0 0 Z " fill="#320E0D" transform="translate(176,117)"/>
<path d="M0 0 C0 2.64 0 5.28 0 8 C-0.33 7.34 -0.66 6.68 -1 6 C-2.9254644 4.8509288 -2.9254644 4.8509288 -5 5 C-5.33 3.35 -5.66 1.7 -6 0 C-3.50907189 -1.24546405 -2.58919267 -0.7767578 0 0 Z " fill="#26090C" transform="translate(176,99)"/>
<path d="M0 0 C1.32 0.66 2.64 1.32 4 2 C3.4225 2.2475 2.845 2.495 2.25 2.75 C-0.3002997 4.16683317 -2.01785701 5.87627537 -4 8 C-4 4 -4 4 -2 1.75 C-1.01 0.88375 -1.01 0.88375 0 0 Z " fill="#5C4448" transform="translate(78,126)"/>
<path d="M0 0 C5.66153846 1.47692308 5.66153846 1.47692308 7.375 4.125 C7.58125 4.74375 7.7875 5.3625 8 6 C6.68 6 5.36 6 4 6 C4 5.34 4 4.68 4 4 C2.35 3.67 0.7 3.34 -1 3 C-0.67 2.01 -0.34 1.02 0 0 Z " fill="#1D090A" transform="translate(149,52)"/>
<path d="M0 0 C0.33 0.66 0.66 1.32 1 2 C1.66 2 2.32 2 3 2 C3.625 3.8125 3.625 3.8125 4 6 C3.01 7.485 3.01 7.485 2 9 C1.34 9 0.68 9 0 9 C-0.66 6.69 -1.32 4.38 -2 2 C-1.34 1.34 -0.68 0.68 0 0 Z " fill="#381114" transform="translate(122,40)"/>
<path d="M0 0 C-0.639375 0.2475 -1.27875 0.495 -1.9375 0.75 C-4.18741541 1.81562433 -4.18741541 1.81562433 -4.75 4.125 C-4.8325 4.74375 -4.915 5.3625 -5 6 C-5.99 6 -6.98 6 -8 6 C-7.67 4.02 -7.34 2.04 -7 0 C-3.86650268 -1.04449911 -3.01031744 -0.93423645 0 0 Z " fill="#5C1E1E" transform="translate(104,127)"/>
<path d="M0 0 C2 2 2 2 2.1953125 4.6015625 C2.17210937 5.59929687 2.14890625 6.59703125 2.125 7.625 C2.10695312 8.62789062 2.08890625 9.63078125 2.0703125 10.6640625 C2.03550781 11.82035156 2.03550781 11.82035156 2 13 C1.01 12.67 0.02 12.34 -1 12 C-1.02687279 10.18757948 -1.04633715 8.37504767 -1.0625 6.5625 C-1.07410156 5.55316406 -1.08570313 4.54382813 -1.09765625 3.50390625 C-1 1 -1 1 0 0 Z " fill="#2D0B0A" transform="translate(168,100)"/>
<path d="M0 0 C0.66 0.33 1.32 0.66 2 1 C2 1.66 2 2.32 2 3 C1.34 3 0.68 3 0 3 C0.020625 4.11375 0.04125 5.2275 0.0625 6.375 C0 10 0 10 -1 12 C-1.99 12 -2.98 12 -4 12 C-4 10.68 -4 9.36 -4 8 C-3.34 8 -2.68 8 -2 8 C-1.7834375 6.576875 -1.7834375 6.576875 -1.5625 5.125 C-1 2 -1 2 0 0 Z " fill="#361E1C" transform="translate(85,101)"/>
<path d="M0 0 C1.98738098 0.01761863 3.97253109 0.16698176 5.953125 0.33203125 C5.623125 0.99203125 5.293125 1.65203125 4.953125 2.33203125 C3.303125 2.33203125 1.653125 2.33203125 -0.046875 2.33203125 C-0.046875 2.99203125 -0.046875 3.65203125 -0.046875 4.33203125 C-2.026875 4.66203125 -4.006875 4.99203125 -6.046875 5.33203125 C-3.15469741 0.51173527 -3.15469741 0.51173527 0 0 Z " fill="#531318" transform="translate(91.046875,59.66796875)"/>
<path d="M0 0 C10.55808656 0.96355353 10.55808656 0.96355353 15 2 C15 2.33 15 2.66 15 3 C9.05542387 4.09644404 5.32006564 4.41029848 0 1 C0 0.67 0 0.34 0 0 Z " fill="#400D07" transform="translate(92,55)"/>
<path d="M0 0 C-0.33 0.66 -0.66 1.32 -1 2 C-1.99 2.33 -2.98 2.66 -4 3 C-3.01 3.66 -2.02 4.32 -1 5 C-3.31 5 -5.62 5 -8 5 C-7.625 3.0625 -7.625 3.0625 -7 1 C-4.53721199 -0.231394 -2.7204945 -0.07159196 0 0 Z " fill="#501312" transform="translate(128,178)"/>
<path d="M0 0 C2.52349243 3.12432397 4.27256146 6.38060496 6 10 C4.68 9.67 3.36 9.34 2 9 C1.67 7.35 1.34 5.7 1 4 C0.34 4 -0.32 4 -1 4 C-0.67 2.68 -0.34 1.36 0 0 Z " fill="#380A0A" transform="translate(119,117)"/>
<path d="M0 0 C0.66 0.33 1.32 0.66 2 1 C2.33 1.99 2.66 2.98 3 4 C1.68 4.99 0.36 5.98 -1 7 C-1.33 6.34 -1.66 5.68 -2 5 C-2.66 4.01 -3.32 3.02 -4 2 C-2.125 0.9375 -2.125 0.9375 0 0 Z " fill="#291111" transform="translate(133,96)"/>
<path d="M0 0 C1.32 0 2.64 0 4 0 C3.62403791 2.78211944 3.32681541 4.5879284 1.5625 6.8125 C0 8 0 8 -2 8 C-1.34 5.36 -0.68 2.72 0 0 Z " fill="#48191D" transform="translate(170,79)"/>
<path d="M0 0 C2.31 0.33 4.62 0.66 7 1 C6.67 2.65 6.34 4.3 6 6 C3.00306862 5.00102287 1.97290587 4.34869747 0 2 C0 1.34 0 0.68 0 0 Z " fill="#370C10" transform="translate(104,48)"/>
<path d="M0 0 C4.11911358 0.95056467 8.21127435 2.10563718 12 4 C11.34 4.66 10.68 5.32 10 6 C5.05 4.02 5.05 4.02 0 2 C0 1.34 0 0.68 0 0 Z " fill="#330909" transform="translate(87,162)"/>
<path d="M0 0 C0.99 0 1.98 0 3 0 C3 0.66 3 1.32 3 2 C3.99 2.33 4.98 2.66 6 3 C6 3.66 6 4.32 6 5 C5.01 5.33 4.02 5.66 3 6 C1.68 4.68 0.36 3.36 -1 2 C-0.67 1.34 -0.34 0.68 0 0 Z " fill="#241114" transform="translate(84,111)"/>
<path d="M0 0 C0.99 0 1.98 0 3 0 C3.66 3.3 4.32 6.6 5 10 C4.34 10 3.68 10 3 10 C1.87119943 6.68885166 0.78697325 3.41021743 0 0 Z " fill="#330B0B" transform="translate(87,82)"/>
<path d="M0 0 C0.33 0.66 0.66 1.32 1 2 C1.99 1.67 2.98 1.34 4 1 C4.99 1.66 5.98 2.32 7 3 C6.34 3 5.68 3 5 3 C4.67 4.32 4.34 5.64 4 7 C3.34 7 2.68 7 2 7 C1.01 5.02 0.02 3.04 -1 1 C-0.67 0.67 -0.34 0.34 0 0 Z " fill="#481D1E" transform="translate(58,69)"/>
<path d="M0 0 C1.98 0.99 3.96 1.98 6 3 C5.42655063 5.86724686 5.1385485 6.8614515 3 9 C2.566875 7.576875 2.566875 7.576875 2.125 6.125 C1.23174891 2.94788422 1.23174891 2.94788422 -1 1 C-0.67 0.67 -0.34 0.34 0 0 Z " fill="#3C1217" transform="translate(92,45)"/>
<path d="M0 0 C0.721875 0.309375 1.44375 0.61875 2.1875 0.9375 C4.80307309 1.92560539 7.25118982 2.5287754 10 3 C9.67 3.99 9.34 4.98 9 6 C5.9168649 4.80100302 2.93720508 3.52299523 0 2 C0 1.34 0 0.68 0 0 Z " fill="#360F0A" transform="translate(85,157)"/>
<path d="M0 0 C3.11198065 1.49836105 6.0534615 3.19933758 9 5 C8.67 5.66 8.34 6.32 8 7 C4.61516396 5.87172132 2.64846603 4.36214538 0 2 C0 1.34 0 0.68 0 0 Z " fill="#350A0B" transform="translate(77,156)"/>
<path d="M0 0 C3 1.75 3 1.75 6 4 C6 5.32 6 6.64 6 8 C4.125 7.375 4.125 7.375 2 6 C0.75 2.875 0.75 2.875 0 0 Z " fill="#3F0B0B" transform="translate(121,129)"/>
<path d="M0 0 C0.33 0 0.66 0 1 0 C1.54466387 4.084979 2 7.8725485 2 12 C1.34 12 0.68 12 0 12 C-0.92844389 7.66726186 -0.92844389 4.33273814 0 0 Z " fill="#2A1919" transform="translate(72,125)"/>
<path d="M0 0 C0.66 0 1.32 0 2 0 C2.33 3.3 2.66 6.6 3 10 C2.34 10 1.68 10 1 10 C0 3.375 0 3.375 0 0 Z " fill="#3D0C0C" transform="translate(90,109)"/>
<path d="M0 0 C2.64 0.33 5.28 0.66 8 1 C8 1.66 8 2.32 8 3 C7.01 3.33 6.02 3.66 5 4 C4.34 4.66 3.68 5.32 3 6 C2.67 5.01 2.34 4.02 2 3 C1.34 3 0.68 3 0 3 C0 2.01 0 1.02 0 0 Z " fill="#240A0C" transform="translate(120,100)"/>
<path d="M0 0 C0.66 0 1.32 0 2 0 C1.34 3.63 0.68 7.26 0 11 C-0.66 11 -1.32 11 -2 11 C-1.85957123 9.35369672 -1.71250671 7.70795821 -1.5625 6.0625 C-1.48128906 5.14597656 -1.40007813 4.22945313 -1.31640625 3.28515625 C-1 1 -1 1 0 0 Z " fill="#300A0C" transform="translate(58,93)"/>
<path d="M0 0 C0 0.99 0 1.98 0 3 C-2.31 3.33 -4.62 3.66 -7 4 C-6.625 2.0625 -6.625 2.0625 -6 0 C-3.50907189 -1.24546405 -2.58919267 -0.7767578 0 0 Z " fill="#300A0B" transform="translate(69,72)"/>
<path d="M0 0 C0.99 0.33 1.98 0.66 3 1 C3 1.66 3 2.32 3 3 C-4.42857143 3.28571429 -4.42857143 3.28571429 -8 1 C-5.2540274 -0.3729863 -3.0410953 -0.12412634 0 0 Z " fill="#430406" transform="translate(123,59)"/>
<path d="M0 0 C0.33 0.99 0.66 1.98 1 3 C-0.21484375 4.82421875 -0.21484375 4.82421875 -1.9375 6.6875 C-2.50339844 7.31011719 -3.06929687 7.93273437 -3.65234375 8.57421875 C-4.09707031 9.04472656 -4.54179687 9.51523438 -5 10 C-5.66 9.67 -6.32 9.34 -7 9 C-6.360625 8.236875 -5.72125 7.47375 -5.0625 6.6875 C-2.85767219 4.11753287 -2.85767219 4.11753287 -2 1 C-1.34 0.67 -0.68 0.34 0 0 Z " fill="#330904" transform="translate(167,147)"/>
<path d="M0 0 C2.66363467 1.33181733 4.75598043 3.05124617 7 5 C7 5.66 7 6.32 7 7 C6.01 7.33 5.02 7.66 4 8 C4 7.34 4 6.68 4 6 C2.68 5.34 1.36 4.68 0 4 C0 2.68 0 1.36 0 0 Z " fill="#432020" transform="translate(101,122)"/>
<path d="M0 0 C5 6.59090909 5 6.59090909 5 10 C4.34 10 3.68 10 3 10 C1.68 7.03 0.36 4.06 -1 1 C-0.67 0.67 -0.34 0.34 0 0 Z " fill="#380B07" transform="translate(115,117)"/>
<path d="M0 0 C1.65 0 3.3 0 5 0 C5 0.66 5 1.32 5 2 C3.68 2.33 2.36 2.66 1 3 C1 3.66 1 4.32 1 5 C0.01 5.33 -0.98 5.66 -2 6 C-1.49396008 3.83125748 -1.00016187 2.00032373 0 0 Z " fill="#4D201B" transform="translate(176,103)"/>
<path d="M0 0 C0.66 1.32 1.32 2.64 2 4 C-1.05263664 4.98120464 -2.94736336 4.98120464 -6 4 C-5.34 3.34 -4.68 2.68 -4 2 C-3.67 2.33 -3.34 2.66 -3 3 C-2.01 2.01 -1.02 1.02 0 0 Z " fill="#2B0807" transform="translate(141,51)"/>
<path d="M0 0 C0.99 0 1.98 0 3 0 C3.33 0.99 3.66 1.98 4 3 C3.360625 3.12375 2.72125 3.2475 2.0625 3.375 C1.381875 3.58125 0.70125 3.7875 0 4 C-0.33 4.66 -0.66 5.32 -1 6 C-1.66 5.01 -2.32 4.02 -3 3 C-2.34 3 -1.68 3 -1 3 C-0.67 2.01 -0.34 1.02 0 0 Z " fill="#270B09" transform="translate(79,49)"/>
<path d="M0 0 C-4.75 3 -4.75 3 -7 3 C-7.33 3.66 -7.66 4.32 -8 5 C-8.66 4.01 -9.32 3.02 -10 2 C-8.71211992 1.46987262 -7.41953322 0.9511671 -6.125 0.4375 C-5.40570313 0.14746094 -4.68640625 -0.14257812 -3.9453125 -0.44140625 C-2 -1 -2 -1 0 0 Z " fill="#521818" transform="translate(140,161)"/>
<path d="M0 0 C2.8125 0.125 2.8125 0.125 6 1 C7.875 4.0625 7.875 4.0625 9 7 C8.01 7 7.02 7 6 7 C6 6.01 6 5.02 6 4 C5.195625 3.71125 4.39125 3.4225 3.5625 3.125 C1 2 1 2 0 0 Z " fill="#2A1316" transform="translate(102,123)"/>
<path d="M0 0 C0.33 0.66 0.66 1.32 1 2 C3.01669827 3.13350534 3.01669827 3.13350534 5 4 C4.67 4.99 4.34 5.98 4 7 C3.34 7 2.68 7 2 7 C2 6.34 2 5.68 2 5 C1.01 4.67 0.02 4.34 -1 4 C-0.67 2.68 -0.34 1.36 0 0 Z " fill="#4A100B" transform="translate(96,120)"/>
<path d="M0 0 C0.33 1.32 0.66 2.64 1 4 C-1.76264289 4.59732819 -4.16032769 5 -7 5 C-7 4.34 -7 3.68 -7 3 C-4.69 2.01 -2.38 1.02 0 0 Z " fill="#1C0A0C" transform="translate(53,104)"/>
<path d="M0 0 C1.32 0.99 2.64 1.98 4 3 C3.34 3 2.68 3 2 3 C2.66 5.31 3.32 7.62 4 10 C3.01 10.33 2.02 10.66 1 11 C0.67 7.37 0.34 3.74 0 0 Z " fill="#480B08" transform="translate(88,95)"/>
<path d="M0 0 C2.97 0.495 2.97 0.495 6 1 C3.82575883 3.50037734 2.26954202 4.43628586 -1 5 C-0.67 3.35 -0.34 1.7 0 0 Z " fill="#541312" transform="translate(160,157)"/>
<path d="M0 0 C5.875 4.625 5.875 4.625 7 8 C6.01 7.67 5.02 7.34 4 7 C4 6.34 4 5.68 4 5 C2.68 4.34 1.36 3.68 0 3 C0 2.01 0 1.02 0 0 Z " fill="#5A171E" transform="translate(68,144)"/>
<path d="M0 0 C0.33 0 0.66 0 1 0 C1 2.97 1 5.94 1 9 C0.34 9 -0.32 9 -1 9 C-1.625 5.625 -1.625 5.625 -2 2 C-1.34 1.34 -0.68 0.68 0 0 Z " fill="#370405" transform="translate(127,106)"/>
<path d="M0 0 C1.2077558 3.62326739 0.54311128 4.64146369 -1 8 C-1.99 7.67 -2.98 7.34 -4 7 C-3.43628586 3.73045798 -2.50037734 2.17424117 0 0 Z " fill="#622428" transform="translate(84,100)"/>
<path d="M0 0 C0.99 0.33 1.98 0.66 3 1 C1.125 5.75 1.125 5.75 0 8 C-0.99 7.34 -1.98 6.68 -3 6 C-2.505 5.195625 -2.01 4.39125 -1.5 3.5625 C0.08419653 1.35103815 0.08419653 1.35103815 0 0 Z " fill="#350A0A" transform="translate(65,85)"/>
<path d="M0 0 C0 0.66 0 1.32 0 2 C-1.32 2 -2.64 2 -4 2 C-4.33 2.66 -4.66 3.32 -5 4 C-6.65 4 -8.3 4 -10 4 C-10 3.34 -10 2.68 -10 2 C-3.375 0 -3.375 0 0 0 Z " fill="#170607" transform="translate(109,40)"/>
<path d="M0 0 C2.875 -0.125 2.875 -0.125 6 0 C6.66 0.66 7.32 1.32 8 2 C5.29120665 3.35439668 2.99066732 3.06501451 0 3 C0 2.01 0 1.02 0 0 Z " fill="#310908" transform="translate(103,163)"/>
<path d="M0 0 C0.99 0.33 1.98 0.66 3 1 C3.33 2.65 3.66 4.3 4 6 C3.34 6 2.68 6 2 6 C1.67 6.99 1.34 7.98 1 9 C0.67 6.03 0.34 3.06 0 0 Z " fill="#5D1817" transform="translate(45,121)"/>
<path d="M0 0 C0.99 0.33 1.98 0.66 3 1 C3.33 2.98 3.66 4.96 4 7 C2.35 5.35 0.7 3.7 -1 2 C-0.67 1.34 -0.34 0.68 0 0 Z " fill="#270807" transform="translate(88,116)"/>
<path d="M0 0 C0.99 0.66 1.98 1.32 3 2 C2.34 2 1.68 2 1 2 C1 3.65 1 5.3 1 7 C0.01 6.67 -0.98 6.34 -2 6 C-2 4.35 -2 2.7 -2 1 C-1.34 0.67 -0.68 0.34 0 0 Z " fill="#481013" transform="translate(165,116)"/>
<path d="M0 0 C0.66 0 1.32 0 2 0 C1.01 3.3 0.02 6.6 -1 10 C-1.66 9.01 -2.32 8.02 -3 7 C-1.625 3.3125 -1.625 3.3125 0 0 Z " fill="#3A0B0B" transform="translate(80,98)"/>
<path d="M0 0 C2.25 0.25 2.25 0.25 4 1 C1.03 3.475 1.03 3.475 -2 6 C-2.66 5.34 -3.32 4.68 -4 4 C-2.25 1.9375 -2.25 1.9375 0 0 Z " fill="#460A09" transform="translate(71,72)"/>
<path d="M0 0 C0.66 0.66 1.32 1.32 2 2 C1.625 4.125 1.625 4.125 1 6 C-0.32 5.34 -1.64 4.68 -3 4 C-2.67 3.34 -2.34 2.68 -2 2 C-1.34 2 -0.68 2 0 2 C0 1.34 0 0.68 0 0 Z " fill="#34121D" transform="translate(169,67)"/>
<path d="M0 0 C-0.66 0.66 -1.32 1.32 -2 2 C-3.9453125 1.7578125 -3.9453125 1.7578125 -6.125 1.125 C-6.84945312 0.92132813 -7.57390625 0.71765625 -8.3203125 0.5078125 C-8.87460938 0.34023438 -9.42890625 0.17265625 -10 0 C-6.22996568 -2.61002376 -4.07631429 -1.66758312 0 0 Z " fill="#390403" transform="translate(114,60)"/>
<path d="M0 0 C0.99 0 1.98 0 3 0 C3.33 1.65 3.66 3.3 4 5 C2.68 5 1.36 5 0 5 C-0.5625 3.0625 -0.5625 3.0625 -1 1 C-0.67 0.67 -0.34 0.34 0 0 Z " fill="#29100E" transform="translate(119,50)"/>
<path d="M0 0 C2.475 0.495 2.475 0.495 5 1 C5 1.66 5 2.32 5 3 C3.02 3.99 3.02 3.99 1 5 C0.67 3.35 0.34 1.7 0 0 Z " fill="#310C0E" transform="translate(100,43)"/>
<path d="M0 0 C0.99 0.33 1.98 0.66 3 1 C3 1.99 3 2.98 3 4 C1.68 4 0.36 4 -1 4 C-0.67 2.68 -0.34 1.36 0 0 Z " fill="#1D1111" transform="translate(57,85)"/>
<path d="" fill="#000000" transform="translate(0,0)"/>
<path d="M0 0 C2 1 2 1 2 1 Z " fill="#272712" transform="translate(124,138)"/>
<path d="M0 0 C2 1 2 1 2 1 Z " fill="#442222" transform="translate(170,97)"/>
<path d="" fill="#151515" transform="translate(0,0)"/>
<path d="M0 0 C2 1 2 1 2 1 Z " fill="#200000" transform="translate(74,60)"/>
<path d="" fill="#0E000E" transform="translate(0,0)"/>
<path d="M0 0 C2 1 2 1 2 1 Z " fill="#000000" transform="translate(65,56)"/>
<path d="" fill="#400000" transform="translate(0,0)"/>
<path d="" fill="#000000" transform="translate(0,0)"/>
<path d="" fill="#000000" transform="translate(0,0)"/>
<path d="" fill="#1C0000" transform="translate(0,0)"/>
<path d="" fill="#330000" transform="translate(0,0)"/>
<path d="" fill="#180C0C" transform="translate(0,0)"/>
<path d="" fill="#1A0000" transform="translate(0,0)"/>
<path d="" fill="#2A2A00" transform="translate(0,0)"/>
<path d="" fill="#000000" transform="translate(0,0)"/>
<path d="" fill="#000000" transform="translate(0,0)"/>
<path d="" fill="#000000" transform="translate(0,0)"/>
<path d="" fill="#0A0A00" transform="translate(0,0)"/>
<path d="" fill="#000000" transform="translate(0,0)"/>
<path d="" fill="#141400" transform="translate(0,0)"/>
<path d="" fill="#402020" transform="translate(0,0)"/>
<path d="" fill="#000000" transform="translate(0,0)"/>
<path d="" fill="#333333" transform="translate(0,0)"/>
<path d="" fill="#2A0000" transform="translate(0,0)"/>
<path d="" fill="#330000" transform="translate(0,0)"/>
<path d="" fill="#400000" transform="translate(0,0)"/>
<path d="" fill="#400000" transform="translate(0,0)"/>
<path d="" fill="#493737" transform="translate(0,0)"/>
<path d="" fill="#000000" transform="translate(0,0)"/>
<path d="" fill="#000000" transform="translate(0,0)"/>
<path d="" fill="#000000" transform="translate(0,0)"/>
<path d="" fill="#000000" transform="translate(0,0)"/>
<path d="" fill="#000000" transform="translate(0,0)"/>
<path d="" fill="#000000" transform="translate(0,0)"/>
<path d="" fill="#2E1717" transform="translate(0,0)"/>
<path d="" fill="#240000" transform="translate(0,0)"/>
<path d="" fill="#000000" transform="translate(0,0)"/>
<path d="" fill="#1C1C1C" transform="translate(0,0)"/>
<path d="" fill="#000000" transform="translate(0,0)"/>
<path d="" fill="#000000" transform="translate(0,0)"/>
<path d="" fill="#333333" transform="translate(0,0)"/>
<path d="" fill="#331A1A" transform="translate(0,0)"/>
<path d="" fill="#000000" transform="translate(0,0)"/>
<path d="" fill="#2A1515" transform="translate(0,0)"/>
<path d="" fill="#2C1A12" transform="translate(0,0)"/>
<path d="" fill="#2A0B0B" transform="translate(0,0)"/>
<path d="" fill="#000000" transform="translate(0,0)"/>
<path d="" fill="#000000" transform="translate(0,0)"/>
<path d="" fill="#333333" transform="translate(0,0)"/>
<path d="" fill="#000000" transform="translate(0,0)"/>
<path d="" fill="#800000" transform="translate(0,0)"/>
<path d="" fill="#000000" transform="translate(0,0)"/>
<path d="" fill="#000000" transform="translate(0,0)"/>
<path d="" fill="#000000" transform="translate(0,0)"/>
<path d="" fill="#331A00" transform="translate(0,0)"/>
<path d="" fill="#333333" transform="translate(0,0)"/>
<path d="" fill="#333333" transform="translate(0,0)"/>
<path d="" fill="#000000" transform="translate(0,0)"/>
<path d="" fill="#333333" transform="translate(0,0)"/>
<path d="" fill="#242424" transform="translate(0,0)"/>
<path d="" fill="#000000" transform="translate(0,0)"/>
<path d="" fill="#1A1A00" transform="translate(0,0)"/>
<path d="" fill="#331A1A" transform="translate(0,0)"/>
<path d="" fill="#000000" transform="translate(0,0)"/>
<path d="" fill="#000000" transform="translate(0,0)"/>
<path d="" fill="#331A1A" transform="translate(0,0)"/>
<path d="" fill="#202020" transform="translate(0,0)"/>
<path d="" fill="#1E1E0F" transform="translate(0,0)"/>
<path d="" fill="#242424" transform="translate(0,0)"/>
<path d="" fill="#000000" transform="translate(0,0)"/>
<path d="" fill="#000000" transform="translate(0,0)"/>
<path d="" fill="#330000" transform="translate(0,0)"/>
<path d="" fill="#1C1C1C" transform="translate(0,0)"/>
<path d="" fill="#2E1717" transform="translate(0,0)"/>
<path d="" fill="#2E1717" transform="translate(0,0)"/>
<path d="" fill="#400000" transform="translate(0,0)"/>
<path d="" fill="#000000" transform="translate(0,0)"/>
<path d="" fill="#000000" transform="translate(0,0)"/>
<path d="" fill="#391C1C" transform="translate(0,0)"/>
<path d="" fill="#2E1717" transform="translate(0,0)"/>
<path d="" fill="#000000" transform="translate(0,0)"/>
<path d="" fill="#121212" transform="translate(0,0)"/>
<path d="" fill="#2A2A2A" transform="translate(0,0)"/>
<path d="" fill="#281B1B" transform="translate(0,0)"/>
<path d="" fill="#000000" transform="translate(0,0)"/>
<path d="" fill="#1A1A0D" transform="translate(0,0)"/>
<path d="" fill="#000000" transform="translate(0,0)"/>
<path d="" fill="#000000" transform="translate(0,0)"/>
<path d="" fill="#000000" transform="translate(0,0)"/>
<path d="" fill="#000000" transform="translate(0,0)"/>
<path d="" fill="#210B0B" transform="translate(0,0)"/>
<path d="" fill="#400000" transform="translate(0,0)"/>
<path d="" fill="#000000" transform="translate(0,0)"/>
<path d="" fill="#000000" transform="translate(0,0)"/>
</svg>
