<?xml version="1.0" encoding="UTF-8"?>
<svg version="1.1" xmlns="http://www.w3.org/2000/svg" width="1080" height="1080">
<path d="M0 0 C8.01958614 1.58489845 16.02922474 3.18210389 24 5 C24 4.34 24 3.68 24 3 C27.71973879 0.15549386 30.37390802 -0.3227506 35 0 C34.125 4.75 34.125 4.75 33 7 C36.73987249 5.50405101 39.72909302 4.19753634 43 1.8125 C46.59594586 -0.36005062 48.87104864 -0.33031611 53 0 C53.75 1.625 53.75 1.625 54 4 C51.5820224 8.63445707 48.52254134 11.45444851 44.390625 14.60546875 C42.64694282 16.02581478 42.64694282 16.02581478 43 19 C44.98 18.67 46.96 18.34 49 18 C50 21 50 21 49.375 22.9375 C47.63675282 25.54487077 45.47149749 27.09884809 43 29 C41.05681101 32.88637798 41.6237456 37.94077475 41.48242188 42.25976562 C41.29497644 46.57808413 40.97426756 50.05945788 39 54 C38.01 54 37.02 54 36 54 C35.81824219 53.14019531 35.63648438 52.28039062 35.44921875 51.39453125 C33.71568725 43.24248826 31.90066315 35.11488805 30 27 C29.39414063 27.36351562 28.78828125 27.72703125 28.1640625 28.1015625 C26.90722656 28.85566406 26.90722656 28.85566406 25.625 29.625 C24.72265625 30.18058594 23.8203125 30.73617187 22.890625 31.30859375 C20 33 20 33 17.109375 34.34765625 C14.3428652 35.70324605 12.19376492 36.82908679 10 39 C9.15910472 42.79979555 9.38774228 46.17679068 10 50 C8.68 50.33 7.36 50.66 6 51 C4.5393715 48.35261084 4 47.10551666 4 44 C3.34 44 2.68 44 2 44 C1.74605469 44.55042969 1.49210938 45.10085938 1.23046875 45.66796875 C-2.69198929 53.10196066 -8.37082876 60.75041305 -15 66 C-15.66 66 -16.32 66 -17 66 C-17.32484375 66.85851562 -17.32484375 66.85851562 -17.65625 67.734375 C-19.44414884 70.74885559 -21.65234274 72.22666458 -24.5 74.25 C-25.4796875 74.95640625 -26.459375 75.6628125 -27.46875 76.390625 C-30 78 -30 78 -32 78 C-32 78.66 -32 79.32 -32 80 C-33.65 80.33 -35.3 80.66 -37 81 C-37 81.66 -37 82.32 -37 83 C-42.31776538 86.02835522 -47.6501889 89.02861967 -53 92 C-53.88816406 92.495 -54.77632812 92.99 -55.69140625 93.5 C-62.18336648 96.93227115 -69.03919515 99.22232618 -75.96875 101.59375 C-79.0297792 102.64597879 -82.01960927 103.79685462 -85 105.0625 C-112.99150516 116.44728025 -144.82546504 121.13002208 -174.6171875 124.70019531 C-177.67317811 125.08469905 -180.70921122 125.57326418 -183.75 126.0625 C-193.91344246 127.5405968 -204.19298816 128.03596205 -214.43212891 128.74560547 C-217.89762014 128.99270016 -221.36090966 129.25927316 -224.82421875 129.53515625 C-225.93506836 129.62345703 -227.04591797 129.71175781 -228.19042969 129.80273438 C-230.24982856 129.96748628 -232.30909203 130.13394673 -234.36816406 130.30273438 C-251.83313505 131.68322693 -269.26268053 132.1681141 -286.77734375 132.203125 C-288.93729672 132.21001855 -291.09724952 132.2169678 -293.25720215 132.22396851 C-300.15063641 132.24306062 -307.04404267 132.24763224 -313.9375 132.25 C-315.6974272 132.25132557 -315.6974272 132.25132557 -317.49290848 132.25267792 C-353.06354271 132.27646415 -388.41680496 131.65946451 -423.91796875 129.37158203 C-429.73443755 129.00413266 -435.5518554 128.73183998 -441.375 128.49609375 C-442.71628716 128.44134888 -442.71628716 128.44134888 -444.08467102 128.38549805 C-444.96334335 128.349646 -445.84201569 128.31379395 -446.74731445 128.27685547 C-465.09711857 127.52729048 -483.35027746 126.1343067 -501.63818359 124.46337891 C-512.44191844 123.47635408 -523.23345669 122.59581806 -534.0625 121.9375 C-544.82739634 121.27767327 -555.52282855 120.27480848 -566.24365234 119.10522461 C-574.55026247 118.21253189 -582.85137042 117.54591095 -591.1875 117 C-601.31239937 116.33287464 -611.35136142 115.33368802 -621.42260742 114.10546875 C-628.77309662 113.22106504 -636.11710609 112.54675232 -643.5 112 C-653.12676339 111.28572942 -662.6866468 110.26182637 -672.26953125 109.10546875 C-679.67099118 108.22793039 -687.06754657 107.55159088 -694.5 107 C-703.02996915 106.36695826 -711.5081932 105.5246218 -720 104.5 C-729.50301994 103.35404968 -738.99473084 102.47866945 -748.53955078 101.76953125 C-756.17485878 101.18651915 -763.76927399 100.38538058 -771.375 99.5 C-781.3989818 98.3384659 -791.41146967 97.46728307 -801.47886658 96.78559875 C-808.34837302 96.30741009 -815.18783092 95.69389248 -822.03407288 94.95649719 C-839.8912111 93.04299507 -857.76277453 91.89204 -875.69375229 90.93854523 C-878.10072944 90.81046574 -880.50759563 90.68042634 -882.91445923 90.55023193 C-928.51454235 87.89150992 -928.51454235 87.89150992 -974 91 C-974.76634766 91.10183594 -975.53269531 91.20367188 -976.32226562 91.30859375 C-986.39648171 92.70229401 -995.55486196 95.21296367 -1005 99 C-1001.55678548 87.66356857 -984.99211535 79.80557802 -975.30859375 74.53515625 C-969.68450333 71.6394978 -963.92349705 69.21049492 -958 67 C-957.39269043 66.7716748 -956.78538086 66.54334961 -956.15966797 66.30810547 C-945.92717083 62.48740902 -935.66938332 59.35855941 -925 57 C-923.44442383 56.65171143 -923.44442383 56.65171143 -921.85742188 56.29638672 C-906.2804545 52.84093269 -890.79835868 50.05056374 -874.93408203 48.34350586 C-871.67525539 47.96198072 -868.43493288 47.4880608 -865.1875 47.01953125 C-856.08655632 45.79309761 -846.95761651 45.20163582 -837.79589844 44.62231445 C-834.90001767 44.43908295 -832.00469356 44.24853165 -829.109375 44.05664062 C-827.19534063 43.93185937 -825.28127887 43.80749749 -823.3671875 43.68359375 C-822.53831024 43.62940781 -821.70943298 43.57522186 -820.85543823 43.51939392 C-817.90423023 43.33373624 -814.95245312 43.16478967 -812 43 C-811.28581091 42.95910122 -810.57162182 42.91820244 -809.83579063 42.8760643 C-795.59541322 42.07487796 -781.38997311 41.82397216 -767.12890625 41.796875 C-764.86007676 41.79002183 -762.59124741 41.78311848 -760.32241821 41.77616882 C-753.06911098 41.75718194 -745.81582865 41.75276096 -738.5625 41.75 C-736.71108587 41.7484535 -736.71108587 41.7484535 -734.82226944 41.74687576 C-696.84433767 41.71706937 -659.010503 42.34513682 -621.09117126 44.44790649 C-612.464569 44.91373918 -603.84353725 45.1980072 -595.20815849 45.41755867 C-578.4757408 45.84334848 -561.82239634 46.80702121 -545.125 48 C-530.37558192 49.04490762 -515.64813604 50.04293855 -500.8671875 50.5 C-485.70774173 50.97064226 -470.61899633 52.10199163 -455.5 53.27050781 C-441.49877468 54.34482058 -427.53411333 55.17791791 -413.49794006 55.61244202 C-401.83863547 55.99365678 -390.22357648 56.81520617 -378.59100342 57.67071533 C-353.70628968 59.48783696 -328.83625726 60.79285414 -303.89971924 61.60438538 C-296.7201661 61.84563763 -289.54604509 62.1548412 -282.37036133 62.49023438 C-254.39637416 63.77851734 -226.48511078 64.31994622 -198.48217773 64.26074219 C-192.98254875 64.24922701 -187.48311092 64.2562112 -181.98348808 64.26763344 C-159.04253556 64.30791191 -136.24196712 64.06157896 -113.36512756 62.25375366 C-108.53193798 61.88929807 -103.69466188 61.60812865 -98.85595703 61.32794189 C-85.86669149 60.54245324 -73.22184865 58.79304476 -60.43212891 56.43310547 C-57.38203127 55.88995417 -54.32057397 55.47216997 -51.25 55.0625 C-36.54097206 52.82672775 -20.08359837 49.1516689 -6.7734375 42.3515625 C-4 41 -4 41 -1 41 C-2.36983503 37.83884224 -2.9890638 37.0072908 -6 35 C-6 33.68 -6 32.36 -6 31 C-4.56208484 31.14168137 -3.1246763 31.28851043 -1.6875 31.4375 C-0.48673828 31.55931641 -0.48673828 31.55931641 0.73828125 31.68359375 C3 32 3 32 6 33 C6.89203125 32.10796875 7.7840625 31.2159375 8.703125 30.296875 C13.46875 25.53125 18.234375 20.765625 23 16 C21.2675 15.505 21.2675 15.505 19.5 15 C11.9767559 12.52445419 5.01788402 8.62518917 -2 5 C-1.34 3.35 -0.68 1.7 0 0 Z " fill="#8456A6" transform="translate(1020,550)"/>
<path d="M0 0 C9.57 0 19.14 0 29 0 C29.33 21.12 29.66 42.24 30 64 C32.31 60.7 34.62 57.4 37 54 C39.31500184 50.98222975 41.64049864 47.98207489 44 45 C45.23145011 43.43929902 46.46064004 41.87681185 47.6875 40.3125 C48.49767578 39.28576172 48.49767578 39.28576172 49.32421875 38.23828125 C51.12975132 35.93947083 51.12975132 35.93947083 52.68048096 32.90267944 C55 30 55 30 58.1005249 29.2784729 C59.31742004 29.29179657 60.53431519 29.30512024 61.78808594 29.31884766 C62.46166641 29.3179715 63.13524689 29.31709534 63.82923889 29.31619263 C66.0488105 29.32036276 68.26533377 29.36697548 70.484375 29.4140625 C72.02563831 29.42525698 73.56692302 29.43379598 75.10821533 29.43978882 C79.15955843 29.46266819 83.20960518 29.52158109 87.26043701 29.5880127 C91.39610252 29.64945606 95.5319781 29.67680805 99.66796875 29.70703125 C107.77923992 29.77132753 115.88945858 29.87369345 124 30 C124.63989904 31.25885283 125.27736152 32.51894436 125.91381836 33.77954102 C126.26907089 34.48111832 126.62432343 35.18269562 126.99034119 35.90553284 C128.40688089 38.84404617 129.49347781 41.85744598 130.5625 44.9375 C130.98789062 46.15566406 131.41328125 47.37382812 131.8515625 48.62890625 C132.72962994 51.20636271 133.59288862 53.78651454 134.4375 56.375 C136.08045373 61.38884156 137.96883688 66.31095061 139.84350586 71.24169922 C141.31973422 75.13466013 142.71257325 79.03916076 144 83 C147.331984 78.17685032 148.90965114 72.82002124 150.75 67.3125 C153.55173269 59.0731854 156.49035644 50.92195445 159.74121094 42.84887695 C160.0096582 42.17687256 160.27810547 41.50486816 160.5546875 40.8125 C160.78655762 40.24144531 161.01842773 39.67039062 161.25732422 39.08203125 C162.31979555 36.10347914 163.13122867 33.04069965 164 30 C174.89 30 185.78 30 197 30 C193.77547217 38.82906431 190.46497505 47.41128638 186.44140625 55.91015625 C183.36081584 62.51380669 180.67231912 69.28549872 178 76.0625 C176.2744629 80.40040403 174.37108482 84.63757006 172.421875 88.87890625 C168.40499859 97.69617067 164.50112344 106.56735397 160.95703125 115.5859375 C159.04099828 120.41903291 157.00735909 125.2043032 155 130 C154.16629785 131.99984629 153.3329625 133.99984553 152.5 136 C152.0875 136.98871094 151.675 137.97742188 151.25 138.99609375 C150.41297042 141.00758046 149.57966682 143.02062149 148.75 145.03515625 C145.69346796 152.43769479 142.58325345 159.8334931 139 167 C128.77 167 118.54 167 108 167 C109.07042254 159.50704225 109.07042254 159.50704225 112 155 C112.74664701 153.31192849 113.49057675 151.62234362 114.19921875 149.91796875 C115.02009802 147.9518628 115.87954083 146.00714283 116.75 144.0625 C118.11119184 141.01703188 119.4517338 137.96342417 120.77734375 134.90234375 C121.09155273 134.17845459 121.40576172 133.45456543 121.72949219 132.70874023 C122.36356874 131.24684152 122.99575926 129.7841232 123.62597656 128.32055664 C125.88841518 123.11158482 125.88841518 123.11158482 127 122 C127.59004074 117.16166595 126.36734991 114.31945792 124.140625 110.1953125 C122.10124194 106.27019852 120.59886878 102.11943837 119 98 C116.58213436 91.80360749 113.98857187 85.7334839 111.20703125 79.69140625 C110.1314001 77.29299246 109.14100082 74.88635894 108.1875 72.4375 C106.27407292 67.55630846 104.14363845 62.78309109 102 58 C99.51535862 52.4539255 97.07613525 46.90940399 94.88671875 41.23828125 C93.65549476 38.13038986 92.32488129 35.06912277 91 32 C90.22914063 33.010625 89.45828125 34.02125 88.6640625 35.0625 C87.65136816 36.37525193 86.6383295 37.6877383 85.625 39 C85.11710937 39.66773438 84.60921875 40.33546875 84.0859375 41.0234375 C83.59609375 41.65507812 83.10625 42.28671875 82.6015625 42.9375 C81.92601318 43.81728516 81.92601318 43.81728516 81.23681641 44.71484375 C80.82866699 45.13894531 80.42051758 45.56304687 80 46 C79.34 46 78.68 46 78 46 C77.731875 46.804375 77.46375 47.60875 77.1875 48.4375 C76.795625 49.283125 76.40375 50.12875 76 51 C74.515 51.495 74.515 51.495 73 52 C72.835 52.66 72.67 53.32 72.5 54 C72.335 54.66 72.17 55.32 72 56 C70.515 56.495 70.515 56.495 69 57 C67.78130071 59.50447516 67.78130071 59.50447516 67 62 C66.34 62 65.68 62 65 62 C64.63261719 62.82757813 64.63261719 62.82757813 64.2578125 63.671875 C62.74261886 66.47639491 60.88915874 68.78103123 58.875 71.25 C58.15054688 72.14203125 57.42609375 73.0340625 56.6796875 73.953125 C56.12539062 74.62859375 55.57109375 75.3040625 55 76 C59.21955833 81.86049769 63.80068895 87.31609773 68.52416992 92.76928711 C72.02326358 96.82193443 75.38010116 100.94858246 78.59765625 105.23046875 C79.96697097 106.9583227 81.42615784 108.45929136 83 110 C88 115.53521127 88 115.53521127 88 118 C89.485 118.495 89.485 118.495 91 119 C91.6875 121.0625 91.6875 121.0625 92 123 C87.01989777 123.24869902 82.04346076 123.42930324 77.05859375 123.54931641 C75.36654676 123.59936741 73.67492722 123.66743872 71.984375 123.75439453 C57.98033172 124.45624812 57.98033172 124.45624812 53.19921875 120.94042969 C51.13875975 118.39161515 49.54209209 115.88697169 48 113 C47.29101562 111.96101563 46.58203125 110.92203125 45.8515625 109.8515625 C45.24054688 108.91054688 44.62953125 107.96953125 44 107 C41.66779412 103.76930698 39.27728938 100.58121844 36.890625 97.390625 C36.41882813 96.75382812 35.94703125 96.11703125 35.4609375 95.4609375 C35.03603027 94.89165527 34.61112305 94.32237305 34.17333984 93.73583984 C33 92 33 92 31.97119141 89.84619141 C31.13746594 87.82566004 31.13746594 87.82566004 29 87 C29 98.88 29 110.76 29 123 C19.43 123 9.86 123 0 123 C0 82.41 0 41.82 0 0 Z " fill="#8456A6" transform="translate(160,396)"/>
<path d="M0 0 C2.18089579 1.93135756 4.24691759 3.89829733 6.2421875 6.01953125 C6.5721875 3.04953125 6.9021875 0.07953125 7.2421875 -2.98046875 C17.1421875 -2.98046875 27.0421875 -2.98046875 37.2421875 -2.98046875 C37.2421875 27.70953125 37.2421875 58.39953125 37.2421875 90.01953125 C27.3421875 90.01953125 17.4421875 90.01953125 7.2421875 90.01953125 C7.2421875 86.71953125 7.2421875 83.41953125 7.2421875 80.01953125 C6.6234375 80.74140625 6.0046875 81.46328125 5.3671875 82.20703125 C-1.59193733 89.16615608 -10.54768961 91.14889558 -20.0703125 91.20703125 C-31.5485226 91.05104198 -40.00918293 88.32772394 -48.61328125 80.28515625 C-50.11995041 78.59644737 -51.44563499 76.86224967 -52.7578125 75.01953125 C-53.19609375 74.48457031 -53.634375 73.94960938 -54.0859375 73.3984375 C-61.40954445 63.49392087 -63.0493512 47.89912978 -61.7578125 36.01953125 C-59.06420545 19.81790285 -59.06420545 19.81790285 -54.7578125 14.01953125 C-54.0978125 14.01953125 -53.4378125 14.01953125 -52.7578125 14.01953125 C-52.65210938 13.436875 -52.54640625 12.85421875 -52.4375 12.25390625 C-51.66095005 9.70110986 -50.61479483 8.28586889 -48.8828125 6.26953125 C-48.36976563 5.6559375 -47.85671875 5.04234375 -47.328125 4.41015625 C-45.7578125 3.01953125 -45.7578125 3.01953125 -42.7578125 3.01953125 C-42.7578125 2.35953125 -42.7578125 1.69953125 -42.7578125 1.01953125 C-40.86448716 0.20120403 -38.96803517 -0.60989143 -37.0703125 -1.41796875 C-35.48669922 -2.09666016 -35.48669922 -2.09666016 -33.87109375 -2.7890625 C-23.49493668 -6.75986288 -9.23477417 -6.63177125 0 0 Z M-26.6328125 27.76953125 C-30.57386217 33.79701898 -32.88543902 39.69643948 -31.7578125 47.01953125 C-30.10551317 54.30419687 -27.88678805 58.86740759 -21.5625 62.99609375 C-18.10228151 64.95838216 -15.89277535 65.18252047 -11.8828125 65.20703125 C-10.83351563 65.22121094 -9.78421875 65.23539063 -8.703125 65.25 C-5.82234179 65.02458062 -4.19541042 64.50917442 -1.7578125 63.01953125 C-1.7578125 62.35953125 -1.7578125 61.69953125 -1.7578125 61.01953125 C-1.0153125 60.87515625 -0.2728125 60.73078125 0.4921875 60.58203125 C4.07556754 58.54601986 5.02115734 56.62522265 6.5078125 52.84765625 C8.38937235 45.60164917 8.59935346 37.77378519 5.2421875 30.95703125 C1.91031356 25.93114275 -2.21000819 23.0845027 -7.95703125 21.359375 C-15.44933685 20.01259057 -21.24277339 22.61384166 -26.6328125 27.76953125 Z " fill="#8456A6" transform="translate(607.7578125,428.98046875)"/>
<path d="M0 0 C11.03814214 -0.55297051 23.66820923 1.77635942 32.71484375 8.2109375 C33.70484375 8.8709375 34.69484375 9.5309375 35.71484375 10.2109375 C35.71484375 10.8709375 35.71484375 11.5309375 35.71484375 12.2109375 C36.70484375 12.5409375 37.69484375 12.8709375 38.71484375 13.2109375 C40.28515625 15.390625 40.28515625 15.390625 41.83984375 18.0859375 C42.61714844 19.41238281 42.61714844 19.41238281 43.41015625 20.765625 C46.47136592 26.5031018 45.71484375 28.60238917 45.71484375 36.2109375 C35.48484375 36.2109375 25.25484375 36.2109375 14.71484375 36.2109375 C13.39484375 33.5709375 12.07484375 30.9309375 10.71484375 28.2109375 C7.15103772 25.47592357 4.45785833 25.00088487 0.08984375 25.2734375 C-2.83378253 25.74180933 -4.30202547 26.22163505 -6.84765625 27.8359375 C-8.88539892 31.20264278 -8.82834011 33.3407525 -8.28515625 37.2109375 C-5.34845523 42.95085312 -0.0257578 44.22206767 5.71484375 46.2109375 C8.04829787 47.04393256 10.38162544 47.87728216 12.71484375 48.7109375 C13.90078125 49.13117188 15.08671875 49.55140625 16.30859375 49.984375 C20.82885798 51.61208483 25.28471442 53.35340646 29.71484375 55.2109375 C30.76671875 55.6234375 31.81859375 56.0359375 32.90234375 56.4609375 C36.99099467 59.00498696 39.74367595 62.46280572 42.71484375 66.2109375 C43.25367188 66.88253906 43.7925 67.55414063 44.34765625 68.24609375 C49.07581291 75.04113032 48.53965811 85.07459353 47.28515625 92.88671875 C45.66107593 99.33291408 42.42432954 104.51279987 37.71484375 109.2109375 C37.05484375 109.2109375 36.39484375 109.2109375 35.71484375 109.2109375 C35.21984375 110.6959375 35.21984375 110.6959375 34.71484375 112.2109375 C20.93144979 121.40766725 4.68227755 121.55714482 -11.1484375 118.921875 C-15.76350744 117.87586911 -20.00270018 116.20232791 -24.28515625 114.2109375 C-24.28515625 113.5509375 -24.28515625 112.8909375 -24.28515625 112.2109375 C-25.12046875 111.8396875 -25.12046875 111.8396875 -25.97265625 111.4609375 C-33.27065215 107.51607485 -37.67968753 101.02734365 -40.28515625 93.2109375 C-40.28515625 89.9109375 -40.28515625 86.6109375 -40.28515625 83.2109375 C-30.05515625 83.2109375 -19.82515625 83.2109375 -9.28515625 83.2109375 C-7.80015625 87.1709375 -7.80015625 87.1709375 -6.28515625 91.2109375 C-3.85997745 93.20176927 -3.85997745 93.20176927 -1.28515625 94.2109375 C-0.29515625 94.7059375 -0.29515625 94.7059375 0.71484375 95.2109375 C6.34338135 95.65239143 9.76988631 94.63295747 14.71484375 92.2109375 C14.93847745 90.79660544 15.14310851 89.37926132 15.33984375 87.9609375 C15.45585938 87.17203125 15.571875 86.383125 15.69140625 85.5703125 C15.71900833 82.79170275 15.26963114 81.50220313 13.71484375 79.2109375 C8.26255034 74.91897197 1.54473502 73.08226363 -5.01171875 71.171875 C-17.65589602 67.46009981 -30.66926749 62.85417232 -37.66015625 51.0234375 C-41.84253077 42.05014191 -42.11491749 31.84097208 -39.06640625 22.4609375 C-36.74294123 17.52950155 -35.2537697 14.54910853 -30.28515625 12.2109375 C-29.95515625 11.2209375 -29.62515625 10.2309375 -29.28515625 9.2109375 C-20.02473574 2.5794721 -11.18158288 1.03214611 0 0 Z " fill="#8456A6" transform="translate(96.28515625,399.7890625)"/>
<path d="M0 0 C1.36115698 1.02661371 2.69659154 2.08849572 4 3.1875 C4.62261719 3.70054687 5.24523437 4.21359375 5.88671875 4.7421875 C13.66846924 11.79809142 17.80193174 20.88411297 19 31.1875 C19 36.7975 19 42.4075 19 48.1875 C-1.79 48.1875 -22.58 48.1875 -44 48.1875 C-42.65840469 56.43314042 -42.65840469 56.43314042 -38 61.1875 C-38 61.8475 -38 62.5075 -38 63.1875 C-27.565053 64.66803862 -27.565053 64.66803862 -18 61.1875 C-17.01 59.7025 -17.01 59.7025 -16 58.1875 C-15.34 58.1875 -14.68 58.1875 -14 58.1875 C-14 57.5275 -14 56.8675 -14 56.1875 C-3.77 56.1875 6.46 56.1875 17 56.1875 C15.86672711 64.12041024 15.86672711 64.12041024 13.0625 68.625 C12.53785156 69.48996094 12.01320313 70.35492188 11.47265625 71.24609375 C10.98667969 71.88675781 10.50070312 72.52742188 10 73.1875 C9.34 73.1875 8.68 73.1875 8 73.1875 C7.5978125 74.3940625 7.5978125 74.3940625 7.1875 75.625 C6.795625 76.470625 6.40375 77.31625 6 78.1875 C4.515 78.6825 4.515 78.6825 3 79.1875 C2.38640625 79.81269531 1.7728125 80.43789063 1.140625 81.08203125 C-4.29758617 86.43092874 -12.48098152 89.02069584 -20 89.1875 C-21.08539062 89.21457031 -22.17078125 89.24164062 -23.2890625 89.26953125 C-26.86379563 89.31163196 -30.42613964 89.26994199 -34 89.1875 C-34.81855469 89.18234375 -35.63710938 89.1771875 -36.48046875 89.171875 C-44.44864047 88.76548373 -51.4833059 84.53196273 -58 80.1875 C-58 79.5275 -58 78.8675 -58 78.1875 C-58.9590625 77.7853125 -58.9590625 77.7853125 -59.9375 77.375 C-62 76.1875 -62 76.1875 -63 73.1875 C-63.66 73.1875 -64.32 73.1875 -65 73.1875 C-67.11845466 69.25460581 -69.19162869 65.3071354 -71.15234375 61.29296875 C-71.6472229 60.28206177 -71.6472229 60.28206177 -72.15209961 59.25073242 C-73.67566738 55.54336955 -74.08680843 52.16065493 -74 48.1875 C-74.03480469 47.12144531 -74.06960938 46.05539062 -74.10546875 44.95703125 C-74.38354495 32.81437056 -73.14499866 22.78879539 -67 12.1875 C-66.34 12.1875 -65.68 12.1875 -65 12.1875 C-64.814375 11.48625 -64.62875 10.785 -64.4375 10.0625 C-61.09673148 3.38096296 -53.7331627 -0.99953425 -47 -3.8125 C-31.57592565 -8.47515851 -14.06468348 -8.92198459 0 0 Z M-41.9375 24.125 C-43.40070349 26.70731659 -43.40070349 26.70731659 -44 32.1875 C-33.11 32.1875 -22.22 32.1875 -11 32.1875 C-12.00725218 23.45555213 -12.00725218 23.45555213 -16.4375 20.1875 C-25.74739943 14.39646105 -34.50176048 16.68926048 -41.9375 24.125 Z " fill="#8456A6" transform="translate(835,430.8125)"/>
<path d="M0 0 C10.23 0 20.46 0 31 0 C33.5822656 5.81009761 35.77631696 11.03566448 37.4375 17.0625 C37.86210775 18.55241827 38.28791839 20.04199417 38.71484375 21.53125 C38.92737793 22.27632813 39.13991211 23.02140625 39.35888672 23.7890625 C40.92939131 29.20509053 42.65991278 34.57297607 44.35742188 39.95019531 C45.04350179 42.1387694 45.71808759 44.33066579 46.390625 46.5234375 C46.61814453 47.26198975 46.84566406 48.00054199 47.08007812 48.76147461 C47.51865136 50.18603847 47.95493928 51.61130839 48.38867188 53.03735352 C49.20982329 56.2809188 49.20982329 56.2809188 51 59 C53.68700083 51.99664678 55.92300048 44.95043188 57.9375 37.7265625 C59.23038744 33.19194994 60.64132603 28.70082086 62.06518555 24.20605469 C63.93646162 18.2715804 65.68527639 12.30389398 67.38842773 6.3190918 C68.89225877 1.10774123 68.89225877 1.10774123 70 0 C72.3756852 -0.0883967 74.72208674 -0.11530305 77.09765625 -0.09765625 C78.16094398 -0.09553383 78.16094398 -0.09553383 79.24571228 -0.09336853 C81.51801712 -0.08775443 83.79022475 -0.07519963 86.0625 -0.0625 C87.59960796 -0.05748681 89.13671745 -0.05292359 90.67382812 -0.04882812 C94.44925642 -0.03778042 98.22461171 -0.02050641 102 0 C101.5875 1.17691406 101.175 2.35382813 100.75 3.56640625 C100.47567139 4.34959229 100.20134277 5.13277832 99.91870117 5.93969727 C99.29411644 7.7228261 98.66926958 9.50586313 98.04418945 11.28881836 C96.38635124 16.0219485 94.73633775 20.7575042 93.10546875 25.5 C89.06385426 37.23311777 84.86390042 48.8961392 80.50073242 60.51391602 C77.83862752 67.62671912 75.35566349 74.78013849 73 82 C72.43770016 83.70839923 71.87523617 85.41674445 71.3125 87.125 C71.08175781 87.82882812 70.85101562 88.53265625 70.61328125 89.2578125 C70 91 70 91 69 93 C56.79 93 44.58 93 32 93 C30.35 88.05 28.7 83.1 27 78 C25.9789444 75.22150539 24.94213022 72.44862656 23.875 69.6875 C21.92694849 64.58445875 20.15073308 59.476822 18.640625 54.2265625 C16.84991376 48.00274906 14.65412236 42.12779109 11.96875 36.23828125 C10.38386812 32.57643724 9.20804029 28.79928673 8 25 C5.45229756 16.95140584 5.45229756 16.95140584 2.3125 9.125 C1 6 1 6 0 0 Z " fill="#8456A6" transform="translate(655,426)"/>
<path d="M0 0 C30.03 0 60.06 0 91 0 C91 7.92 91 15.84 91 24 C80.77 24 70.54 24 60 24 C60 54.69 60 85.38 60 117 C50.43 117 40.86 117 31 117 C31 86.31 31 55.62 31 24 C20.77 24 10.54 24 0 24 C0 16.08 0 8.16 0 0 Z " fill="#8556A6" transform="translate(378,402)"/>
<path d="M0 0 C9.9 0 19.8 0 30 0 C30 40.59 30 81.18 30 123 C20.1 123 10.2 123 0 123 C0 82.41 0 41.82 0 0 Z " fill="#8557A7" transform="translate(868,396)"/>
<path d="M0 0 C0 10.23 0 20.46 0 31 C-4.62 31.33 -9.24 31.66 -14 32 C-20.05881766 33.04023358 -20.05881766 33.04023358 -24.3984375 36.8359375 C-26.93125693 41.668054 -28.10288307 46.32464338 -28.20532227 51.76855469 C-28.22526749 52.70922791 -28.24521271 53.64990112 -28.26576233 54.61907959 C-28.29083107 56.13021332 -28.29083107 56.13021332 -28.31640625 57.671875 C-28.33718735 58.70942932 -28.35796844 59.74698364 -28.37937927 60.815979 C-28.44471408 64.12725258 -28.50368517 67.43860482 -28.5625 70.75 C-28.60570049 72.99610185 -28.64931527 75.24219578 -28.69335938 77.48828125 C-28.8011579 82.99210807 -28.90035123 88.49599543 -29 94 C-38.57 94 -48.14 94 -58 94 C-58 63.31 -58 32.62 -58 1 C-48.43 1 -38.86 1 -29 1 C-28.67 4.63 -28.34 8.26 -28 12 C-26.1746875 10.3603125 -26.1746875 10.3603125 -24.3125 8.6875 C-16.27378646 1.68011526 -10.93195302 0 0 0 Z " fill="#8456A6" transform="translate(540,425)"/>
<path d="M0 0 C3.3 0 6.6 0 10 0 C10 2.31 10 4.62 10 7 C11.98 7 13.96 7 16 7 C16 9.64 16 12.28 16 15 C14.02 15 12.04 15 10 15 C10 18.96 10 22.92 10 27 C11.65 27 13.3 27 15 27 C16 28 16 28 16.09765625 29.84765625 C16.06510417 31.8984375 16.03255208 33.94921875 16 36 C5.1005291 36.57142857 5.1005291 36.57142857 1 33 C-0.2062252 29.38132441 -0.10816918 26.07493749 -0.0625 22.3125 C-0.05798828 21.61060547 -0.05347656 20.90871094 -0.04882812 20.18554688 C-0.03706927 18.45699462 -0.01913454 16.72848635 0 15 C-0.74765625 15.31066406 -1.4953125 15.62132812 -2.265625 15.94140625 C-5 17 -5 17 -8.75 17.9375 C-9.8225 18.288125 -10.895 18.63875 -12 19 C-13.15570704 22.46712111 -13.32835293 25.5414956 -13.5625 29.1875 C-13.64628906 30.45980469 -13.73007812 31.73210938 -13.81640625 33.04296875 C-13.87699219 34.01878906 -13.93757812 34.99460937 -14 36 C-17.3 36 -20.6 36 -24 36 C-24 26.43 -24 16.86 -24 7 C-20.7 7 -17.4 7 -14 7 C-13.67 7.66 -13.34 8.32 -13 9 C-12.34 8.34 -11.68 7.68 -11 7 C-8.3984375 6.8046875 -8.3984375 6.8046875 -5.375 6.875 C-3.87066406 6.90207031 -3.87066406 6.90207031 -2.3359375 6.9296875 C-1.56507813 6.95289063 -0.79421875 6.97609375 0 7 C0 4.69 0 2.38 0 0 Z " fill="#8456A6" transform="translate(887,548)"/>
<path d="M0 0 C0.96703857 0.00749268 1.93407715 0.01498535 2.93041992 0.02270508 C4.15607666 0.05001709 5.3817334 0.0773291 6.64453125 0.10546875 C10.54265625 0.16734375 14.44078125 0.22921875 18.45703125 0.29296875 C18.45703125 9.86296875 18.45703125 19.43296875 18.45703125 29.29296875 C14.45703125 29.29296875 10.45703125 29.29296875 6.45703125 29.29296875 C5.79703125 29.62296875 5.13703125 29.95296875 4.45703125 30.29296875 C0.2826923 30.6943475 -2.03848588 30.55491178 -5.79296875 28.60546875 C-10.11447428 24.97147546 -11.61803845 22.00171373 -12.48046875 16.48046875 C-12.93983276 10.44568671 -10.94160143 6.39169906 -7.31420898 1.70556641 C-4.83457942 -0.27198517 -3.14190526 -0.04987151 0 0 Z M0.33203125 9.35546875 C-1.91111452 11.27509735 -1.91111452 11.27509735 -1.91796875 14.85546875 C-1.89936283 18.35407629 -1.89936283 18.35407629 0.45703125 20.29296875 C3.45703125 20.70963542 3.45703125 20.70963542 6.45703125 20.29296875 C8.77064927 16.82254172 8.96723853 15.37462702 8.45703125 11.29296875 C5.63947369 8.47541119 4.00612386 7.51842245 0.33203125 9.35546875 Z " fill="#8456A6" transform="translate(840.54296875,554.70703125)"/>
<path d="M0 0 C5.754375 0.2475 5.754375 0.2475 11.625 0.5 C11.625 10.07 11.625 19.64 11.625 29.5 C7.995 29.5 4.365 29.5 0.625 29.5 C-0.98375 29.70625 -2.5925 29.9125 -4.25 30.125 C-7.8743475 30.56431485 -10.18331192 30.50620393 -13.375 28.5 C-17.40144768 24.02616924 -18.58375285 21.3501528 -18.8125 15.375 C-18.87308594 14.27929688 -18.93367187 13.18359375 -18.99609375 12.0546875 C-17.01503093 0.71652921 -10.38750379 -0.63132334 0 0 Z M-6.1875 9.4375 C-8.74917392 11.41303262 -8.74917392 11.41303262 -8.8125 15.0625 C-8.72386432 18.55925114 -8.72386432 18.55925114 -6.375 20.5 C-2.83321402 20.75003964 -2.83321402 20.75003964 0.625 20.5 C1.85767348 19.49163938 1.85767348 19.49163938 1.72265625 17.43359375 C1.71105469 16.60988281 1.69945312 15.78617188 1.6875 14.9375 C1.67847656 14.11121094 1.66945313 13.28492188 1.66015625 12.43359375 C1.64855469 11.79550781 1.63695312 11.15742187 1.625 10.5 C-1.49613655 8.80566873 -2.75099224 8.29199741 -6.1875 9.4375 Z " fill="#8456A6" transform="translate(694.375,554.5)"/>
<path d="M0 0 C8.01787807 0.07333425 14.39722084 0.3302596 20.4375 6.1875 C22.18226571 9.67703142 22.01239133 13.38044187 21.4375 17.1875 C19.8713264 20.21961208 17.91498598 22.66474543 14.59375 23.83984375 C12.09050001 24.24344746 9.72225707 24.28335207 7.1875 24.25 C4.83625 24.2190625 4.83625 24.2190625 2.4375 24.1875 C2.4375 28.4775 2.4375 32.7675 2.4375 37.1875 C-0.8625 37.1875 -4.1625 37.1875 -7.5625 37.1875 C-7.5871501 32.07886104 -7.60533607 26.97025641 -7.61743164 21.86157227 C-7.62247204 20.12230832 -7.6293043 18.38304864 -7.63793945 16.64379883 C-7.65001792 14.14924063 -7.65573108 11.65473827 -7.66015625 9.16015625 C-7.66531754 8.37786148 -7.67047882 7.59556671 -7.67579651 6.78956604 C-7.67599226 4.92182886 -7.62449694 3.05420796 -7.5625 1.1875 C-5.67535581 -0.69964419 -2.51472769 0.01333366 0 0 Z M2.4375 9.1875 C2.4375 11.4975 2.4375 13.8075 2.4375 16.1875 C5.85406024 16.35427282 5.85406024 16.35427282 9.4375 16.1875 C10.0975 15.5275 10.7575 14.8675 11.4375 14.1875 C11.03221099 11.40512345 11.03221099 11.40512345 9.4375 9.1875 C7.10452567 9.14657063 4.77044775 9.14508277 2.4375 9.1875 Z " fill="#8456A6" transform="translate(805.5625,546.8125)"/>
<path d="M0 0 C1.93359375 -0.01933594 1.93359375 -0.01933594 3.90625 -0.0390625 C8.31077884 0.77481783 9.71723541 2.19343055 12.5 5.625 C15.35879191 10.25821447 15.5 11.86898428 15.5 17.625 C9.23 17.625 2.96 17.625 -3.5 17.625 C-3.5 18.615 -3.5 19.605 -3.5 20.625 C-2.1078125 20.3775 -2.1078125 20.3775 -0.6875 20.125 C4.35733621 19.38799718 9.41435711 19.54223185 14.5 19.625 C12.58643351 25.10810398 9.77074451 27.98962774 4.5 30.625 C-1.97838849 30.94360927 -5.80243564 30.46424843 -11.25 26.75 C-14.65415281 22.02200999 -14.6319847 17.33916115 -14.5 11.625 C-12.99828176 3.36554967 -8.20730118 -0.08207301 0 0 Z M-2.5 8.625 C-2.83 9.615 -3.16 10.605 -3.5 11.625 C-0.86 11.625 1.78 11.625 4.5 11.625 C3.84 10.635 3.18 9.645 2.5 8.625 C-0.08380177 8.37469023 -0.08380177 8.37469023 -2.5 8.625 Z " fill="#8456A6" transform="translate(951.5,554.375)"/>
<path d="M0 0 C1.93359375 -0.01933594 1.93359375 -0.01933594 3.90625 -0.0390625 C8.31077884 0.77481783 9.71723541 2.19343055 12.5 5.625 C15.35879191 10.25821447 15.5 11.86898428 15.5 17.625 C9.23 17.955 2.96 18.285 -3.5 18.625 C-3.5 19.285 -3.5 19.945 -3.5 20.625 C-2.1078125 20.3775 -2.1078125 20.3775 -0.6875 20.125 C4.35733621 19.38799718 9.41435711 19.54223185 14.5 19.625 C12.58643351 25.10810398 9.77074451 27.98962774 4.5 30.625 C-1.97838849 30.94360927 -5.80243564 30.46424843 -11.25 26.75 C-14.65415281 22.02200999 -14.6319847 17.33916115 -14.5 11.625 C-12.99828176 3.36554967 -8.20730118 -0.08207301 0 0 Z M-2.5 8.625 C-2.83 9.615 -3.16 10.605 -3.5 11.625 C-0.86 11.625 1.78 11.625 4.5 11.625 C3.84 10.635 3.18 9.645 2.5 8.625 C-0.08380177 8.37469023 -0.08380177 8.37469023 -2.5 8.625 Z " fill="#8456A6" transform="translate(755.5,554.375)"/>
<path d="M0 0 C1.96066406 -0.04253906 1.96066406 -0.04253906 3.9609375 -0.0859375 C8.14272493 0.44012958 9.68931009 1.42320941 12.625 4.375 C15.62213483 8.92237699 16.3400756 13.02747814 15.625 18.375 C14.35434059 23.37292702 12.69509386 25.69247715 8.375 28.3125 C4.2304977 30.32458902 1.2654629 31.20365409 -3.375 30.375 C-7.4538962 28.88305475 -11.08616103 27.19360714 -13.6484375 23.578125 C-15.83277421 18.56817841 -15.81518792 13.6041387 -14.375 8.375 C-10.64134788 1.52997111 -7.67238782 0.07536727 0 0 Z M-3.0625 9.4375 C-5.07361232 12.40628486 -4.69188362 14.88928022 -4.375 18.375 C-2.55028109 20.59396136 -2.55028109 20.59396136 0.0625 20.75 C2.70799189 20.59781038 2.70799189 20.59781038 4.5 18.75 C6.02281243 15.53517375 5.64816469 13.73682684 4.625 10.375 C1.59130148 8.35253432 0.16204631 7.4072301 -3.0625 9.4375 Z " fill="#8456A6" transform="translate(542.375,554.625)"/>
<path d="M0 0 C4 0 8 0 12 0 C12.88429688 -0.04640625 13.76859375 -0.0928125 14.6796875 -0.140625 C16.26136719 -0.19476562 16.26136719 -0.19476562 17.875 -0.25 C18.92429687 -0.29640625 19.97359375 -0.3428125 21.0546875 -0.390625 C24.69284014 0.09188861 25.75048102 1.17502268 28 4 C29.27861615 6.55723229 29.11336609 8.36737102 29.09765625 11.2265625 C29.09443359 12.2578125 29.09121094 13.2890625 29.08789062 14.3515625 C29.07951172 15.43179688 29.07113281 16.51203125 29.0625 17.625 C29.05798828 18.71296875 29.05347656 19.8009375 29.04882812 20.921875 C29.0370179 23.61460662 29.01908205 26.30731009 29 29 C25.7 29 22.4 29 19 29 C18.505 19.595 18.505 19.595 18 10 C15.525 9.505 15.525 9.505 13 9 C11.0243438 11.96348429 10.73623141 12.68020373 10.5859375 16.01171875 C10.52792969 17.14770508 10.52792969 17.14770508 10.46875 18.30664062 C10.42234375 19.48516602 10.42234375 19.48516602 10.375 20.6875 C10.31699219 21.88342773 10.31699219 21.88342773 10.2578125 23.10351562 C10.16367506 25.06863475 10.08075368 27.0342854 10 29 C6.7 29 3.4 29 0 29 C0 19.43 0 9.86 0 0 Z " fill="#8456A6" transform="translate(905,555)"/>
<path d="M0 0 C3.3 0 6.6 0 10 0 C10.33 6.6 10.66 13.2 11 20 C13.64 20 16.28 20 19 20 C19 13.4 19 6.8 19 0 C22.3 0 25.6 0 29 0 C29 9.57 29 19.14 29 29 C25.04 29 21.08 29 17 29 C15.700625 29.20625 14.40125 29.4125 13.0625 29.625 C9.55568841 30.0544055 8.02365009 29.797846 5 28 C1.36236207 23.95818008 -0.13009698 21.59609871 -0.09765625 16.2109375 C-0.09443359 15.26992188 -0.09121094 14.32890625 -0.08789062 13.359375 C-0.07951172 12.37453125 -0.07113281 11.3896875 -0.0625 10.375 C-0.05798828 9.38242187 -0.05347656 8.38984375 -0.04882812 7.3671875 C-0.03702161 4.91143278 -0.01908582 2.45570894 0 0 Z " fill="#8456A6" transform="translate(561,555)"/>
<path d="M0 0 C3.63 0 7.26 0 11 0 C12.98 3.96 14.96 7.92 17 12 C18.98 8.04 20.96 4.08 23 0 C26.63 0 30.26 0 34 0 C33.20110517 3.19557934 32.36018444 5.58498243 30.96875 8.51171875 C30.57042969 9.35154297 30.17210937 10.19136719 29.76171875 11.05664062 C29.13716797 12.35891602 29.13716797 12.35891602 28.5 13.6875 C27.87544922 15.00717773 27.87544922 15.00717773 27.23828125 16.35351562 C24.13626427 22.86373573 24.13626427 22.86373573 23 24 C22.76518307 26.18292774 22.58636677 28.37203174 22.4375 30.5625 C22.35371094 31.76003906 22.26992188 32.95757813 22.18359375 34.19140625 C22.09271484 35.58166016 22.09271484 35.58166016 22 37 C18.7 37 15.4 37 12 37 C11.97421875 36.05898438 11.9484375 35.11796875 11.921875 34.1484375 C11.58160105 24.77580712 11.58160105 24.77580712 7 17 C6.32558869 15.3364521 5.6599679 13.66933058 5 12 C3.70460978 9.6765223 2.37595539 7.37661808 1.0234375 5.0859375 C0 3 0 3 0 0 Z " fill="#8456A6" transform="translate(493,547)"/>
<path d="M0 0 C3.63 0 7.26 0 11 0 C11.268125 0.99 11.53625 1.98 11.8125 3 C12.976839 7.09612784 14.46711578 11.02843633 16 15 C17.65 10.05 19.3 5.1 21 0 C24.63 0 28.26 0 32 0 C31.2380969 3.80951552 30.37395749 6.51870637 28.8203125 9.98046875 C27.88370939 12.2862964 27.18939096 14.60890187 26.5 17 C25.29276935 21.17740129 23.80486062 25.04649579 22 29 C18.04 29 14.08 29 10 29 C7.82031146 24.95200699 6.22425775 20.94123298 4.828125 16.58203125 C3.53091158 12.53741772 2.14039268 8.5240729 0.76953125 4.50390625 C0 2 0 2 0 0 Z " fill="#8456A6" transform="translate(709,555)"/>
<path d="M0 0 C9.24 0 18.48 0 28 0 C28 2.64 28 5.28 28 8 C25.03 8 22.06 8 19 8 C19 17.57 19 27.14 19 37 C15.7 37 12.4 37 9 37 C9 27.43 9 17.86 9 8 C6.03 8 3.06 8 0 8 C0 5.36 0 2.72 0 0 Z " fill="#8456A6" transform="translate(625,547)"/>
<path d="M0 0 C3.3 0 6.6 0 10 0 C10 12.87 10 25.74 10 39 C6.7 39 3.4 39 0 39 C0 26.13 0 13.26 0 0 Z " fill="#8456A6" transform="translate(773,545)"/>
<path d="M0 0 C3.3 0 6.6 0 10 0 C10.33 0.66 10.66 1.32 11 2 C11.66 1.34 12.32 0.68 13 0 C16.125 -0.125 16.125 -0.125 19 0 C19 3.3 19 6.6 19 10 C17.2984375 10.4021875 17.2984375 10.4021875 15.5625 10.8125 C14.386875 11.204375 13.21125 11.59625 12 12 C10.84429296 15.46712111 10.67164707 18.5414956 10.4375 22.1875 C10.35371094 23.45980469 10.26992188 24.73210938 10.18359375 26.04296875 C10.12300781 27.01878906 10.06242188 27.99460937 10 29 C6.7 29 3.4 29 0 29 C0 19.43 0 9.86 0 0 Z " fill="#8456A6" transform="translate(969,555)"/>
<path d="M0 0 C6.33333333 0 12.66666667 0 19 0 C19 3.3 19 6.6 19 10 C17.2984375 10.2165625 17.2984375 10.2165625 15.5625 10.4375 C12.19222799 10.61171478 12.19222799 10.61171478 11 12 C10.76298761 14.85877909 10.57780818 17.69883297 10.4375 20.5625 C10.39431641 21.36880859 10.35113281 22.17511719 10.30664062 23.00585938 C10.20024738 25.00368805 10.09959112 27.0018207 10 29 C6.7 29 3.4 29 0 29 C0 19.43 0 9.86 0 0 Z " fill="#8456A6" transform="translate(656,555)"/>
<path d="M0 0 C6.33333333 0 12.66666667 0 19 0 C19 3.3 19 6.6 19 10 C17.2984375 10.2165625 17.2984375 10.2165625 15.5625 10.4375 C12.19222799 10.61171478 12.19222799 10.61171478 11 12 C10.76298761 14.85877909 10.57780818 17.69883297 10.4375 20.5625 C10.39431641 21.36880859 10.35113281 22.17511719 10.30664062 23.00585938 C10.20024738 25.00368805 10.09959112 27.0018207 10 29 C6.7 29 3.4 29 0 29 C0 19.43 0 9.86 0 0 Z " fill="#8456A6" transform="translate(595,555)"/>
</svg>
