<?xml version="1.0" encoding="UTF-8"?>
<svg version="1.1" xmlns="http://www.w3.org/2000/svg" width="1080" height="1080">
<path d="M0 0 C13.60563826 -0.04662144 27.21125709 -0.08201918 40.81695938 -0.10362434 C47.13662821 -0.11400085 53.45624183 -0.12804614 59.77587891 -0.15087891 C65.89025149 -0.17282836 72.00457143 -0.18461456 78.11898041 -0.18975449 C80.43580706 -0.193411 82.75263128 -0.20054937 85.06943512 -0.21146011 C136.64111268 -0.44436901 136.64111268 -0.44436901 153.8125 14.4375 C154.534375 15.283125 155.25625 16.12875 156 17 C156.48984375 17.52335937 156.9796875 18.04671875 157.484375 18.5859375 C167.25613911 29.27682794 169.70289293 43.53710019 169.28125 57.71484375 C168.17065782 70.68717741 165.28468419 83.22039155 155 92 C154.52304687 92.46664062 154.04609375 92.93328125 153.5546875 93.4140625 C148.41293833 98.25773926 142.3645368 101.05287459 136 104 C136.5053125 104.40992188 137.010625 104.81984375 137.53125 105.2421875 C138.1809375 105.78101563 138.830625 106.31984375 139.5 106.875 C140.1496875 107.40867187 140.799375 107.94234375 141.46875 108.4921875 C141.9740625 108.98976563 142.479375 109.48734375 143 110 C143 110.66 143 111.32 143 112 C143.57234375 112.2578125 144.1446875 112.515625 144.734375 112.78125 C147.21128995 114.11365942 149.1341166 115.65056118 151.25 117.5 C151.95640625 118.1084375 152.6628125 118.716875 153.390625 119.34375 C155 121 155 121 155 123 C155.56203125 123.2475 156.1240625 123.495 156.703125 123.75 C159.39092569 125.21274867 161.46405482 126.96804873 163.75 129 C164.54921875 129.70125 165.3484375 130.4025 166.171875 131.125 C168 133 168 133 168 135 C168.598125 135.268125 169.19625 135.53625 169.8125 135.8125 C172.01819033 137.00987475 173.43583187 138.04478984 175 140 C175 140.99 175 141.98 175 143 C167.81525131 143.30641896 160.63220683 143.51526808 153.44238281 143.65917969 C151.00163838 143.71921387 148.56131987 143.80087487 146.12207031 143.90527344 C123.62885052 144.84325726 123.62885052 144.84325726 117.08099365 138.82757568 C114.83148783 136.34871351 112.93196697 133.73512133 111 131 C108.90165434 128.974539 108.90165434 128.974539 106.9375 127.4375 C102.57332973 123.73069429 98.61175175 119.64183572 94.61328125 115.55078125 C92.05184139 112.9561364 92.05184139 112.9561364 89.16796875 110.79296875 C88.09482422 109.90544922 88.09482422 109.90544922 87 109 C87 108.34 87 107.68 87 107 C71.16 107 55.32 107 39 107 C39.03960147 118.47353412 39.03960147 118.47353412 39.09008789 129.94702148 C39.09300711 131.38004482 39.09555566 132.81306898 39.09765625 134.24609375 C39.10277222 134.99669067 39.10788818 135.7472876 39.11315918 136.52062988 C39.11346992 138.34747601 39.06231113 140.17421683 39 142 C38 143 38 143 34.39819336 143.11352539 C32.79540144 143.11336625 31.1926044 143.10767063 29.58984375 143.09765625 C28.74780899 143.0962413 27.90577423 143.09482635 27.03822327 143.09336853 C24.33794665 143.08775263 21.63775172 143.07519748 18.9375 143.0625 C17.11132932 143.05748705 15.28515734 143.05292379 13.45898438 143.04882812 C8.97262458 143.03777804 4.48632616 143.02050279 0 143 C-1.31271105 140.37457789 -1.12589711 138.43717802 -1.12698364 135.49597168 C-1.12980347 134.32654526 -1.13262329 133.15711884 -1.13552856 131.95225525 C-1.13350433 130.66283524 -1.1314801 129.37341522 -1.12939453 128.04492188 C-1.13074899 126.67843072 -1.13252918 125.31193993 -1.13470459 123.94544983 C-1.13927357 120.2286013 -1.13749155 116.51178044 -1.1343255 112.79493141 C-1.13179915 108.91077218 -1.13414021 105.02661537 -1.13571167 101.14245605 C-1.13753256 94.61889214 -1.13512917 88.09533954 -1.13037109 81.57177734 C-1.12492863 74.02255138 -1.12669134 66.47335241 -1.1321975 58.9241271 C-1.13673092 52.45022141 -1.13737805 45.97632386 -1.13475883 39.50241709 C-1.13319732 35.63246118 -1.13299885 31.76251797 -1.13629532 27.89256287 C-1.13917735 24.25483876 -1.1371922 20.61714957 -1.13140106 16.97942924 C-1.12944124 15.00220157 -1.13242456 13.02497096 -1.13552856 11.04774475 C-1.13270874 9.87831833 -1.12988892 8.70889191 -1.12698364 7.50402832 C-1.12660662 6.48343575 -1.12622959 5.46284317 -1.12584114 4.41132355 C-1 2 -1 2 0 0 Z M39 38 C39 48.56 39 59.12 39 70 C51.57713954 70.05824006 51.57713954 70.05824006 64.15429688 70.09765625 C69.28934906 70.10957894 74.42432944 70.12363364 79.55932617 70.15087891 C83.70255886 70.17272273 87.84571446 70.18459281 91.98900032 70.18975449 C93.56412022 70.19342963 95.13923625 70.20060591 96.71432304 70.21146011 C110.77103271 70.80504535 110.77103271 70.80504535 123.4375 65.75 C127.11484734 61.80357846 127.83985968 58.79357154 128.3125 53.5 C127.86058467 48.43854826 126.34418481 45.38259009 122.8125 41.75 C117.09486538 38.19236068 110.99314572 37.7500238 104.390625 37.77294922 C103.67744614 37.77265717 102.96426727 37.77236511 102.22947693 37.77206421 C99.90285511 37.77344299 97.57656496 37.78893458 95.25 37.8046875 C93.62475764 37.80842281 91.99951301 37.81126733 90.37426758 37.81326294 C86.11966615 37.82085863 81.86520368 37.8404717 77.61065674 37.8626709 C72.49356456 37.88683691 67.37642564 37.89592968 62.2592926 37.90757751 C54.50609875 37.92689887 46.75320914 37.96524956 39 38 Z " fill="#322B2A" transform="translate(510,422)"/>
<path d="M0 0 C0.85365646 -0.0033284 1.70731293 -0.0066568 2.58683777 -0.01008606 C4.38951077 -0.01512412 6.19219301 -0.01749536 7.99487305 -0.01733398 C10.68490049 -0.01949465 13.37449942 -0.03761201 16.06445312 -0.05664062 C24.82455732 -0.08591122 33.48812499 0.14771738 42.20703125 1.0390625 C43.33592522 1.15251762 43.33592522 1.15251762 44.48762512 1.26826477 C58.28954847 2.84314922 72.52836453 7.47425283 81.91796875 18.16796875 C82.40910156 18.67972656 82.90023437 19.19148438 83.40625 19.71875 C92.10269702 29.10573375 93.91796875 39.72804033 93.91796875 52.16796875 C81.04796875 52.16796875 68.17796875 52.16796875 54.91796875 52.16796875 C53.59796875 49.19796875 52.27796875 46.22796875 50.91796875 43.16796875 C45.90356382 38.15356382 38.42453777 38.92417735 31.80026245 38.89007568 C30.4959024 38.89412415 29.19154236 38.89817261 27.84765625 38.90234375 C26.47958304 38.90099443 25.1115103 38.89905168 23.74343872 38.89654541 C20.88734333 38.89360868 18.03137366 38.89784612 15.17529297 38.90722656 C11.52253701 38.91864206 7.87007434 38.91203936 4.21732903 38.90008163 C1.39655359 38.89284216 -1.42415271 38.89516015 -4.24493027 38.90033722 C-6.24402814 38.90231086 -8.24312874 38.89626124 -10.24221802 38.89007568 C-11.46053314 38.89638 -12.67884827 38.90268433 -13.93408203 38.90917969 C-15.00328888 38.91077087 -16.07249573 38.91236206 -17.17410278 38.91400146 C-20.20304467 39.1785376 -22.37177985 39.80779205 -25.08203125 41.16796875 C-26.41989625 42.93577511 -26.41989625 42.93577511 -26.08203125 45.16796875 C-23.98128095 48.56148847 -22.45592055 49.81955149 -18.57226562 50.80444336 C-9.6360289 52.1453121 -0.7620684 52.6412617 8.25418091 53.00140381 C67.6987847 55.43803877 67.6987847 55.43803877 83.85546875 70.48046875 C92.65821174 80.20642624 94.51235255 91.04294905 94.23046875 103.70703125 C93.71502477 113.91711733 89.27039415 122.07092747 81.953125 129.0390625 C67.27494965 141.38147035 47.20514824 143.29186396 28.734375 143.37109375 C27.67999741 143.37679382 26.62561981 143.3824939 25.53929138 143.3883667 C23.31469714 143.39776933 21.09008926 143.40433171 18.86547852 143.40820312 C15.52138844 143.4178507 12.17792918 143.4488965 8.83398438 143.48046875 C-12.15665708 143.5847863 -35.26665931 142.66759099 -51.70703125 127.79296875 C-52.49078125 126.92671875 -53.27453125 126.06046875 -54.08203125 125.16796875 C-54.56414063 124.71292969 -55.04625 124.25789062 -55.54296875 123.7890625 C-64.28163576 114.9394987 -65.08203125 104.08880524 -65.08203125 92.16796875 C-52.21203125 92.16796875 -39.34203125 92.16796875 -26.08203125 92.16796875 C-25.09203125 94.80796875 -24.10203125 97.44796875 -23.08203125 100.16796875 C-20.65685245 102.15880052 -20.65685245 102.15880052 -18.08203125 103.16796875 C-17.09203125 103.66296875 -17.09203125 103.66296875 -16.08203125 104.16796875 C-14.00978515 104.26474008 -11.93436721 104.29593552 -9.85986328 104.29736328 C-7.89740158 104.30209152 -7.89740158 104.30209152 -5.89529419 104.30691528 C-4.4601437 104.30512508 -3.02499352 104.30307402 -1.58984375 104.30078125 C-0.12254826 104.30145472 1.34474713 104.30242511 2.81204224 104.30368042 C5.89049337 104.30515629 8.96891552 104.30300701 12.04736328 104.29833984 C15.99062353 104.29265264 19.93381556 104.29591584 23.87707329 104.30191231 C26.90882885 104.30552947 29.94056831 104.30437384 32.97232437 104.30178452 C34.42596571 104.30111792 35.87960851 104.30193432 37.33324814 104.30426407 C39.36783571 104.30680836 41.40242841 104.30224178 43.43701172 104.29736328 C44.59457977 104.29656769 45.75214783 104.29577209 46.9447937 104.29495239 C49.45957273 104.18754674 51.52611065 103.90566771 53.91796875 103.16796875 C54.33522553 99.79396297 54.33522553 99.79396297 53.91796875 96.16796875 C43.84770235 88.36257639 27.24521603 89.87644157 15.10546875 89.60546875 C-38.89562213 88.39934783 -38.89562213 88.39934783 -56.08203125 72.98046875 C-57.6171875 71.1796875 -57.6171875 71.1796875 -59.08203125 69.16796875 C-59.94634766 68.06388672 -59.94634766 68.06388672 -60.828125 66.9375 C-67.30348221 56.8132117 -66.55740031 43.70595698 -65.08203125 32.16796875 C-63.44130922 25.32937941 -59.52541856 19.57452038 -54.08203125 15.16796875 C-53.53160156 14.69101562 -52.98117188 14.2140625 -52.4140625 13.72265625 C-42.1144726 5.27062165 -29.9208439 2.91246237 -17.08203125 1.16796875 C-15.86523682 0.99450928 -14.64844238 0.8210498 -13.39477539 0.64233398 C-8.92332481 0.09028631 -4.50126321 0.0062934 0 0 Z " fill="#322B2A" transform="translate(65.08203125,421.83203125)"/>
<path d="M0 0 C2.98563747 0.00317439 5.97029339 -0.02046316 8.95581055 -0.0456543 C32.0225223 -0.12126529 55.68893131 2.89933676 73.55932617 18.80004883 C74.92260742 20.31567383 74.92260742 20.31567383 74.92260742 22.31567383 C75.58260742 22.31567383 76.24260742 22.31567383 76.92260742 22.31567383 C90.11284283 38.59581325 93.30939405 61.46236412 91.64135742 81.73364258 C90.05442252 95.2378482 86.06899008 107.72429027 78.92260742 119.31567383 C78.26260742 119.31567383 77.60260742 119.31567383 76.92260742 119.31567383 C76.58229492 120.15098633 76.58229492 120.15098633 76.23510742 121.00317383 C74.54710706 123.9772697 72.45584226 126.03576248 69.92260742 128.31567383 C69.26260742 128.31567383 68.60260742 128.31567383 67.92260742 128.31567383 C67.92260742 128.97567383 67.92260742 129.63567383 67.92260742 130.31567383 C51.08893644 139.53837655 35.21840417 143.44326187 15.96166992 143.51879883 C14.24480484 143.52734894 14.24480484 143.52734894 12.49325562 143.53607178 C10.07437046 143.54548882 7.65547266 143.5520426 5.23657227 143.5559082 C1.59391903 143.56555123 -2.0481542 143.5965813 -5.69067383 143.62817383 C-29.91577595 143.73875244 -53.78193597 141.98337549 -72.38989258 124.50317383 C-84.27230051 111.89178381 -89.06909135 94.27346719 -90.07739258 77.31567383 C-90.13024414 76.54868164 -90.1830957 75.78168945 -90.23754883 74.99145508 C-90.83838684 57.93288026 -87.06407601 35.31328237 -75.07739258 22.31567383 C-74.41739258 22.31567383 -73.75739258 22.31567383 -73.07739258 22.31567383 C-73.07739258 21.65567383 -73.07739258 20.99567383 -73.07739258 20.31567383 C-53.52924515 0.72248458 -25.88522034 -0.05737632 0 0 Z M-39.07739258 42.31567383 C-39.07739258 42.97567383 -39.07739258 43.63567383 -39.07739258 44.31567383 C-39.73739258 44.31567383 -40.39739258 44.31567383 -41.07739258 44.31567383 C-42.38397137 45.78707643 -42.38397137 45.78707643 -43.57739258 47.75317383 C-44.21161133 48.71030273 -44.21161133 48.71030273 -44.85864258 49.68676758 C-50.16571463 61.13439414 -50.40840121 78.98061469 -46.45239258 90.81567383 C-43.5473991 97.09453692 -39.98250932 101.95747707 -33.45866394 104.66946411 C-28.02143037 106.14497556 -22.27109335 105.76522434 -16.67504883 105.74926758 C-15.26932017 105.75383604 -13.86359373 105.75914358 -12.45787048 105.76515198 C-9.52016086 105.77405624 -6.58272347 105.77169099 -3.64501953 105.76171875 C0.10185931 105.75023305 3.84779509 105.7704468 7.59455013 105.79963589 C10.4952634 105.81806665 13.39575351 105.81769188 16.2965107 105.81199837 C17.67708217 105.81184599 19.05766957 105.817821 20.43818474 105.83028984 C28.34728107 105.8916713 34.2188019 105.71625154 40.92260742 101.31567383 C49.37337705 92.8649042 50.10211582 83.29530908 50.11010742 72.00317383 C50.12235352 71.10405273 50.13459961 70.20493164 50.1472168 69.27856445 C50.16897843 59.2464508 48.71203633 51.03304291 41.92260742 43.31567383 C36.69036469 39.21350512 31.57617643 38.19743432 25.08764648 38.15454102 C23.91252502 38.14493347 22.73740356 38.13532593 21.52667236 38.12542725 C20.25998718 38.12117737 18.993302 38.11692749 17.68823242 38.11254883 C16.38110291 38.10684875 15.07397339 38.10114868 13.72723389 38.09527588 C10.95999769 38.08478418 8.19279038 38.07892997 5.42553711 38.07543945 C1.89735333 38.0699672 -1.63044211 38.04595916 -5.15850449 38.0174675 C-8.54291734 37.9942429 -11.92727924 37.99238478 -15.31176758 37.98754883 C-16.57035583 37.97520203 -17.82894409 37.96285522 -19.12567139 37.95013428 C-26.81959586 37.96957491 -32.18606608 38.87001058 -39.07739258 42.31567383 Z " fill="#322B2A" transform="translate(404.077392578125,421.684326171875)"/>
<path d="M0 0 C6.44038383 -0.25403922 12.87947378 -0.428854 19.32373047 -0.54931641 C21.51432563 -0.59953712 23.70458667 -0.66773196 25.89404297 -0.75439453 C29.0473862 -0.87606234 32.1962969 -0.93246956 35.3515625 -0.9765625 C36.8144017 -1.05398178 36.8144017 -1.05398178 38.30679321 -1.13296509 C41.19099661 -1.1353317 43.29930753 -1.02541756 46 0 C48.70592424 3.0356162 50.34279866 6.31042215 52 10 C52.67889579 11.30781967 53.36241682 12.61327309 54.0546875 13.9140625 C54.66560169 15.14900062 55.27232333 16.38602093 55.875 17.625 C56.55978413 19.01307594 57.24468328 20.40109515 57.9296875 21.7890625 C58.27225586 22.48676758 58.61482422 23.18447266 58.96777344 23.90332031 C60.62874066 27.27711088 62.31529201 30.63802019 64 34 C64.66679696 35.33326818 65.33346346 36.66660161 66 38 C66.33 38.66 66.66 39.32 67 40 C70 46 70 46 70.99926758 47.9987793 C71.66811542 49.3363118 72.33722483 50.67371354 73.0065918 52.01098633 C74.64202288 55.27906783 76.27332176 58.54905654 77.89453125 61.82421875 C81.66113069 69.41820036 85.53883237 76.94301424 89.5 84.4375 C93.24553759 91.52914521 96.78950867 98.6754916 100.14794922 105.95751953 C102.32981665 110.658911 104.66361142 115.25153702 107.125 119.8125 C107.61939575 120.72938599 107.61939575 120.72938599 108.1237793 121.66479492 C108.76894391 122.86024227 109.41420551 124.05563728 110.05957031 125.25097656 C111.56488468 128.05057993 113.04301112 130.86244645 114.5 133.6875 C114.9846875 134.61949219 115.469375 135.55148437 115.96875 136.51171875 C117 139 117 139 117 143 C102.81 143 88.62 143 74 143 C71.03 136.73 68.06 130.46 65 124 C63.35 120.7 61.7 117.4 60 114 C23.37 113.505 23.37 113.505 -14 113 C-14.66 114.98 -15.32 116.96 -16 119 C-16.82434259 120.87467472 -17.68082212 122.73549754 -18.56640625 124.58203125 C-19.05173828 125.59587891 -19.53707031 126.60972656 -20.03710938 127.65429688 C-20.54048828 128.69650391 -21.04386719 129.73871094 -21.5625 130.8125 C-22.06974609 131.87404297 -22.57699219 132.93558594 -23.09960938 134.02929688 C-26.86414717 141.86414717 -26.86414717 141.86414717 -28 143 C-29.35094982 143.09268999 -30.70667091 143.11747326 -32.06079102 143.11352539 C-32.92160782 143.11344986 -33.78242462 143.11337433 -34.66932678 143.11329651 C-35.60473801 143.10813522 -36.54014923 143.10297394 -37.50390625 143.09765625 C-38.45692123 143.0962413 -39.40993622 143.09482635 -40.39183044 143.09336853 C-43.44875165 143.08775152 -46.50560077 143.07519616 -49.5625 143.0625 C-51.62955624 143.05748719 -53.69661362 143.05292391 -55.76367188 143.04882812 C-60.84247588 143.03777656 -65.9212257 143.02050055 -71 143 C-70.20088335 138.45711646 -68.54948446 134.75607374 -66.4375 130.6875 C-65.69900183 129.23969396 -64.96072616 127.79177441 -64.22265625 126.34375 C-63.8477002 125.61285156 -63.47274414 124.88195312 -63.08642578 124.12890625 C-62.10550446 122.20674132 -61.13976488 120.27831649 -60.18359375 118.34375 C-55.34692515 108.55817779 -50.32466161 98.87124864 -45.27490234 89.1940918 C-41.17145192 81.31539677 -37.16998565 73.38940788 -33.21270752 65.43670654 C-29.1812794 57.33631374 -25.1403308 49.24065709 -21.09985352 41.14477539 C-19.9891155 38.9182424 -18.87909255 36.69135256 -17.76977539 34.46411133 C-5.88378168 10.6028871 -5.88378168 10.6028871 0 0 Z M23 35 C18.30542604 44.15310788 13.83391127 53.39128991 9.5625 62.75 C9.12566895 63.70213379 8.68883789 64.65426758 8.23876953 65.63525391 C7.83126465 66.53421387 7.42375977 67.43317383 7.00390625 68.359375 C6.64111572 69.15827148 6.2783252 69.95716797 5.90454102 70.78027344 C4.83756743 73.24881105 4.83756743 73.24881105 4 77 C16.87 77 29.74 77 43 77 C41.54838693 72.64516079 40.09226081 68.90366846 38.1015625 64.82421875 C37.53953125 63.66599609 36.9775 62.50777344 36.3984375 61.31445312 C35.80751983 60.10535721 35.21637265 58.89637345 34.625 57.6875 C30.96369858 50.17284229 27.33573556 42.66561892 24 35 C23.67 35 23.34 35 23 35 Z " fill="#322B2A" transform="translate(808,422)"/>
<path d="M0 0 C18.49723049 -0.02254618 36.99444991 -0.04097868 55.49169064 -0.05181217 C64.07967049 -0.05697534 72.66764123 -0.06401844 81.25561523 -0.07543945 C88.73815417 -0.08538565 96.22068651 -0.09185327 103.70323187 -0.09408849 C107.66764586 -0.09539571 111.63204095 -0.09848226 115.5964489 -0.10573006 C119.32360213 -0.11248926 123.05072857 -0.11461717 126.77788734 -0.11310768 C128.14975505 -0.11338406 129.5216236 -0.11538978 130.89348602 -0.11920547 C132.75860963 -0.12414108 134.62374744 -0.12239794 136.48887634 -0.12025452 C137.53511138 -0.12117631 138.58134642 -0.1220981 139.65928555 -0.12304783 C142 0 142 0 143 1 C143.10095564 3.65456193 143.13970998 6.28255176 143.1328125 8.9375 C143.13376923 9.732771 143.13472595 10.52804199 143.13571167 11.34741211 C143.13639343 13.0320646 143.13453943 14.71671971 143.13037109 16.40136719 C143.12502275 18.98899197 143.13031619 21.57644316 143.13671875 24.1640625 C143.13605797 25.79687539 143.1347768 27.42968816 143.1328125 29.0625 C143.13483673 29.84165771 143.13686096 30.62081543 143.13894653 31.42358398 C143.11495105 36.88504895 143.11495105 36.88504895 142 38 C124.84 38 107.68 38 90 38 C90 72.65 90 107.3 90 143 C77.13 143 64.26 143 51 143 C51 108.35 51 73.7 51 38 C34.17 38 17.34 38 0 38 C0 25.46 0 12.92 0 0 Z " fill="#322B2A" transform="translate(166,422)"/>
<path d="M0 0 C2.13315397 0.02147307 4.26294249 0.00006698 6.39599609 -0.02539062 C23.30296675 -0.06139822 38.50111047 5.83169739 51.63427734 16.52148438 C51.63427734 17.18148438 51.63427734 17.84148437 51.63427734 18.52148438 C52.19115234 18.74835938 52.74802734 18.97523438 53.32177734 19.20898438 C56.29587322 20.89698474 58.35436599 22.98824954 60.63427734 25.52148438 C60.63427734 26.18148438 60.63427734 26.84148437 60.63427734 27.52148438 C61.29427734 27.52148438 61.95427734 27.52148438 62.63427734 27.52148438 C64.18029951 29.57474761 65.57634207 31.60432365 66.94677734 33.77148438 C67.34904541 34.40393066 67.75131348 35.03637695 68.16577148 35.68798828 C74.91111352 46.55616389 79.04612368 57.68701466 78.75927734 70.52148438 C78.71802734 73.16148437 78.67677734 75.80148437 78.63427734 78.52148438 C69.72427734 78.52148438 60.81427734 78.52148438 51.63427734 78.52148438 C51.28365234 76.00523437 50.93302734 73.48898437 50.57177734 70.89648438 C48.54662975 58.56830914 43.73249514 47.37175108 33.63427734 39.52148438 C28.50355349 35.89173177 23.4942683 32.80278479 17.63427734 30.52148438 C17.62619049 31.1161702 17.61810364 31.71085602 17.60977173 32.32356262 C17.52382186 38.50409608 17.42432261 44.68430527 17.31689453 50.86450195 C17.27857319 53.17206381 17.24372593 55.47968606 17.21240234 57.78735352 C17.16682053 61.10129401 17.10881447 64.41481764 17.04833984 67.72851562 C17.03678864 68.76297318 17.02523743 69.79743073 17.01333618 70.86323547 C16.99346649 71.82400497 16.9735968 72.78477448 16.953125 73.7746582 C16.93980133 74.62071121 16.92647766 75.46676422 16.91275024 76.3384552 C16.63427734 78.52148438 16.63427734 78.52148438 14.63427734 81.52148438 C13.97427734 81.52148438 13.31427734 81.52148438 12.63427734 81.52148438 C12.63427734 82.18148437 12.63427734 82.84148437 12.63427734 83.52148438 C10.44677734 85.24804688 10.44677734 85.24804688 7.63427734 87.14648438 C6.70615234 87.778125 5.77802734 88.40976562 4.82177734 89.06054688 C4.09990234 89.54265625 3.37802734 90.02476562 2.63427734 90.52148438 C0.26159453 89.23628119 -2.04985736 87.90337804 -4.36572266 86.52148438 C-5.06052734 86.14551117 -5.75533203 85.76953796 -6.47119141 85.38217163 C-9.74238621 83.35709376 -11.97264105 81.83549355 -13.10400391 78.05352783 C-13.38821965 75.00954271 -13.42157124 72.05480089 -13.36572266 68.99804688 C-13.37659912 67.89673431 -13.38747559 66.79542175 -13.39868164 65.66073608 C-13.42480612 62.15498599 -13.39601443 58.65215621 -13.36572266 55.14648438 C-13.37381538 52.76495888 -13.38549334 50.38344268 -13.40087891 48.00195312 C-13.43070834 42.17459814 -13.41549742 36.34867396 -13.36572266 30.52148438 C-15.60926488 31.6152701 -17.84953932 32.7150218 -20.08837891 33.81835938 C-20.71893188 34.12499512 -21.34948486 34.43163086 -21.99914551 34.74755859 C-33.54574532 40.45869899 -40.41783404 49.40060015 -44.67822266 61.52148438 C-46.49346605 67.17255882 -47.2797611 72.54869583 -48.36572266 78.52148438 C-57.27572266 78.52148438 -66.18572266 78.52148438 -75.36572266 78.52148438 C-75.36572266 55.9434085 -68.82626915 38.55242796 -53.72509766 21.68945312 C-52.36572266 20.52148438 -52.36572266 20.52148438 -50.36572266 20.52148438 C-50.36572266 19.86148437 -50.36572266 19.20148438 -50.36572266 18.52148438 C-48.90478516 17.23242188 -48.90478516 17.23242188 -46.99072266 15.89648438 C-46.36423828 15.45046875 -45.73775391 15.00445312 -45.09228516 14.54492188 C-43.36572266 13.52148438 -43.36572266 13.52148438 -41.36572266 13.52148438 C-41.36572266 12.86148437 -41.36572266 12.20148438 -41.36572266 11.52148438 C-39.30974671 10.42414189 -37.24702589 9.34419716 -35.17822266 8.27148438 C-34.02966797 7.66820312 -32.88111328 7.06492187 -31.69775391 6.44335938 C-21.29037857 1.59214291 -11.37817041 -0.13579639 0 0 Z " fill="#FE9D00" transform="translate(1001.36572265625,412.478515625)"/>
<path d="M0 0 C29.7 0 59.4 0 90 0 C91.16581918 2.33163836 91.12905609 3.72153482 91.1328125 6.31640625 C91.13410156 7.16267578 91.13539063 8.00894531 91.13671875 8.88085938 C91.13285156 9.76580078 91.12898438 10.65074219 91.125 11.5625 C91.12886719 12.45130859 91.13273437 13.34011719 91.13671875 14.25585938 C91.13542969 15.10083984 91.13414062 15.94582031 91.1328125 16.81640625 C91.13168457 17.59443604 91.13055664 18.37246582 91.12939453 19.17407227 C91 21 91 21 90 22 C87.91380978 22.09417773 85.82439523 22.11742878 83.73608398 22.11352539 C82.7556311 22.11374443 82.7556311 22.11374443 81.75537109 22.1139679 C79.58557872 22.11326883 77.41587121 22.10547678 75.24609375 22.09765625 C73.74536689 22.09579205 72.24463943 22.09436816 70.74391174 22.09336853 C66.78681774 22.08954352 62.82976022 22.0797134 58.87268066 22.06866455 C54.83765151 22.05845006 50.80261647 22.05387083 46.76757812 22.04882812 C38.84503531 22.03809111 30.92252219 22.0210149 23 22 C23 24.97 23 27.94 23 31 C45.11 31 67.22 31 90 31 C90.91300909 33.73902726 91.12846608 35.3744827 91.1328125 38.1953125 C91.13410156 38.99324219 91.13539063 39.79117188 91.13671875 40.61328125 C91.13285156 41.44214844 91.12898438 42.27101563 91.125 43.125 C91.12886719 43.96160156 91.13273437 44.79820312 91.13671875 45.66015625 C91.12664874 51.87335126 91.12664874 51.87335126 90 53 C87.91380978 53.09417773 85.82439523 53.11742878 83.73608398 53.11352539 C82.7556311 53.11374443 82.7556311 53.11374443 81.75537109 53.1139679 C79.58557872 53.11326883 77.41587121 53.10547678 75.24609375 53.09765625 C73.74536689 53.09579205 72.24463943 53.09436816 70.74391174 53.09336853 C66.78681774 53.08954352 62.82976022 53.0797134 58.87268066 53.06866455 C54.83765151 53.05845006 50.80261647 53.05387083 46.76757812 53.04882812 C38.84503531 53.03809111 30.92252219 53.0210149 23 53 C23 55.64 23 58.28 23 61 C23.8224118 60.99333817 24.64482361 60.98667633 25.49215698 60.97981262 C33.23220816 60.91977001 40.97214686 60.8740607 48.71236992 60.84456348 C52.69197374 60.82888899 56.67138559 60.80761862 60.65087891 60.77368164 C64.48934956 60.74115113 68.32763524 60.72316043 72.16623306 60.71536827 C73.63272134 60.70981334 75.09919918 60.69896621 76.56560898 60.68280983 C78.61541591 60.66111839 80.66445275 60.65802945 82.71435547 60.65942383 C83.88239716 60.65276199 85.05043884 60.64610016 86.25387573 60.63923645 C87.16009674 60.75828842 88.06631775 60.87734039 89 61 C91 64 91 64 91 83 C60.97 83 30.94 83 0 83 C0 55.61 0 28.22 0 0 Z " fill="#312A29" transform="translate(114,584)"/>
<path d="M0 0 C11.240625 -0.0825 22.48125 -0.165 34.0625 -0.25 C37.58043213 -0.28641602 41.09836426 -0.32283203 44.72290039 -0.36035156 C49.09851074 -0.37841797 49.09851074 -0.37841797 51.16233826 -0.3817749 C52.57006424 -0.38782179 53.97777272 -0.40168523 55.38536072 -0.42230225 C67.42867347 -0.58951324 80.42852246 -0.17517523 90.1875 7.75 C97.74934766 15.3830515 99.28730001 23.376204 99.3190918 33.78271484 C99.18462412 41.43956442 97.01635834 46.94665736 92.8125 53.3125 C89.24797838 56.71859844 85.39979127 58.83365397 81 61 C85.85474212 65.95588258 90.7287405 70.77568926 96.078125 75.19921875 C98.64675635 77.60600544 100.76078947 80.28322292 103 83 C98.51598515 83.07427649 94.03229826 83.12866111 89.54785156 83.16479492 C88.0230485 83.17986151 86.49828864 83.20031876 84.97363281 83.22631836 C82.77918834 83.26279706 80.58531784 83.27974714 78.390625 83.29296875 C76.4111084 83.31653442 76.4111084 83.31653442 74.39160156 83.34057617 C70.86655851 82.98660014 69.42750773 82.53578228 67 80 C67 79.34 67 78.68 67 78 C66.443125 77.773125 65.88625 77.54625 65.3125 77.3125 C62.33840412 75.62449964 60.27991135 73.53323483 58 71 C58 70.34 58 69.68 58 69 C57.401875 68.731875 56.80375 68.46375 56.1875 68.1875 C54 67 54 67 52.75073242 65.4440918 C50.15745028 63.30502279 48.11808601 63.66030865 44.80078125 63.70703125 C42.98803711 63.7215332 42.98803711 63.7215332 41.13867188 63.73632812 C39.2447168 63.7740332 39.2447168 63.7740332 37.3125 63.8125 C36.03826172 63.82603516 34.76402344 63.83957031 33.45117188 63.85351562 C30.30060175 63.88891529 27.15024834 63.94272276 24 64 C23.67 70.27 23.34 76.54 23 83 C15.41 83 7.82 83 0 83 C0 55.61 0 28.22 0 0 Z M23 23 C23 28.61 23 34.22 23 40 C29.62023555 40.09885488 36.24004179 40.17146298 42.86083984 40.21972656 C45.11319461 40.23984556 47.36549713 40.26714408 49.61767578 40.30175781 C52.85462331 40.35026209 56.09088047 40.37296605 59.328125 40.390625 C60.33554749 40.41127014 61.34296997 40.43191528 62.38092041 40.45318604 C67.87105485 40.53861556 67.87105485 40.53861556 72.63598633 38.11645508 C74.21060546 35.67321662 74.51082418 34.32647263 74.4375 31.4375 C74.43621094 30.67308594 74.43492187 29.90867187 74.43359375 29.12109375 C73.89239779 26.47362162 73.15247977 25.60581824 71 24 C68.11674156 23.09529109 65.5188345 22.87781944 62.50683594 22.88647461 C61.62622498 22.88655014 60.74561401 22.88662567 59.83831787 22.88670349 C58.42561615 22.89444542 58.42561615 22.89444542 56.984375 22.90234375 C56.01340881 22.9037587 55.04244263 22.90517365 54.04205322 22.90663147 C50.94467065 22.91222337 47.84736068 22.92477441 44.75 22.9375 C42.64843854 22.94251605 40.54687596 22.94707877 38.4453125 22.95117188 C33.29684708 22.96219015 28.14843584 22.97944926 23 23 Z " fill="#322B2A" transform="translate(214,584)"/>
<path d="M0 0 C34 0 34 0 41.6875 6.5 C44.05859375 10.359375 44.05859375 10.359375 45.03857422 12.25585938 C46.42012112 14.76214965 48.2755482 16.69565709 50.25 18.75 C53 21.76190476 53 21.76190476 53 24 C53.66 24 54.32 24 55 24 C56.45659977 25.61382948 57.84048951 27.29363216 59.1875 29 C62.59707271 33.27575866 66.08991176 37.41099219 69.78515625 41.44140625 C71 43 71 43 71 45 C71.66 45 72.32 45 73 45 C74.43581474 46.61457079 75.80144783 48.29219075 77.125 50 C78.21167969 51.3921875 78.21167969 51.3921875 79.3203125 52.8125 C79.87460937 53.534375 80.42890625 54.25625 81 55 C81.01030746 54.34045319 81.02061493 53.68090637 81.03123474 53.00137329 C81.13915379 46.1560851 81.25376339 39.31093246 81.37231445 32.46582031 C81.41571022 29.90888293 81.4573818 27.35191569 81.49731445 24.79492188 C81.55490469 21.12621041 81.61863138 17.45764989 81.68359375 13.7890625 C81.70030624 12.64007477 81.71701874 11.49108704 81.73423767 10.30728149 C81.75418289 9.2463327 81.77412811 8.18538391 81.79467773 7.09228516 C81.81022202 6.15518707 81.8257663 5.21808899 81.84178162 4.25259399 C82 2 82 2 83 0 C90.26 0 97.52 0 105 0 C105 27.39 105 54.78 105 83 C93.78 83 82.56 83 71 83 C51 61.18181818 51 61.18181818 51 58 C50.34 58 49.68 58 49 58 C47.58561594 56.42713316 46.24395599 54.78860004 44.9375 53.125 C41.02954039 48.22101822 36.93975535 43.5766617 32.65234375 38.99609375 C31 37 31 37 31 35 C30.34 35 29.68 35 29 35 C27.61767557 33.37373596 26.28062485 31.7074998 25 30 C24.98969254 30.64923935 24.97938507 31.2984787 24.96876526 31.96739197 C24.86093864 38.69899052 24.74632219 45.4304487 24.62768555 52.16186523 C24.58425994 54.67713496 24.54259071 57.19243563 24.50268555 59.70776367 C24.44516707 63.31438544 24.38142033 66.92085031 24.31640625 70.52734375 C24.29133751 72.22575661 24.29133751 72.22575661 24.26576233 73.95848083 C24.24581711 74.99948441 24.22587189 76.04048798 24.20532227 77.11303711 C24.18977798 78.03459091 24.1742337 78.95614471 24.15821838 79.90562439 C24 82 24 82 23 83 C15.41 83 7.82 83 0 83 C0 55.61 0 28.22 0 0 Z " fill="#322B2A" transform="translate(353,584)"/>
<path d="M0 0 C2.17243863 0.00849842 4.3422237 -0.02035754 6.5144043 -0.05200195 C18.5849022 -0.11233144 33.19937661 0.73221784 42.37182617 9.44604492 C42.37182617 10.10604492 42.37182617 10.76604492 42.37182617 11.44604492 C43.03182617 11.44604492 43.69182617 11.44604492 44.37182617 11.44604492 C47.72029501 17.47576002 50.12352844 22.4937083 50.37182617 29.44604492 C50.04182617 30.10604492 49.71182617 30.76604492 49.37182617 31.44604492 C41.78182617 31.44604492 34.19182617 31.44604492 26.37182617 31.44604492 C25.38182617 29.46604492 24.39182617 27.48604492 23.37182617 25.44604492 C20.66558247 24.54396369 19.13331632 24.32376893 16.359375 24.33251953 C15.55877151 24.33259506 14.75816803 24.33267059 13.93330383 24.33274841 C12.64410286 24.34049034 12.64410286 24.34049034 11.32885742 24.34838867 C10.44526047 24.34980362 9.56166351 24.35121857 8.65129089 24.35267639 C5.82893489 24.35827423 3.0066582 24.37082631 0.18432617 24.38354492 C-1.72908414 24.3885602 -3.6424957 24.39312306 -5.5559082 24.3972168 C-10.24669397 24.40824295 -14.93742045 24.42550609 -19.62817383 24.44604492 C-19.29817383 25.76604492 -18.96817383 27.08604492 -18.62817383 28.44604492 C-11.74823367 30.52505596 -5.28505277 30.75628151 1.87182617 30.88354492 C31.33000969 31.76691978 31.33000969 31.76691978 43.37182617 40.44604492 C47.45951057 44.82402552 50.11323433 49.36913655 50.37182617 55.44604492 C50.45432617 56.74541992 50.53682617 58.04479492 50.62182617 59.38354492 C50.55765138 63.59501582 49.31822072 66.69228402 47.37182617 70.44604492 C46.89745117 71.45666992 46.42307617 72.46729492 45.93432617 73.50854492 C41.34638188 78.7678957 34.20327146 82.0330158 27.37182617 83.44604492 C25.83750819 83.54877659 24.29959866 83.60402853 22.76196289 83.62304688 C21.39936844 83.64229973 21.39936844 83.64229973 20.00924683 83.66194153 C18.54516891 83.67302193 18.54516891 83.67302193 17.05151367 83.68432617 C16.03767609 83.69239792 15.0238385 83.70046967 13.97927856 83.70878601 C11.83247579 83.72260955 9.6856512 83.73333943 7.53881836 83.74121094 C5.35483308 83.75271071 3.17087546 83.77313053 0.98706055 83.80273438 C-2.17914816 83.84564408 -5.34452203 83.86161439 -8.51098633 83.87182617 C-9.95684616 83.8980883 -9.95684616 83.8980883 -11.43191528 83.92488098 C-20.48390343 83.89632287 -28.53211154 81.12289475 -35.62817383 75.44604492 C-37.00317383 73.19604492 -37.00317383 73.19604492 -37.62817383 71.44604492 C-38.28817383 71.44604492 -38.94817383 71.44604492 -39.62817383 71.44604492 C-41.97514228 65.83372906 -43.57446852 60.58187616 -43.62817383 54.44604492 C-41.18300596 52.00087705 -35.09404802 53.0684522 -31.81567383 53.00854492 C-30.29876953 52.93990234 -30.29876953 52.93990234 -28.7512207 52.86987305 C-25.92008548 52.8268353 -23.39832533 52.85272655 -20.62817383 53.44604492 C-18.05395508 56.41088867 -18.05395508 56.41088867 -16.62817383 59.44604492 C-13.19212618 61.16406874 -9.24378487 60.56570672 -5.46411133 60.54370117 C-4.55690338 60.54228622 -3.64969543 60.54087128 -2.71499634 60.53941345 C0.18897773 60.53380588 3.09287532 60.5212521 5.99682617 60.50854492 C7.96297089 60.5035309 9.92911682 60.49896782 11.89526367 60.49487305 C16.72081407 60.48383399 21.54630715 60.46656427 26.37182617 60.44604492 C26.37182617 59.12604492 26.37182617 57.80604492 26.37182617 56.44604492 C19.80693395 54.50783865 13.69349391 54.10365551 6.87182617 53.94604492 C-27.92758958 52.77201848 -27.92758958 52.77201848 -38.26098633 42.95776367 C-43.41978042 37.25361135 -43.92593576 31.67372582 -43.84692383 24.26635742 C-43.36778116 18.08883948 -41.09047218 12.79091437 -36.62817383 8.44604492 C-25.90823748 0.65606949 -12.80870518 -0.07599478 0 0 Z " fill="#322B2A" transform="translate(631.628173828125,583.553955078125)"/>
<path d="M0 0 C12.54 0 25.08 0 38 0 C39 1 39 1 39.12304783 3.34071445 C39.12166514 4.91006701 39.12166514 4.91006701 39.12025452 6.51112366 C39.12162918 7.7073082 39.12300385 8.90349274 39.12442017 10.13592529 C39.12088057 11.47351099 39.11724575 12.81109644 39.11352539 14.14868164 C39.11324352 15.54782611 39.11340125 16.94697073 39.1139679 18.34611511 C39.11425588 22.15586459 39.10835898 25.96558286 39.10139394 29.77532506 C39.09516059 33.75251309 39.09455662 37.72970176 39.09336853 41.70689392 C39.09025516 49.24338539 39.08204169 56.77986243 39.07201904 64.31634754 C39.06085808 72.89419828 39.0553475 81.4720497 39.05032361 90.0499059 C39.03985908 107.69994712 39.02151353 125.34996855 39 143 C26.13 143 13.26 143 0 143 C0 95.81 0 48.62 0 0 Z " fill="#322B2A" transform="translate(692,422)"/>
<path d="M0 0 C11.3025 -0.061875 22.605 -0.12375 34.25 -0.1875 C39.56786621 -0.22846802 39.56786621 -0.22846802 44.99316406 -0.27026367 C49.38232422 -0.28381348 49.38232422 -0.28381348 51.44866943 -0.28633118 C52.86650431 -0.29088424 54.28432891 -0.30132143 55.7020874 -0.31672668 C68.88278622 -0.45256416 81.30011941 0.37452135 91.6875 9.3125 C98.38432469 17.09529626 100.46676652 25.35813589 99.875 35.5625 C99.22669716 41.11709473 97.35189099 45.95710816 95 51 C94.34 51 93.68 51 93 51 C92.814375 51.556875 92.62875 52.11375 92.4375 52.6875 C89.18347967 57.92222836 84.49860638 60.11631598 78.7265625 61.609375 C68.36719297 63.88040893 57.74519262 63.57477865 47.1875 63.6875 C45.03057899 63.72073328 42.87367702 63.75522831 40.71679688 63.79101562 C35.47797088 63.87522559 30.23918289 63.94235657 25 64 C24.67 70.27 24.34 76.54 24 83 C16.08 83 8.16 83 0 83 C0 55.61 0 28.22 0 0 Z M24 23 C24 28.61 24 34.22 24 40 C30.4594831 40.12370114 36.91827515 40.2143889 43.37866211 40.2746582 C45.5757244 40.29978509 47.77270324 40.33389246 49.96948242 40.37719727 C53.12960405 40.43792762 56.28861957 40.46622833 59.44921875 40.48828125 C60.42960617 40.51408768 61.40999359 40.5398941 62.42008972 40.56648254 C67.13513672 40.56841683 69.28302544 40.54229835 73.14257812 37.62304688 C75.17965961 35.19628247 75.17965961 35.19628247 75.26953125 32.54296875 C75.11871094 31.76566406 74.96789062 30.98835937 74.8125 30.1875 C74.67457031 29.39730469 74.53664062 28.60710938 74.39453125 27.79296875 C74.26433594 27.20128906 74.13414063 26.60960937 74 26 C68.14184011 22.97497044 63.44340114 22.59518366 56.91015625 22.70703125 C55.4933683 22.71339851 55.4933683 22.71339851 54.04795837 22.71989441 C51.05250676 22.73659067 48.0577458 22.77422594 45.0625 22.8125 C43.02279622 22.82755854 40.98308183 22.8412449 38.94335938 22.85351562 C33.96197639 22.88646453 28.98110501 22.93818396 24 23 Z " fill="#322B2A" transform="translate(7,584)"/>
<path d="M0 0 C9.24 0 18.48 0 28 0 C29.32 4.29 30.64 8.58 32 13 C39.32759344 26.56384318 48.1510705 35.76373143 63.2734375 40.30859375 C77.11495391 43.81854848 90.46892163 42.23836031 102.9921875 35.35546875 C105.46489895 33.69071013 107.73337559 31.93379294 110 30 C110.94746094 29.25169922 110.94746094 29.25169922 111.9140625 28.48828125 C120.23936752 21.20822378 123.68077975 10.43649112 126 0 C135.24 0 144.48 0 154 0 C154 20.0583405 144.63497919 36.08240444 131 50.25 C114.77016057 65.88453644 95.54117666 71.68805733 73.38916016 71.47070312 C55.8643446 70.92058369 40.26972595 64.43399311 27 53 C26.30648437 52.43796875 25.61296875 51.8759375 24.8984375 51.296875 C23.21949889 49.91894132 21.60250522 48.46612179 20 47 C20 46.34 20 45.68 20 45 C19.34 45 18.68 45 18 45 C7.53664357 32.74657852 0 16.229702 0 0 Z " fill="#322B2A" transform="translate(926,496)"/>
<path d="M0 0 C27.72 0 55.44 0 84 0 C84 7.59 84 15.18 84 23 C73.77 23 63.54 23 53 23 C53 42.8 53 62.6 53 83 C45.41 83 37.82 83 30 83 C29 82 29 82 28.87974548 79.63987732 C28.88196609 78.59396927 28.88418671 77.54806122 28.88647461 76.47045898 C28.88655014 75.28931015 28.88662567 74.10816132 28.88670349 72.89122009 C28.89186478 71.6058284 28.89702606 70.32043671 28.90234375 68.99609375 C28.9037587 67.68794205 28.90517365 66.37979034 28.90663147 65.03199768 C28.9104559 61.54837141 28.92028554 58.06478661 28.93133545 54.58117676 C28.94155118 51.02873302 28.94618414 47.47628241 28.95117188 43.92382812 C28.96137768 36.94918209 28.98094936 29.97465003 29 23 C19.43 23 9.86 23 0 23 C0 15.41 0 7.82 0 0 Z " fill="#312A29" transform="translate(466,584)"/>
<path d="M0 0 C7.59 0 15.18 0 23 0 C23 27.39 23 54.78 23 83 C15.08 83 7.16 83 -1 83 C-1.02256234 72.47345379 -1.04092168 61.94692355 -1.05181217 51.42035866 C-1.05703817 46.53283416 -1.06413071 41.64532701 -1.07543945 36.7578125 C-1.08627835 32.04403894 -1.09227897 27.3302821 -1.09487724 22.61649704 C-1.09672968 20.8151053 -1.10034683 19.01371451 -1.10573006 17.21232986 C-1.11295376 14.69573209 -1.11399037 12.17920407 -1.11352539 9.66259766 C-1.11712067 8.91237839 -1.12071594 8.16215912 -1.12442017 7.38920593 C-1.11405216 2.22810432 -1.11405216 2.22810432 0 0 Z " fill="#302A28" transform="translate(558,584)"/>
<path d="M0 0 C7.59 0 15.18 0 23 0 C23 27.39 23 54.78 23 83 C15.41 83 7.82 83 0 83 C0 55.61 0 28.22 0 0 Z " fill="#322B2A" transform="translate(320,584)"/>
</svg>
